<?xml version="1.0" encoding="UTF-8" standalone="no"?>
<!-- This is a Stata 16.1 generated SVG file (http://www.stata.com) -->

<svg version="1.1" width="5.50in" height="4.00in" viewBox="0 0 3960 2880" xmlns="http://www.w3.org/2000/svg" xmlns:xlink="http://www.w3.org/1999/xlink">
	<desc>Stata Graph - Graph</desc>
	<rect x="0" y="0" width="3960" height="2880" style="fill:#EAF2F3;stroke:none"/>
	<rect x="0.00" y="0.00" width="3959.88" height="2880.00" style="fill:#EAF2F3"/>
	<rect x="2.88" y="2.88" width="3954.12" height="2874.24" style="fill:none;stroke:#EAF2F3;stroke-width:5.76"/>
	<rect x="521.73" y="100.86" width="3337.29" height="2388.33" style="fill:#FFFFFF"/>
	<rect x="524.61" y="103.74" width="3331.53" height="2382.57" style="fill:none;stroke:#FFFFFF;stroke-width:5.76"/>
	<line x1="521.73" y1="2425.82" x2="3859.02" y2="2425.82" style="stroke:#EAF2F3;stroke-width:8.64"/>
	<line x1="521.73" y1="2107.78" x2="3859.02" y2="2107.78" style="stroke:#EAF2F3;stroke-width:8.64"/>
	<line x1="521.73" y1="1789.73" x2="3859.02" y2="1789.73" style="stroke:#EAF2F3;stroke-width:8.64"/>
	<line x1="521.73" y1="1471.68" x2="3859.02" y2="1471.68" style="stroke:#EAF2F3;stroke-width:8.64"/>
	<line x1="521.73" y1="1153.63" x2="3859.02" y2="1153.63" style="stroke:#EAF2F3;stroke-width:8.64"/>
	<defs>
		<path id="path_iPVFUuAz" d="M594.62 2425.82 L594.62 2425.82 L604.15 2425.82 L613.68 2425.82 L623.08 2425.82 L632.61 2425.82 L642.14 2425.82 L651.67 2425.82 L661.07 2425.82 L670.60 2425.82 L680.13 2425.82 L689.66 2425.82 L699.06 2425.82 L708.59 2425.82 L718.12 2425.70 L727.65 2425.70 L737.05 2425.58 L746.58 2425.45 L756.11 2425.33 L765.64 2425.08 L775.17 2424.83 L784.58 2424.59 L794.10 2424.21 L803.63 2423.72 L813.16 2423.22 L822.57 2422.61 L832.10 2421.86 L841.62 2421.00 L851.15 2420.13 L860.56 2419.02 L870.09 2417.90 L879.62 2416.67 L889.14 2415.30 L898.55 2413.82 L908.08 2412.21 L917.61 2410.48 L927.13 2408.75 L936.54 2406.89 L946.07 2404.91 L955.60 2402.81 L965.13 2400.70 L974.53 2398.47 L984.06 2396.25 L993.59 2393.89 L1003.12 2391.54 L1012.52 2389.19 L1022.05 2386.72 L1031.58 2384.24 L1041.11 2381.77 L1050.51 2379.29 L1060.04 2376.82 L1069.57 2374.22 L1079.10 2371.74 L1088.63 2369.39 L1098.03 2366.92 L1107.56 2364.57 L1117.09 2362.21 L1126.62 2359.86 L1136.03 2357.63 L1145.55 2355.41 L1155.08 2353.18 L1164.61 2351.20 L1174.02 2349.10 L1183.55 2347.12 L1193.07 2345.26 L1202.60 2343.40 L1212.01 2341.55 L1221.54 2339.81 L1231.07 2338.08 L1240.59 2336.47 L1250.00 2334.99 L1259.53 2333.38 L1269.06 2332.02 L1278.59 2330.53 L1287.99 2329.30 L1297.52 2327.93 L1307.05 2326.70 L1316.58 2325.58 L1325.98 2324.47 L1335.51 2323.36 L1345.04 2322.37 L1354.57 2321.38 L1363.97 2320.39 L1373.50 2319.52 L1383.03 2318.65 L1392.56 2317.79 L1402.09 2317.04 L1411.49 2316.30 L1421.02 2315.56 L1430.55 2314.94 L1440.08 2314.32 L1449.48 2313.70 L1459.01 2313.08 L1468.54 2312.59 L1478.07 2312.09 L1487.47 2311.60 L1497.00 2311.10 L1506.53 2310.61 L1516.06 2310.24 L1525.47 2309.87 L1534.99 2309.49 L1544.52 2309.12 L1554.05 2308.75 L1563.46 2308.50 L1572.99 2308.26 L1582.52 2307.89 L1592.04 2307.64 L1601.45 2307.39 L1610.98 2307.14 L1620.51 2307.02 L1630.04 2306.77 L1639.44 2306.65 L1648.97 2306.40 L1658.50 2306.28 L1668.03 2306.15 L1677.56 2305.91 L1686.96 2305.78 L1696.49 2305.66 L1706.02 2305.53 L1715.55 2305.41 L1724.95 2305.29 L1734.48 2305.29 L1744.01 2305.16 L1753.54 2305.04 L1762.94 2304.92 L1772.47 2304.92 L1782.00 2304.79 L1791.53 2304.79 L1800.93 2304.67 L1810.46 2304.67 L1819.99 2304.54 L1829.52 2304.54 L1838.92 2304.42 L1848.45 2304.42 L1857.98 2304.30 L1867.51 2304.30 L1876.92 2304.17 L1886.44 2304.17 L1895.97 2304.17 L1905.50 2304.05 L1914.91 2304.05 L1924.44 2303.93 L1933.96 2303.93 L1943.49 2303.93 L1952.90 2303.80 L1962.43 2303.80 L1971.96 2303.68 L1981.48 2303.68 L1991.01 2303.55 L2000.42 2303.55 L2009.95 2303.43 L2019.48 2303.43 L2029.01 2303.31 L2038.41 2303.31 L2047.94 2303.18 L2057.47 2303.18 L2067.00 2303.06 L2076.40 2303.06 L2085.93 2302.94 L2095.46 2302.81 L2104.99 2302.81 L2114.39 2302.69 L2123.92 2302.56 L2133.45 2302.56 L2142.98 2302.44 L2152.38 2302.32 L2161.91 2302.19 L2171.44 2302.07 L2180.97 2301.95 L2190.38 2301.82 L2199.90 2301.82 L2209.43 2301.70 L2218.96 2301.57 L2228.37 2301.45 L2237.89 2301.20 L2247.42 2301.08 L2256.95 2300.96 L2266.36 2300.83 L2275.89 2300.71 L2285.41 2300.58 L2294.94 2300.34 L2304.47 2300.21 L2313.88 2300.09 L2323.41 2299.84 L2332.93 2299.72 L2342.46 2299.47 L2351.87 2299.35 L2361.40 2299.10 L2370.93 2298.98 L2380.45 2298.73 L2389.86 2298.60 L2399.39 2298.36 L2408.92 2298.11 L2418.45 2297.99 L2427.85 2297.74 L2437.38 2297.49 L2446.91 2297.24 L2456.44 2297.00 L2465.84 2296.75 L2475.37 2296.50 L2484.90 2296.25 L2494.43 2296.01 L2503.83 2295.76 L2513.36 2295.51 L2522.89 2295.26 L2532.42 2294.89 L2541.82 2294.64 L2551.35 2294.40 L2560.88 2294.15 L2570.41 2293.78 L2579.82 2293.53 L2589.34 2293.16 L2598.87 2292.91 L2608.40 2292.54 L2617.93 2292.17 L2627.34 2291.92 L2636.86 2291.55 L2646.39 2291.18 L2655.92 2290.93 L2665.33 2290.56 L2674.86 2290.19 L2684.39 2289.82 L2693.91 2289.45 L2703.32 2289.08 L2712.85 2288.70 L2722.38 2288.33 L2731.91 2287.96 L2741.31 2287.47 L2750.84 2287.10 L2760.37 2286.72 L2769.90 2286.23 L2779.30 2285.86 L2788.83 2285.49 L2798.36 2284.99 L2807.89 2284.62 L2817.29 2284.13 L2826.82 2283.63 L2836.35 2283.26 L2845.88 2282.76 L2855.28 2282.27 L2864.81 2281.77 L2874.34 2281.28 L2883.87 2280.78 L2893.40 2280.29 L2902.80 2279.79 L2912.33 2279.30 L2921.86 2278.80 L2931.39 2278.31 L2940.80 2277.81 L2950.32 2277.19 L2959.85 2276.70 L2969.38 2276.20 L2978.79 2275.59 L2988.32 2275.09 L2997.84 2274.47 L3007.37 2273.85 L3016.78 2273.36 L3026.31 2272.74 L3035.84 2272.12 L3045.36 2271.50 L3054.77 2270.88 L3064.30 2270.26 L3073.83 2269.65 L3083.36 2268.90 L3092.76 2268.28 L3102.29 2267.54 L3111.82 2266.92 L3121.35 2266.18 L3130.75 2265.44 L3140.28 2264.70 L3149.81 2263.83 L3159.34 2263.09 L3168.74 2262.34 L3178.27 2261.48 L3187.80 2260.61 L3197.33 2259.75 L3206.86 2258.88 L3216.26 2258.01 L3225.79 2257.02 L3235.32 2256.03 L3244.85 2255.04 L3254.25 2254.05 L3263.78 2253.06 L3273.31 2252.07 L3282.84 2250.96 L3292.24 2249.85 L3301.77 2248.73 L3311.30 2247.62 L3320.83 2246.38 L3330.24 2245.14 L3339.76 2243.91 L3349.29 2242.67 L3358.82 2241.31 L3368.23 2240.07 L3377.76 2238.71 L3387.28 2237.22 L3396.81 2235.86 L3406.22 2234.38 L3415.75 2232.89 L3425.28 2231.28 L3434.80 2229.67 L3444.21 2228.06 L3453.74 2226.46 L3463.27 2224.72 L3472.80 2222.99 L3482.20 2221.13 L3491.73 2219.40 L3501.26 2217.42 L3510.79 2215.57 L3520.32 2213.59 L3529.72 2211.61 L3539.25 2209.50 L3548.78 2207.40 L3558.31 2205.17 L3567.71 2202.94 L3577.24 2200.72 L3586.77 2198.49 L3596.30 2196.01 L3605.70 2193.66 L3615.23 2191.19 L3624.76 2188.71 L3634.29 2186.24 L3643.70 2183.64 L3653.22 2181.04 L3662.75 2178.32 L3672.28 2175.72 L3681.69 2172.87 L3691.22 2170.15 L3700.74 2167.30 L3710.27 2164.46 L3719.68 2161.61 L3729.21 2158.76 L3738.74 2155.79 L3748.26 2152.82 L3757.67 2149.85 L3767.20 2146.76 L3776.73 2143.66 L3786.26 2140.69 L3795.66 2137.48 L3795.66 2131.17 L3786.26 2134.26 L3776.73 2137.48 L3767.20 2140.57 L3757.67 2143.66 L3748.26 2146.76 L3738.74 2149.73 L3729.21 2152.70 L3719.68 2155.67 L3710.27 2158.64 L3700.74 2161.49 L3691.22 2164.33 L3681.69 2167.18 L3672.28 2169.90 L3662.75 2172.75 L3653.22 2175.35 L3643.70 2178.07 L3634.29 2180.67 L3624.76 2183.14 L3615.23 2185.74 L3605.70 2188.22 L3596.30 2190.57 L3586.77 2193.04 L3577.24 2195.27 L3567.71 2197.62 L3558.31 2199.85 L3548.78 2202.08 L3539.25 2204.18 L3529.72 2206.28 L3520.32 2208.26 L3510.79 2210.24 L3501.26 2212.22 L3491.73 2214.08 L3482.20 2215.94 L3472.80 2217.79 L3463.27 2219.53 L3453.74 2221.26 L3444.21 2222.99 L3434.80 2224.60 L3425.28 2226.21 L3415.75 2227.69 L3406.22 2229.30 L3396.81 2230.79 L3387.28 2232.27 L3377.76 2233.63 L3368.23 2234.99 L3358.82 2236.36 L3349.29 2237.72 L3339.76 2238.95 L3330.24 2240.19 L3320.83 2241.43 L3311.30 2242.67 L3301.77 2243.91 L3292.24 2245.02 L3282.84 2246.13 L3273.31 2247.25 L3263.78 2248.24 L3254.25 2249.35 L3244.85 2250.34 L3235.32 2251.33 L3225.79 2252.32 L3216.26 2253.19 L3206.86 2254.18 L3197.33 2255.04 L3187.80 2255.91 L3178.27 2256.78 L3168.74 2257.64 L3159.34 2258.51 L3149.81 2259.25 L3140.28 2259.99 L3130.75 2260.86 L3121.35 2261.60 L3111.82 2262.34 L3102.29 2263.09 L3092.76 2263.71 L3083.36 2264.45 L3073.83 2265.07 L3064.30 2265.81 L3054.77 2266.43 L3045.36 2267.05 L3035.84 2267.67 L3026.31 2268.28 L3016.78 2268.90 L3007.37 2269.52 L2997.84 2270.14 L2988.32 2270.64 L2978.79 2271.25 L2969.38 2271.75 L2959.85 2272.37 L2950.32 2272.86 L2940.80 2273.48 L2931.39 2273.98 L2921.86 2274.47 L2912.33 2275.09 L2902.80 2275.59 L2893.40 2276.08 L2883.87 2276.58 L2874.34 2277.07 L2864.81 2277.57 L2855.28 2278.06 L2845.88 2278.56 L2836.35 2278.93 L2826.82 2279.42 L2817.29 2279.92 L2807.89 2280.29 L2798.36 2280.78 L2788.83 2281.28 L2779.30 2281.65 L2769.90 2282.15 L2760.37 2282.52 L2750.84 2282.89 L2741.31 2283.38 L2731.91 2283.75 L2722.38 2284.13 L2712.85 2284.50 L2703.32 2284.87 L2693.91 2285.24 L2684.39 2285.61 L2674.86 2285.98 L2665.33 2286.35 L2655.92 2286.72 L2646.39 2287.10 L2636.86 2287.47 L2627.34 2287.71 L2617.93 2288.09 L2608.40 2288.46 L2598.87 2288.70 L2589.34 2289.08 L2579.82 2289.32 L2570.41 2289.69 L2560.88 2289.94 L2551.35 2290.31 L2541.82 2290.56 L2532.42 2290.81 L2522.89 2291.18 L2513.36 2291.43 L2503.83 2291.67 L2494.43 2291.92 L2484.90 2292.17 L2475.37 2292.42 L2465.84 2292.66 L2456.44 2292.91 L2446.91 2293.16 L2437.38 2293.41 L2427.85 2293.65 L2418.45 2293.78 L2408.92 2294.03 L2399.39 2294.27 L2389.86 2294.52 L2380.45 2294.64 L2370.93 2294.89 L2361.40 2295.02 L2351.87 2295.26 L2342.46 2295.39 L2332.93 2295.63 L2323.41 2295.76 L2313.88 2296.01 L2304.47 2296.13 L2294.94 2296.25 L2285.41 2296.38 L2275.89 2296.62 L2266.36 2296.75 L2256.95 2296.87 L2247.42 2297.00 L2237.89 2297.12 L2228.37 2297.24 L2218.96 2297.37 L2209.43 2297.49 L2199.90 2297.61 L2190.38 2297.74 L2180.97 2297.86 L2171.44 2297.99 L2161.91 2298.11 L2152.38 2298.23 L2142.98 2298.23 L2133.45 2298.36 L2123.92 2298.48 L2114.39 2298.60 L2104.99 2298.60 L2095.46 2298.73 L2085.93 2298.85 L2076.40 2298.85 L2067.00 2298.98 L2057.47 2298.98 L2047.94 2299.10 L2038.41 2299.10 L2029.01 2299.22 L2019.48 2299.22 L2009.95 2299.35 L2000.42 2299.35 L1991.01 2299.47 L1981.48 2299.47 L1971.96 2299.59 L1962.43 2299.59 L1952.90 2299.72 L1943.49 2299.72 L1933.96 2299.72 L1924.44 2299.84 L1914.91 2299.84 L1905.50 2299.97 L1895.97 2299.97 L1886.44 2299.97 L1876.92 2300.09 L1867.51 2300.09 L1857.98 2300.21 L1848.45 2300.21 L1838.92 2300.21 L1829.52 2300.34 L1819.99 2300.34 L1810.46 2300.46 L1800.93 2300.46 L1791.53 2300.58 L1782.00 2300.71 L1772.47 2300.71 L1762.94 2300.83 L1753.54 2300.96 L1744.01 2300.96 L1734.48 2301.08 L1724.95 2301.20 L1715.55 2301.33 L1706.02 2301.45 L1696.49 2301.57 L1686.96 2301.70 L1677.56 2301.82 L1668.03 2301.95 L1658.50 2302.19 L1648.97 2302.32 L1639.44 2302.44 L1630.04 2302.69 L1620.51 2302.94 L1610.98 2303.18 L1601.45 2303.43 L1592.04 2303.68 L1582.52 2303.93 L1572.99 2304.17 L1563.46 2304.42 L1554.05 2304.79 L1544.52 2305.16 L1534.99 2305.53 L1525.47 2305.91 L1516.06 2306.28 L1506.53 2306.77 L1497.00 2307.14 L1487.47 2307.64 L1478.07 2308.13 L1468.54 2308.63 L1459.01 2309.25 L1449.48 2309.87 L1440.08 2310.48 L1430.55 2311.10 L1421.02 2311.85 L1411.49 2312.59 L1402.09 2313.33 L1392.56 2314.07 L1383.03 2314.94 L1373.50 2315.81 L1363.97 2316.80 L1354.57 2317.79 L1345.04 2318.78 L1335.51 2319.77 L1325.98 2320.88 L1316.58 2322.12 L1307.05 2323.36 L1297.52 2324.59 L1287.99 2325.95 L1278.59 2327.32 L1269.06 2328.68 L1259.53 2330.16 L1250.00 2331.77 L1240.59 2333.38 L1231.07 2334.99 L1221.54 2336.72 L1212.01 2338.45 L1202.60 2340.31 L1193.07 2342.29 L1183.55 2344.27 L1174.02 2346.25 L1164.61 2348.35 L1155.08 2350.46 L1145.55 2352.68 L1136.03 2354.91 L1126.62 2357.26 L1117.09 2359.61 L1107.56 2361.97 L1098.03 2364.44 L1088.63 2366.92 L1079.10 2369.39 L1069.57 2371.99 L1060.04 2374.47 L1050.51 2377.06 L1041.11 2379.66 L1031.58 2382.14 L1022.05 2384.74 L1012.52 2387.21 L1003.12 2389.69 L993.59 2392.16 L984.06 2394.51 L974.53 2396.86 L965.13 2399.09 L955.60 2401.32 L946.07 2403.42 L936.54 2405.53 L927.13 2407.51 L917.61 2409.36 L908.08 2411.10 L898.55 2412.83 L889.14 2414.31 L879.62 2415.80 L870.09 2417.16 L860.56 2418.27 L851.15 2419.39 L841.62 2420.50 L832.10 2421.37 L822.57 2422.11 L813.16 2422.85 L803.63 2423.47 L794.10 2423.97 L784.58 2424.34 L775.17 2424.71 L765.64 2424.96 L756.11 2425.20 L746.58 2425.45 L737.05 2425.58 L727.65 2425.70 L718.12 2425.70 L708.59 2425.82 L699.06 2425.82 L689.66 2425.82 L680.13 2425.82 L670.60 2425.82 L661.07 2425.82 L651.67 2425.82 L642.14 2425.82 L632.61 2425.82 L623.08 2425.82 L613.68 2425.82 L604.15 2425.82 L594.62 2425.82 L594.62 2425.82 Z" stroke-linejoin="round"/>
	</defs>
	<defs>
		<clipPath id="clipPath_shprrgng">
			<use xlink:href="#path_iPVFUuAz"/>
		</clipPath>
	</defs>
	<use xlink:href="#path_iPVFUuAz" style="stroke:none;fill:#FF3333;fill-opacity:0.25"/>
	<use xlink:href="#path_iPVFUuAz" style="fill:none;stroke:#FF0000;stroke-opacity:0.25;stroke-width:17.28" clip-path="url(#clipPath_shprrgng)"/>
	<defs>
		<path id="path_eWEzWthm" d="M594.62 2425.82 L594.62 2425.82 L604.15 2425.82 L613.68 2425.82 L623.08 2425.82 L632.61 2425.82 L642.14 2425.82 L651.67 2425.82 L661.07 2425.82 L670.60 2425.82 L680.13 2425.82 L689.66 2425.70 L699.06 2425.58 L708.59 2425.45 L718.12 2425.08 L727.65 2424.71 L737.05 2424.09 L746.58 2423.22 L756.11 2422.11 L765.64 2420.63 L775.17 2418.77 L784.58 2416.42 L794.10 2413.57 L803.63 2410.23 L813.16 2406.27 L822.57 2401.69 L832.10 2396.37 L841.62 2390.43 L851.15 2383.62 L860.56 2376.07 L870.09 2367.78 L879.62 2358.75 L889.14 2348.97 L898.55 2338.33 L908.08 2327.07 L917.61 2314.94 L927.13 2302.19 L936.54 2288.83 L946.07 2274.84 L955.60 2260.24 L965.13 2245.14 L974.53 2229.55 L984.06 2213.59 L993.59 2197.25 L1003.12 2180.54 L1012.52 2163.71 L1022.05 2146.51 L1031.58 2129.31 L1041.11 2111.98 L1050.51 2094.53 L1060.04 2077.21 L1069.57 2060.01 L1079.10 2042.81 L1088.63 2025.85 L1098.03 2009.02 L1107.56 1992.44 L1117.09 1976.23 L1126.62 1960.26 L1136.03 1944.79 L1145.55 1929.57 L1155.08 1914.72 L1164.61 1900.36 L1174.02 1886.38 L1183.55 1872.89 L1193.07 1859.65 L1202.60 1846.90 L1212.01 1834.65 L1221.54 1822.77 L1231.07 1811.26 L1240.59 1800.25 L1250.00 1789.60 L1259.53 1779.33 L1269.06 1769.43 L1278.59 1760.03 L1287.99 1750.87 L1297.52 1742.21 L1307.05 1733.79 L1316.58 1725.87 L1325.98 1718.20 L1335.51 1710.77 L1345.04 1703.84 L1354.57 1697.16 L1363.97 1690.73 L1373.50 1684.66 L1383.03 1678.84 L1392.56 1673.28 L1402.09 1668.08 L1411.49 1663.00 L1421.02 1658.30 L1430.55 1653.72 L1440.08 1649.39 L1449.48 1645.31 L1459.01 1641.47 L1468.54 1637.76 L1478.07 1634.29 L1487.47 1630.95 L1497.00 1627.86 L1506.53 1624.89 L1516.06 1622.04 L1525.47 1619.44 L1534.99 1616.97 L1544.52 1614.62 L1554.05 1612.39 L1563.46 1610.29 L1572.99 1608.31 L1582.52 1606.45 L1592.04 1604.72 L1601.45 1603.11 L1610.98 1601.50 L1620.51 1600.14 L1630.04 1598.78 L1639.44 1597.41 L1648.97 1596.30 L1658.50 1595.06 L1668.03 1594.07 L1677.56 1593.08 L1686.96 1592.09 L1696.49 1591.23 L1706.02 1590.48 L1715.55 1589.62 L1724.95 1589.00 L1734.48 1588.26 L1744.01 1587.64 L1753.54 1587.02 L1762.94 1586.52 L1772.47 1585.91 L1782.00 1585.41 L1791.53 1584.92 L1800.93 1584.54 L1810.46 1584.05 L1819.99 1583.68 L1829.52 1583.31 L1838.92 1582.94 L1848.45 1582.56 L1857.98 1582.19 L1867.51 1581.82 L1876.92 1581.45 L1886.44 1581.08 L1895.97 1580.83 L1905.50 1580.46 L1914.91 1580.09 L1924.44 1579.84 L1933.96 1579.47 L1943.49 1579.10 L1952.90 1578.85 L1962.43 1578.48 L1971.96 1578.11 L1981.48 1577.74 L1991.01 1577.37 L2000.42 1577.00 L2009.95 1576.62 L2019.48 1576.25 L2029.01 1575.88 L2038.41 1575.39 L2047.94 1575.02 L2057.47 1574.52 L2067.00 1574.03 L2076.40 1573.53 L2085.93 1573.04 L2095.46 1572.54 L2104.99 1571.92 L2114.39 1571.43 L2123.92 1570.81 L2133.45 1570.19 L2142.98 1569.57 L2152.38 1568.95 L2161.91 1568.21 L2171.44 1567.59 L2180.97 1566.85 L2190.38 1566.11 L2199.90 1565.24 L2209.43 1564.50 L2218.96 1563.63 L2228.37 1562.89 L2237.89 1561.90 L2247.42 1561.03 L2256.95 1560.17 L2266.36 1559.17 L2275.89 1558.18 L2285.41 1557.19 L2294.94 1556.20 L2304.47 1555.09 L2313.88 1553.98 L2323.41 1552.86 L2332.93 1551.75 L2342.46 1550.51 L2351.87 1549.27 L2361.40 1548.04 L2370.93 1546.80 L2380.45 1545.44 L2389.86 1544.20 L2399.39 1542.72 L2408.92 1541.35 L2418.45 1539.99 L2427.85 1538.51 L2437.38 1537.02 L2446.91 1535.41 L2456.44 1533.93 L2465.84 1532.32 L2475.37 1530.71 L2484.90 1528.98 L2494.43 1527.25 L2503.83 1525.64 L2513.36 1523.78 L2522.89 1522.05 L2532.42 1520.19 L2541.82 1518.34 L2551.35 1516.48 L2560.88 1514.50 L2570.41 1512.52 L2579.82 1510.54 L2589.34 1508.44 L2598.87 1506.46 L2608.40 1504.35 L2617.93 1502.12 L2627.34 1500.02 L2636.86 1497.79 L2646.39 1495.44 L2655.92 1493.21 L2665.33 1490.86 L2674.86 1488.51 L2684.39 1486.16 L2693.91 1483.69 L2703.32 1481.21 L2712.85 1478.61 L2722.38 1476.14 L2731.91 1473.54 L2741.31 1470.94 L2750.84 1468.22 L2760.37 1465.49 L2769.90 1462.77 L2779.30 1460.05 L2788.83 1457.20 L2798.36 1454.36 L2807.89 1451.39 L2817.29 1448.42 L2826.82 1445.45 L2836.35 1442.48 L2845.88 1439.38 L2855.28 1436.29 L2864.81 1433.19 L2874.34 1429.98 L2883.87 1426.76 L2893.40 1423.54 L2902.80 1420.20 L2912.33 1416.86 L2921.86 1413.52 L2931.39 1410.05 L2940.80 1406.59 L2950.32 1403.00 L2959.85 1399.53 L2969.38 1395.82 L2978.79 1392.23 L2988.32 1388.52 L2997.84 1384.81 L3007.37 1380.97 L3016.78 1377.13 L3026.31 1373.17 L3035.84 1369.21 L3045.36 1365.13 L3054.77 1361.05 L3064.30 1356.84 L3073.83 1352.51 L3083.36 1348.17 L3092.76 1343.72 L3102.29 1339.14 L3111.82 1334.56 L3121.35 1329.74 L3130.75 1324.91 L3140.28 1319.96 L3149.81 1314.88 L3159.34 1309.69 L3168.74 1304.49 L3178.27 1299.04 L3187.80 1293.48 L3197.33 1287.78 L3206.86 1281.97 L3216.26 1276.03 L3225.79 1269.96 L3235.32 1263.77 L3244.85 1257.34 L3254.25 1250.90 L3263.78 1244.22 L3273.31 1237.41 L3282.84 1230.36 L3292.24 1223.18 L3301.77 1215.88 L3311.30 1208.33 L3320.83 1200.66 L3330.24 1192.74 L3339.76 1184.70 L3349.29 1176.40 L3358.82 1167.99 L3368.23 1159.33 L3377.76 1150.42 L3387.28 1141.38 L3396.81 1132.10 L3406.22 1122.57 L3415.75 1112.79 L3425.28 1102.89 L3434.80 1092.62 L3444.21 1082.23 L3453.74 1071.46 L3463.27 1060.57 L3472.80 1049.31 L3482.20 1037.80 L3491.73 1026.17 L3501.26 1014.04 L3510.79 1001.79 L3520.32 989.16 L3529.72 976.29 L3539.25 963.05 L3548.78 949.56 L3558.31 935.83 L3567.71 921.72 L3577.24 907.36 L3586.77 892.64 L3596.30 877.66 L3605.70 862.44 L3615.23 846.97 L3624.76 831.25 L3634.29 815.17 L3643.70 798.95 L3653.22 782.50 L3662.75 765.67 L3672.28 748.71 L3681.69 731.51 L3691.22 714.06 L3700.74 696.36 L3710.27 678.54 L3719.68 660.60 L3729.21 642.28 L3738.74 623.84 L3748.26 605.28 L3757.67 586.59 L3767.20 567.66 L3776.73 548.60 L3786.26 529.42 L3795.66 510.11 L3795.66 164.22 L3786.26 186.62 L3776.73 209.02 L3767.20 231.30 L3757.67 253.32 L3748.26 275.10 L3738.74 296.89 L3729.21 318.29 L3719.68 339.58 L3710.27 360.62 L3700.74 381.41 L3691.22 401.95 L3681.69 422.37 L3672.28 442.42 L3662.75 462.22 L3653.22 481.77 L3643.70 501.08 L3634.29 520.01 L3624.76 538.82 L3615.23 557.14 L3605.70 575.33 L3596.30 593.03 L3586.77 610.60 L3577.24 627.68 L3567.71 644.51 L3558.31 660.97 L3548.78 677.18 L3539.25 692.90 L3529.72 708.37 L3520.32 723.47 L3510.79 738.19 L3501.26 752.55 L3491.73 766.66 L3482.20 780.39 L3472.80 793.76 L3463.27 806.88 L3453.74 819.75 L3444.21 832.24 L3434.80 844.50 L3425.28 856.50 L3415.75 868.26 L3406.22 879.64 L3396.81 890.78 L3387.28 901.67 L3377.76 912.31 L3368.23 922.71 L3358.82 932.86 L3349.29 942.76 L3339.76 952.53 L3330.24 961.94 L3320.83 971.22 L3311.30 980.25 L3301.77 989.04 L3292.24 997.70 L3282.84 1006.12 L3273.31 1014.29 L3263.78 1022.33 L3254.25 1030.25 L3244.85 1037.92 L3235.32 1045.35 L3225.79 1052.65 L3216.26 1059.83 L3206.86 1066.76 L3197.33 1073.69 L3187.80 1080.37 L3178.27 1086.81 L3168.74 1093.24 L3159.34 1099.43 L3149.81 1105.49 L3140.28 1111.43 L3130.75 1117.37 L3121.35 1123.07 L3111.82 1128.64 L3102.29 1134.08 L3092.76 1139.40 L3083.36 1144.72 L3073.83 1149.80 L3064.30 1154.87 L3054.77 1159.82 L3045.36 1164.77 L3035.84 1169.47 L3026.31 1174.18 L3016.78 1178.76 L3007.37 1183.33 L2997.84 1187.79 L2988.32 1192.24 L2978.79 1196.58 L2969.38 1200.91 L2959.85 1205.12 L2950.32 1209.32 L2940.80 1213.41 L2931.39 1217.49 L2921.86 1221.57 L2912.33 1225.53 L2902.80 1229.49 L2893.40 1233.45 L2883.87 1237.29 L2874.34 1241.00 L2864.81 1244.84 L2855.28 1248.55 L2845.88 1252.14 L2836.35 1255.73 L2826.82 1259.32 L2817.29 1262.78 L2807.89 1266.25 L2798.36 1269.71 L2788.83 1273.06 L2779.30 1276.40 L2769.90 1279.74 L2760.37 1282.96 L2750.84 1286.05 L2741.31 1289.27 L2731.91 1292.36 L2722.38 1295.46 L2712.85 1298.43 L2703.32 1301.40 L2693.91 1304.24 L2684.39 1307.21 L2674.86 1309.93 L2665.33 1312.78 L2655.92 1315.50 L2646.39 1318.23 L2636.86 1320.83 L2627.34 1323.42 L2617.93 1326.02 L2608.40 1328.62 L2598.87 1331.10 L2589.34 1333.45 L2579.82 1335.92 L2570.41 1338.27 L2560.88 1340.63 L2551.35 1342.85 L2541.82 1345.08 L2532.42 1347.31 L2522.89 1349.41 L2513.36 1351.52 L2503.83 1353.62 L2494.43 1355.72 L2484.90 1357.70 L2475.37 1359.68 L2465.84 1361.54 L2456.44 1363.40 L2446.91 1365.25 L2437.38 1367.11 L2427.85 1368.84 L2418.45 1370.57 L2408.92 1372.18 L2399.39 1373.92 L2389.86 1375.52 L2380.45 1377.01 L2370.93 1378.62 L2361.40 1380.10 L2351.87 1381.59 L2342.46 1382.95 L2332.93 1384.43 L2323.41 1385.80 L2313.88 1387.03 L2304.47 1388.39 L2294.94 1389.63 L2285.41 1390.87 L2275.89 1391.98 L2266.36 1393.22 L2256.95 1394.33 L2247.42 1395.32 L2237.89 1396.44 L2228.37 1397.43 L2218.96 1398.42 L2209.43 1399.41 L2199.90 1400.40 L2190.38 1401.27 L2180.97 1402.13 L2171.44 1403.00 L2161.91 1403.74 L2152.38 1404.61 L2142.98 1405.35 L2133.45 1406.09 L2123.92 1406.83 L2114.39 1407.45 L2104.99 1408.20 L2095.46 1408.81 L2085.93 1409.43 L2076.40 1410.05 L2067.00 1410.55 L2057.47 1411.17 L2047.94 1411.66 L2038.41 1412.16 L2029.01 1412.65 L2019.48 1413.15 L2009.95 1413.64 L2000.42 1414.14 L1991.01 1414.51 L1981.48 1415.00 L1971.96 1415.37 L1962.43 1415.87 L1952.90 1416.24 L1943.49 1416.61 L1933.96 1416.98 L1924.44 1417.35 L1914.91 1417.72 L1905.50 1418.10 L1895.97 1418.59 L1886.44 1418.96 L1876.92 1419.33 L1867.51 1419.70 L1857.98 1420.08 L1848.45 1420.57 L1838.92 1420.94 L1829.52 1421.44 L1819.99 1421.93 L1810.46 1422.43 L1800.93 1422.92 L1791.53 1423.42 L1782.00 1424.04 L1772.47 1424.53 L1762.94 1425.27 L1753.54 1425.89 L1744.01 1426.63 L1734.48 1427.38 L1724.95 1428.12 L1715.55 1428.99 L1706.02 1429.98 L1696.49 1430.84 L1686.96 1431.96 L1677.56 1433.07 L1668.03 1434.18 L1658.50 1435.42 L1648.97 1436.78 L1639.44 1438.27 L1630.04 1439.75 L1620.51 1441.36 L1610.98 1443.09 L1601.45 1444.95 L1592.04 1446.81 L1582.52 1448.91 L1572.99 1451.14 L1563.46 1453.49 L1554.05 1455.96 L1544.52 1458.56 L1534.99 1461.41 L1525.47 1464.26 L1516.06 1467.47 L1506.53 1470.69 L1497.00 1474.28 L1487.47 1477.99 L1478.07 1481.83 L1468.54 1486.04 L1459.01 1490.37 L1449.48 1494.95 L1440.08 1499.77 L1430.55 1504.85 L1421.02 1510.29 L1411.49 1515.98 L1402.09 1521.93 L1392.56 1528.11 L1383.03 1534.67 L1373.50 1541.60 L1363.97 1548.78 L1354.57 1556.33 L1345.04 1564.25 L1335.51 1572.54 L1325.98 1581.33 L1316.58 1590.36 L1307.05 1599.89 L1297.52 1609.79 L1287.99 1620.06 L1278.59 1630.95 L1269.06 1642.09 L1259.53 1653.85 L1250.00 1665.97 L1240.59 1678.60 L1231.07 1691.72 L1221.54 1705.33 L1212.01 1719.44 L1202.60 1734.04 L1193.07 1749.14 L1183.55 1764.73 L1174.02 1780.82 L1164.61 1797.40 L1155.08 1814.48 L1145.55 1832.05 L1136.03 1850.12 L1126.62 1868.56 L1117.09 1887.49 L1107.56 1906.80 L1098.03 1926.48 L1088.63 1946.40 L1079.10 1966.57 L1069.57 1986.99 L1060.04 2007.66 L1050.51 2028.20 L1041.11 2048.99 L1031.58 2069.54 L1022.05 2090.20 L1012.52 2110.50 L1003.12 2130.67 L993.59 2150.59 L984.06 2170.02 L974.53 2189.21 L965.13 2207.77 L955.60 2225.84 L946.07 2243.16 L936.54 2259.99 L927.13 2275.96 L917.61 2291.30 L908.08 2305.78 L898.55 2319.39 L889.14 2332.02 L879.62 2343.90 L870.09 2354.79 L860.56 2364.81 L851.15 2373.85 L841.62 2382.14 L832.10 2389.44 L822.57 2395.87 L813.16 2401.44 L803.63 2406.27 L794.10 2410.48 L784.58 2413.94 L775.17 2416.79 L765.64 2419.14 L756.11 2421.00 L746.58 2422.36 L737.05 2423.47 L727.65 2424.34 L718.12 2424.83 L708.59 2425.20 L699.06 2425.45 L689.66 2425.70 L680.13 2425.70 L670.60 2425.82 L661.07 2425.82 L651.67 2425.82 L642.14 2425.82 L632.61 2425.82 L623.08 2425.82 L613.68 2425.82 L604.15 2425.82 L594.62 2425.82 L594.62 2425.82 Z" stroke-linejoin="round"/>
	</defs>
	<defs>
		<clipPath id="clipPath_KLhsDEYn">
			<use xlink:href="#path_eWEzWthm"/>
		</clipPath>
	</defs>
	<use xlink:href="#path_eWEzWthm" style="stroke:none;fill:#3333FF;fill-opacity:0.25"/>
	<use xlink:href="#path_eWEzWthm" style="fill:none;stroke:#0000FF;stroke-opacity:0.25;stroke-width:17.28" clip-path="url(#clipPath_KLhsDEYn)"/>
	<path d=" M585.09 2425.95 L594.62 2425.95 L604.02 2425.95 L613.55 2425.95 L623.08 2425.95 L632.61 2425.95 L642.01 2425.95 L651.54 2425.95 L661.07 2425.95 L670.60 2425.95 L680.01 2425.95 L689.53 2425.95 L699.06 2425.82 L708.59 2425.82 L718.00 2425.82 L727.53 2425.70 L737.05 2425.70 L746.58 2425.58 L755.99 2425.33 L765.52 2425.08 L775.05 2424.83 L784.58 2424.59 L794.10 2424.09 L803.51 2423.60 L813.04 2423.10 L822.57 2422.36 L832.10 2421.62 L841.50 2420.75 L851.03 2419.88 L860.56 2418.77 L870.09 2417.53 L879.49 2416.29 L889.02 2414.81 L898.55 2413.32 L908.08 2411.72 L917.48 2409.98 L927.01 2408.13 L936.54 2406.27 L946.07 2404.29 L955.47 2402.19 L965.00 2399.96 L974.53 2397.73 L984.06 2395.50 L993.47 2393.15 L1002.99 2390.68 L1012.52 2388.20 L1022.05 2385.73 L1031.46 2383.25 L1040.98 2380.78 L1050.51 2378.18 L1060.04 2375.70 L1069.57 2373.23 L1078.98 2370.75 L1088.51 2368.15 L1098.03 2365.80 L1107.56 2363.33 L1116.97 2360.98 L1126.50 2358.62 L1136.03 2356.40 L1145.55 2354.05 L1154.96 2351.94 L1164.49 2349.84 L1174.02 2347.73 L1183.55 2345.75 L1192.95 2343.77 L1202.48 2341.92 L1212.01 2340.06 L1221.54 2338.33 L1230.94 2336.60 L1240.47 2334.99 L1250.00 2333.38 L1259.53 2331.89 L1268.93 2330.41 L1278.46 2329.05 L1287.99 2327.69 L1297.52 2326.33 L1306.92 2325.09 L1316.45 2323.85 L1325.98 2322.74 L1335.51 2321.62 L1344.91 2320.63 L1354.44 2319.64 L1363.97 2318.65 L1373.50 2317.79 L1383.03 2316.92 L1392.43 2316.05 L1401.96 2315.31 L1411.49 2314.44 L1421.02 2313.83 L1430.43 2313.08 L1439.95 2312.46 L1449.48 2311.85 L1459.01 2311.23 L1468.42 2310.73 L1477.95 2310.24 L1487.47 2309.74 L1497.00 2309.25 L1506.41 2308.75 L1515.94 2308.38 L1525.47 2307.89 L1534.99 2307.51 L1544.40 2307.27 L1553.93 2306.90 L1563.46 2306.52 L1572.99 2306.28 L1582.39 2306.03 L1591.92 2305.78 L1601.45 2305.53 L1610.98 2305.29 L1620.38 2305.04 L1629.91 2304.79 L1639.44 2304.67 L1648.97 2304.42 L1658.37 2304.30 L1667.90 2304.17 L1677.43 2303.93 L1686.96 2303.80 L1696.49 2303.68 L1705.89 2303.55 L1715.42 2303.43 L1724.95 2303.31 L1734.48 2303.18 L1743.88 2303.18 L1753.41 2303.06 L1762.94 2302.94 L1772.47 2302.94 L1781.88 2302.81 L1791.40 2302.69 L1800.93 2302.69 L1810.46 2302.56 L1819.87 2302.56 L1829.40 2302.44 L1838.92 2302.44 L1848.45 2302.32 L1857.86 2302.32 L1867.39 2302.32 L1876.92 2302.19 L1886.44 2302.19 L1895.85 2302.07 L1905.38 2302.07 L1914.91 2302.07 L1924.44 2301.95 L1933.84 2301.95 L1943.37 2301.82 L1952.90 2301.82 L1962.43 2301.82 L1971.83 2301.70 L1981.36 2301.70 L1990.89 2301.57 L2000.42 2301.57 L2009.95 2301.45 L2019.35 2301.45 L2028.88 2301.33 L2038.41 2301.33 L2047.94 2301.20 L2057.34 2301.20 L2066.87 2301.08 L2076.40 2301.08 L2085.93 2300.96 L2095.34 2300.83 L2104.86 2300.83 L2114.39 2300.71 L2123.92 2300.58 L2133.33 2300.46 L2142.86 2300.46 L2152.38 2300.34 L2161.91 2300.21 L2171.32 2300.09 L2180.85 2299.97 L2190.38 2299.84 L2199.90 2299.84 L2209.31 2299.72 L2218.84 2299.59 L2228.37 2299.47 L2237.89 2299.22 L2247.30 2299.10 L2256.83 2298.98 L2266.36 2298.85 L2275.89 2298.73 L2285.41 2298.60 L2294.82 2298.36 L2304.35 2298.23 L2313.88 2298.11 L2323.41 2297.86 L2332.81 2297.74 L2342.34 2297.61 L2351.87 2297.37 L2361.40 2297.24 L2370.80 2297.00 L2380.33 2296.75 L2389.86 2296.62 L2399.39 2296.38 L2408.79 2296.13 L2418.32 2296.01 L2427.85 2295.76 L2437.38 2295.51 L2446.78 2295.26 L2456.31 2295.02 L2465.84 2294.77 L2475.37 2294.52 L2484.78 2294.27 L2494.30 2294.03 L2503.83 2293.78 L2513.36 2293.53 L2522.77 2293.28 L2532.30 2292.91 L2541.82 2292.66 L2551.35 2292.42 L2560.76 2292.17 L2570.29 2291.80 L2579.82 2291.55 L2589.34 2291.18 L2598.87 2290.93 L2608.28 2290.56 L2617.81 2290.19 L2627.34 2289.94 L2636.86 2289.57 L2646.27 2289.20 L2655.80 2288.83 L2665.33 2288.58 L2674.86 2288.21 L2684.26 2287.84 L2693.79 2287.47 L2703.32 2287.10 L2712.85 2286.72 L2722.25 2286.35 L2731.78 2285.86 L2741.31 2285.49 L2750.84 2285.12 L2760.24 2284.62 L2769.77 2284.25 L2779.30 2283.88 L2788.83 2283.38 L2798.24 2283.01 L2807.76 2282.52 L2817.29 2282.15 L2826.82 2281.65 L2836.23 2281.16 L2845.76 2280.66 L2855.28 2280.29 L2864.81 2279.79 L2874.22 2279.30 L2883.75 2278.80 L2893.28 2278.31 L2902.80 2277.81 L2912.33 2277.32 L2921.74 2276.70 L2931.27 2276.20 L2940.80 2275.71 L2950.32 2275.21 L2959.73 2274.60 L2969.26 2274.10 L2978.79 2273.48 L2988.32 2272.99 L2997.72 2272.37 L3007.25 2271.75 L3016.78 2271.25 L3026.31 2270.64 L3035.71 2270.02 L3045.24 2269.40 L3054.77 2268.78 L3064.30 2268.04 L3073.70 2267.42 L3083.23 2266.80 L3092.76 2266.06 L3102.29 2265.44 L3111.69 2264.70 L3121.22 2263.95 L3130.75 2263.21 L3140.28 2262.47 L3149.68 2261.60 L3159.21 2260.86 L3168.74 2259.99 L3178.27 2259.25 L3187.68 2258.38 L3197.20 2257.52 L3206.73 2256.53 L3216.26 2255.66 L3225.79 2254.67 L3235.20 2253.81 L3244.72 2252.82 L3254.25 2251.83 L3263.78 2250.71 L3273.19 2249.72 L3282.72 2248.61 L3292.24 2247.49 L3301.77 2246.38 L3311.18 2245.27 L3320.71 2244.03 L3330.24 2242.79 L3339.76 2241.55 L3349.17 2240.32 L3358.70 2238.95 L3368.23 2237.59 L3377.76 2236.23 L3387.16 2234.87 L3396.69 2233.39 L3406.22 2231.90 L3415.75 2230.42 L3425.15 2228.81 L3434.68 2227.20 L3444.21 2225.59 L3453.74 2223.86 L3463.14 2222.25 L3472.67 2220.39 L3482.20 2218.66 L3491.73 2216.80 L3501.14 2214.95 L3510.66 2212.97 L3520.19 2210.99 L3529.72 2209.01 L3539.25 2206.90 L3548.66 2204.80 L3558.18 2202.57 L3567.71 2200.34 L3577.24 2198.12 L3586.65 2195.76 L3596.18 2193.41 L3605.70 2191.06 L3615.23 2188.59 L3624.64 2185.99 L3634.17 2183.51 L3643.70 2180.91 L3653.22 2178.32 L3662.63 2175.59 L3672.16 2172.87 L3681.69 2170.15 L3691.22 2167.30 L3700.62 2164.46 L3710.15 2161.61 L3719.68 2158.76 L3729.21 2155.79 L3738.61 2152.82 L3748.14 2149.85 L3757.67 2146.76 L3767.20 2143.79 L3776.60 2140.69 L3786.13 2137.60 L3795.66 2134.38" stroke-linejoin="round" style="fill:none;stroke:#FF0000;stroke-width:8.64"/>
	<path d=" M585.09 2425.95 L594.62 2425.95 L604.02 2425.95 L613.55 2425.95 L623.08 2425.95 L632.61 2425.95 L642.01 2425.95 L651.54 2425.95 L661.07 2425.95 L670.60 2425.82 L680.01 2425.82 L689.53 2425.70 L699.06 2425.58 L708.59 2425.45 L718.00 2425.08 L727.53 2424.59 L737.05 2423.84 L746.58 2422.85 L755.99 2421.62 L765.52 2420.01 L775.05 2417.90 L784.58 2415.30 L794.10 2412.21 L803.51 2408.50 L813.04 2404.04 L822.57 2398.97 L832.10 2393.15 L841.50 2386.47 L851.03 2379.04 L860.56 2370.75 L870.09 2361.72 L879.49 2351.82 L889.02 2340.93 L898.55 2329.42 L908.08 2316.92 L917.48 2303.80 L927.01 2289.82 L936.54 2275.21 L946.07 2259.87 L955.47 2243.91 L965.00 2227.45 L974.53 2210.37 L984.06 2192.92 L993.47 2175.10 L1002.99 2156.91 L1012.52 2138.34 L1022.05 2119.66 L1031.46 2100.85 L1040.98 2081.91 L1050.51 2062.98 L1060.04 2044.04 L1069.57 2025.23 L1078.98 2006.55 L1088.51 1987.98 L1098.03 1969.67 L1107.56 1951.60 L1116.97 1933.90 L1126.50 1916.58 L1136.03 1899.62 L1145.55 1883.04 L1154.96 1866.95 L1164.49 1851.23 L1174.02 1836.01 L1183.55 1821.29 L1192.95 1806.93 L1202.48 1793.07 L1212.01 1779.70 L1221.54 1766.71 L1230.94 1754.21 L1240.47 1742.21 L1250.00 1730.57 L1259.53 1719.44 L1268.93 1708.67 L1278.46 1698.40 L1287.99 1688.50 L1297.52 1678.97 L1306.92 1669.81 L1316.45 1661.15 L1325.98 1652.86 L1335.51 1644.81 L1344.91 1637.14 L1354.44 1629.96 L1363.97 1622.91 L1373.50 1616.35 L1383.03 1610.04 L1392.43 1603.97 L1401.96 1598.28 L1411.49 1592.71 L1421.02 1587.64 L1430.43 1582.69 L1439.95 1577.99 L1449.48 1573.53 L1459.01 1569.32 L1468.42 1565.24 L1477.95 1561.53 L1487.47 1557.94 L1497.00 1554.47 L1506.41 1551.25 L1515.94 1548.28 L1525.47 1545.31 L1534.99 1542.59 L1544.40 1540.12 L1553.93 1537.64 L1563.46 1535.41 L1572.99 1533.19 L1582.39 1531.21 L1591.92 1529.35 L1601.45 1527.49 L1610.98 1525.89 L1620.38 1524.28 L1629.91 1522.79 L1639.44 1521.43 L1648.97 1520.07 L1658.37 1518.83 L1667.90 1517.72 L1677.43 1516.60 L1686.96 1515.61 L1696.49 1514.62 L1705.89 1513.76 L1715.42 1512.89 L1724.95 1512.15 L1734.48 1511.41 L1743.88 1510.66 L1753.41 1510.04 L1762.94 1509.43 L1772.47 1508.81 L1781.88 1508.31 L1791.40 1507.82 L1800.93 1507.32 L1810.46 1506.83 L1819.87 1506.33 L1829.40 1505.96 L1838.92 1505.59 L1848.45 1505.09 L1857.86 1504.72 L1867.39 1504.35 L1876.92 1503.98 L1886.44 1503.61 L1895.85 1503.24 L1905.38 1502.99 L1914.91 1502.62 L1924.44 1502.25 L1933.84 1501.88 L1943.37 1501.51 L1952.90 1501.13 L1962.43 1500.76 L1971.83 1500.39 L1981.36 1500.02 L1990.89 1499.65 L2000.42 1499.15 L2009.95 1498.78 L2019.35 1498.29 L2028.88 1497.92 L2038.41 1497.42 L2047.94 1496.93 L2057.34 1496.43 L2066.87 1495.94 L2076.40 1495.44 L2085.93 1494.82 L2095.34 1494.33 L2104.86 1493.71 L2114.39 1493.09 L2123.92 1492.47 L2133.33 1491.85 L2142.86 1491.11 L2152.38 1490.37 L2161.91 1489.63 L2171.32 1488.88 L2180.85 1488.14 L2190.38 1487.27 L2199.90 1486.53 L2209.31 1485.67 L2218.84 1484.80 L2228.37 1483.81 L2237.89 1482.94 L2247.30 1481.95 L2256.83 1480.96 L2266.36 1479.85 L2275.89 1478.86 L2285.41 1477.74 L2294.82 1476.63 L2304.35 1475.39 L2313.88 1474.28 L2323.41 1473.04 L2332.81 1471.80 L2342.34 1470.44 L2351.87 1469.21 L2361.40 1467.84 L2370.80 1466.48 L2380.33 1465.00 L2389.86 1463.51 L2399.39 1462.03 L2408.79 1460.54 L2418.32 1459.06 L2427.85 1457.45 L2437.38 1455.84 L2446.78 1454.11 L2456.31 1452.38 L2465.84 1450.77 L2475.37 1448.91 L2484.78 1447.18 L2494.30 1445.32 L2503.83 1443.47 L2513.36 1441.49 L2522.77 1439.50 L2532.30 1437.52 L2541.82 1435.54 L2551.35 1433.44 L2560.76 1431.34 L2570.29 1429.23 L2579.82 1427.13 L2589.34 1424.90 L2598.87 1422.67 L2608.28 1420.32 L2617.81 1417.97 L2627.34 1415.62 L2636.86 1413.27 L2646.27 1410.79 L2655.80 1408.32 L2665.33 1405.72 L2674.86 1403.25 L2684.26 1400.65 L2693.79 1397.92 L2703.32 1395.20 L2712.85 1392.48 L2722.25 1389.76 L2731.78 1386.91 L2741.31 1384.06 L2750.84 1381.22 L2760.24 1378.25 L2769.77 1375.28 L2779.30 1372.31 L2788.83 1369.21 L2798.24 1366.12 L2807.76 1362.90 L2817.29 1359.81 L2826.82 1356.47 L2836.23 1353.25 L2845.76 1349.91 L2855.28 1346.57 L2864.81 1343.10 L2874.22 1339.64 L2883.75 1336.17 L2893.28 1332.71 L2902.80 1329.12 L2912.33 1325.40 L2921.74 1321.69 L2931.27 1317.98 L2940.80 1314.27 L2950.32 1310.43 L2959.73 1306.59 L2969.26 1302.63 L2978.79 1298.67 L2988.32 1294.71 L2997.72 1290.63 L3007.25 1286.55 L3016.78 1282.34 L3026.31 1278.13 L3035.71 1273.80 L3045.24 1269.34 L3054.77 1264.89 L3064.30 1260.31 L3073.70 1255.61 L3083.23 1250.90 L3092.76 1246.08 L3102.29 1241.13 L3111.69 1236.05 L3121.22 1230.98 L3130.75 1225.66 L3140.28 1220.34 L3149.68 1214.77 L3159.21 1209.20 L3168.74 1203.38 L3178.27 1197.57 L3187.68 1191.50 L3197.20 1185.44 L3206.73 1179.13 L3216.26 1172.69 L3225.79 1166.13 L3235.20 1159.33 L3244.72 1152.40 L3254.25 1145.34 L3263.78 1138.16 L3273.19 1130.74 L3282.72 1123.07 L3292.24 1115.39 L3301.77 1107.35 L3311.18 1099.31 L3320.71 1090.89 L3330.24 1082.35 L3339.76 1073.69 L3349.17 1064.65 L3358.70 1055.50 L3368.23 1046.09 L3377.76 1036.56 L3387.16 1026.66 L3396.69 1016.64 L3406.22 1006.37 L3415.75 995.85 L3425.15 984.96 L3434.68 973.94 L3444.21 962.68 L3453.74 951.05 L3463.14 939.17 L3472.67 927.04 L3482.20 914.66 L3491.73 901.92 L3501.14 888.92 L3510.66 875.56 L3520.19 861.95 L3529.72 848.09 L3539.25 833.73 L3548.66 819.25 L3558.18 804.28 L3567.71 789.05 L3577.24 773.46 L3586.65 757.62 L3596.18 741.41 L3605.70 724.95 L3615.23 708.24 L3624.64 691.17 L3634.17 673.96 L3643.70 656.27 L3653.22 638.45 L3662.63 620.38 L3672.16 602.06 L3681.69 583.50 L3691.22 564.57 L3700.62 545.51 L3710.15 526.33 L3719.68 506.77 L3729.21 487.10 L3738.61 467.29 L3748.14 447.12 L3757.67 426.95 L3767.20 406.53 L3776.60 385.99 L3786.13 365.20 L3795.66 344.28" stroke-linejoin="round" style="fill:none;stroke:#0000FF;stroke-width:8.64"/>
	<line x1="521.73" y1="2489.19" x2="521.73" y2="100.86" style="stroke:#000000;stroke-width:5.76"/>
	<line x1="521.73" y1="2425.82" x2="481.76" y2="2425.82" style="stroke:#000000;stroke-width:5.76"/>
	<text x="461.83" y="2460.85" style="font-family:'Helvetica';font-size:99.99px;fill:#000000" text-anchor="end">0.00</text>
	<line x1="521.73" y1="2107.78" x2="481.76" y2="2107.78" style="stroke:#000000;stroke-width:5.76"/>
	<text x="461.83" y="2142.80" style="font-family:'Helvetica';font-size:99.99px;fill:#000000" text-anchor="end">0.25</text>
	<line x1="521.73" y1="1789.73" x2="481.76" y2="1789.73" style="stroke:#000000;stroke-width:5.76"/>
	<text x="461.83" y="1824.76" style="font-family:'Helvetica';font-size:99.99px;fill:#000000" text-anchor="end">0.50</text>
	<line x1="521.73" y1="1471.68" x2="481.76" y2="1471.68" style="stroke:#000000;stroke-width:5.76"/>
	<text x="461.83" y="1506.71" style="font-family:'Helvetica';font-size:99.99px;fill:#000000" text-anchor="end">0.75</text>
	<line x1="521.73" y1="1153.63" x2="481.76" y2="1153.63" style="stroke:#000000;stroke-width:5.76"/>
	<text x="461.83" y="1188.66" style="font-family:'Helvetica';font-size:99.99px;fill:#000000" text-anchor="end">1.00</text>
	<text x="190.71" y="1294.96" style="font-family:'Helvetica';font-size:99.99px;fill:#000000" transform="rotate(-90 190.71,1294.96)" text-anchor="middle">Cumulative mortality (%)</text>
	<line x1="521.73" y1="2489.19" x2="3859.02" y2="2489.19" style="stroke:#000000;stroke-width:5.76"/>
	<line x1="879.62" y1="2489.19" x2="879.62" y2="2529.16" style="stroke:#000000;stroke-width:5.76"/>
	<text x="879.62" y="2619.14" style="font-family:'Helvetica';font-size:99.99px;fill:#000000" text-anchor="middle">1 April</text>
	<line x1="1744.01" y1="2489.19" x2="1744.01" y2="2529.16" style="stroke:#000000;stroke-width:5.76"/>
	<text x="1744.01" y="2619.14" style="font-family:'Helvetica';font-size:99.99px;fill:#000000" text-anchor="middle">1 July</text>
	<line x1="2617.93" y1="2489.19" x2="2617.93" y2="2529.16" style="stroke:#000000;stroke-width:5.76"/>
	<text x="2617.93" y="2619.14" style="font-family:'Helvetica';font-size:99.99px;fill:#000000" text-anchor="middle">1 October</text>
	<line x1="3491.73" y1="2489.19" x2="3491.73" y2="2529.16" style="stroke:#000000;stroke-width:5.76"/>
	<text x="3491.73" y="2619.14" style="font-family:'Helvetica';font-size:99.99px;fill:#000000" text-anchor="middle">1 January</text>
	<text x="2190.38" y="2729.16" style="font-family:'Helvetica';font-size:99.99px;fill:#000000" text-anchor="middle">Date in 2020</text>
	<rect x="556.38" y="135.39" width="1056.21" height="326.34" style="fill:#FFFFFF"/>
	<rect x="559.26" y="138.27" width="1050.45" height="320.58" style="fill:none;stroke:#000000;stroke-width:5.76"/>
	<rect x="599.57" y="178.58" width="374.34" height="99.99" style="fill:#FF3333;fill-opacity:0.25"/>
	<rect x="603.89" y="182.90" width="365.70" height="91.35" style="fill:none;stroke:#FF0000;stroke-opacity:0.25;stroke-width:8.64"/>
	<rect x="599.57" y="318.54" width="374.34" height="99.99" style="fill:#3333FF;fill-opacity:0.25"/>
	<rect x="603.89" y="322.86" width="365.70" height="91.35" style="fill:none;stroke:#0000FF;stroke-opacity:0.25;stroke-width:8.64"/>
	<text x="1033.93" y="263.60" style="font-family:'Helvetica';font-size:99.99px;fill:#000000">Not on LDR</text>
	<text x="1033.93" y="403.57" style="font-family:'Helvetica';font-size:99.99px;fill:#000000">On LDR</text>
</svg>
