<?xml version="1.0" encoding="UTF-8" standalone="no"?>
<!-- This is a Stata 16.1 generated SVG file (http://www.stata.com) -->

<svg version="1.1" width="5.50in" height="4.00in" viewBox="0 0 3960 2880" xmlns="http://www.w3.org/2000/svg" xmlns:xlink="http://www.w3.org/1999/xlink">
	<desc>Stata Graph - Graph</desc>
	<rect x="0" y="0" width="3960" height="2880" style="fill:#EAF2F3;stroke:none"/>
	<rect x="0.00" y="0.00" width="3959.88" height="2880.00" style="fill:#EAF2F3"/>
	<rect x="2.88" y="2.88" width="3954.12" height="2874.24" style="fill:none;stroke:#EAF2F3;stroke-width:5.76"/>
	<rect x="521.73" y="100.86" width="3337.29" height="2388.33" style="fill:#FFFFFF"/>
	<rect x="524.61" y="103.74" width="3331.53" height="2382.57" style="fill:none;stroke:#FFFFFF;stroke-width:5.76"/>
	<line x1="521.73" y1="2425.82" x2="3859.02" y2="2425.82" style="stroke:#EAF2F3;stroke-width:8.64"/>
	<line x1="521.73" y1="2325.71" x2="3859.02" y2="2325.71" style="stroke:#EAF2F3;stroke-width:8.64"/>
	<line x1="521.73" y1="2225.59" x2="3859.02" y2="2225.59" style="stroke:#EAF2F3;stroke-width:8.64"/>
	<line x1="521.73" y1="2125.47" x2="3859.02" y2="2125.47" style="stroke:#EAF2F3;stroke-width:8.64"/>
	<line x1="521.73" y1="2025.23" x2="3859.02" y2="2025.23" style="stroke:#EAF2F3;stroke-width:8.64"/>
	<line x1="521.73" y1="1925.12" x2="3859.02" y2="1925.12" style="stroke:#EAF2F3;stroke-width:8.64"/>
	<defs>
		<path id="path_tidjBggn" d="M595.86 2425.70 L595.86 2425.70 L606.62 2425.20 L617.39 2424.46 L628.03 2423.72 L638.80 2422.73 L649.56 2421.62 L660.33 2420.38 L671.10 2419.14 L681.74 2417.66 L692.50 2416.29 L703.27 2414.69 L714.04 2413.20 L724.68 2411.47 L735.45 2409.86 L746.21 2408.13 L756.98 2406.39 L767.62 2404.54 L778.39 2402.68 L789.15 2400.83 L799.92 2398.97 L810.69 2397.11 L821.33 2395.13 L832.10 2393.15 L842.86 2391.17 L853.63 2389.19 L864.27 2387.21 L875.04 2385.23 L885.80 2383.25 L896.57 2381.15 L907.21 2379.17 L917.98 2377.06 L928.74 2374.96 L939.51 2372.98 L950.28 2370.88 L960.92 2368.77 L971.68 2366.79 L982.45 2364.69 L993.22 2362.59 L1003.86 2360.48 L1014.63 2358.38 L1025.39 2356.27 L1036.16 2354.29 L1046.80 2352.19 L1057.57 2350.09 L1068.33 2347.98 L1079.10 2345.88 L1089.87 2343.90 L1100.51 2341.79 L1111.28 2339.69 L1122.04 2337.59 L1132.81 2335.61 L1143.45 2333.50 L1154.22 2331.40 L1164.98 2329.42 L1175.75 2327.32 L1186.39 2325.34 L1197.16 2323.23 L1207.92 2321.25 L1218.69 2319.15 L1229.46 2317.17 L1240.10 2315.19 L1250.87 2313.21 L1261.63 2311.10 L1272.40 2309.12 L1283.04 2307.14 L1293.81 2305.16 L1304.57 2303.18 L1315.34 2301.20 L1325.98 2299.22 L1336.75 2297.24 L1347.51 2295.26 L1358.28 2293.41 L1369.05 2291.43 L1379.69 2289.45 L1390.45 2287.59 L1401.22 2285.61 L1411.99 2283.63 L1422.63 2281.77 L1433.40 2279.92 L1444.16 2277.94 L1454.93 2276.08 L1465.57 2274.22 L1476.34 2272.37 L1487.10 2270.39 L1497.87 2268.53 L1508.64 2266.68 L1519.28 2264.82 L1530.05 2263.09 L1540.81 2261.23 L1551.58 2259.37 L1562.22 2257.52 L1572.99 2255.79 L1583.75 2253.93 L1594.52 2252.07 L1605.16 2250.34 L1615.93 2248.48 L1626.69 2246.75 L1637.46 2245.02 L1648.23 2243.29 L1658.87 2241.43 L1669.63 2239.70 L1680.40 2237.96 L1691.17 2236.23 L1701.81 2234.50 L1712.58 2232.77 L1723.34 2231.03 L1734.11 2229.43 L1744.75 2227.69 L1755.52 2225.96 L1766.28 2224.23 L1777.05 2222.62 L1787.82 2220.89 L1798.46 2219.28 L1809.22 2217.55 L1819.99 2215.94 L1830.76 2214.33 L1841.40 2212.60 L1852.17 2210.99 L1862.93 2209.38 L1873.70 2207.77 L1884.34 2206.16 L1895.11 2204.55 L1905.87 2202.94 L1916.64 2201.33 L1927.41 2199.72 L1938.05 2198.12 L1948.82 2196.51 L1959.58 2195.02 L1970.35 2193.41 L1980.99 2191.80 L1991.76 2190.32 L2002.52 2188.71 L2013.29 2187.23 L2023.93 2185.62 L2034.70 2184.13 L2045.46 2182.52 L2056.23 2181.04 L2067.00 2179.43 L2077.64 2177.94 L2088.41 2176.46 L2099.17 2174.97 L2109.94 2173.37 L2120.58 2171.88 L2131.35 2170.40 L2142.11 2168.91 L2152.88 2167.43 L2163.52 2165.94 L2174.29 2164.46 L2185.05 2162.97 L2195.82 2161.49 L2206.59 2160.00 L2217.23 2158.64 L2227.99 2157.15 L2238.76 2155.67 L2249.53 2154.18 L2260.17 2152.82 L2270.94 2151.34 L2281.70 2149.85 L2292.47 2148.49 L2303.24 2147.01 L2313.88 2145.64 L2324.64 2144.16 L2335.41 2142.80 L2346.18 2141.31 L2356.82 2139.95 L2367.59 2138.47 L2378.35 2137.11 L2389.12 2135.74 L2399.76 2134.38 L2410.53 2132.90 L2421.29 2131.54 L2432.06 2130.18 L2442.82 2128.81 L2453.47 2127.33 L2464.23 2125.97 L2475.00 2124.61 L2485.77 2123.25 L2496.41 2121.88 L2507.18 2120.52 L2517.94 2119.16 L2528.71 2117.80 L2539.35 2116.44 L2550.12 2115.08 L2560.88 2113.72 L2571.65 2112.35 L2582.41 2111.12 L2593.06 2109.76 L2603.82 2108.39 L2614.59 2107.03 L2625.36 2105.67 L2636.00 2104.43 L2646.76 2103.07 L2657.53 2101.71 L2668.30 2100.47 L2678.94 2099.11 L2689.71 2097.75 L2700.47 2096.51 L2711.24 2095.15 L2722.01 2093.92 L2732.65 2092.55 L2743.41 2091.32 L2754.18 2089.96 L2764.95 2088.72 L2775.59 2087.36 L2786.36 2086.12 L2797.12 2084.76 L2807.89 2083.52 L2818.53 2082.28 L2829.30 2080.92 L2840.06 2079.68 L2850.83 2078.45 L2861.59 2077.08 L2872.24 2075.85 L2883.00 2074.61 L2893.77 2073.25 L2904.54 2072.01 L2915.18 2070.77 L2925.95 2069.54 L2936.71 2068.30 L2947.48 2067.06 L2958.12 2065.70 L2968.89 2064.46 L2979.65 2063.22 L2990.42 2061.99 L3001.18 2060.75 L3011.83 2059.51 L3022.59 2058.27 L3033.36 2057.04 L3044.13 2055.80 L3054.77 2054.56 L3065.53 2053.32 L3076.30 2052.09 L3087.07 2050.85 L3097.71 2049.61 L3108.48 2048.37 L3119.24 2047.14 L3130.01 2045.90 L3140.78 2044.79 L3151.42 2043.55 L3162.18 2042.31 L3172.95 2041.07 L3183.72 2039.83 L3194.36 2038.60 L3205.12 2037.48 L3215.89 2036.25 L3226.66 2035.01 L3237.30 2033.77 L3248.07 2032.66 L3258.83 2031.42 L3269.60 2030.18 L3280.36 2028.94 L3291.01 2027.83 L3301.77 2026.59 L3312.54 2025.36 L3323.31 2024.24 L3333.95 2023.00 L3344.72 2021.89 L3355.48 2020.65 L3366.25 2019.42 L3376.89 2018.30 L3387.66 2017.06 L3398.42 2015.95 L3409.19 2014.71 L3419.95 2013.60 L3430.60 2012.36 L3441.36 2011.25 L3452.13 2010.01 L3462.90 2008.90 L3473.54 2007.66 L3484.30 2006.55 L3495.07 2005.31 L3505.84 2004.19 L3516.48 2002.96 L3527.25 2001.84 L3538.01 2000.61 L3548.78 1999.49 L3559.55 1998.38 L3570.19 1997.14 L3580.95 1996.03 L3591.72 1994.79 L3602.49 1993.67 L3613.13 1992.56 L3623.89 1991.32 L3634.66 1990.21 L3645.43 1989.10 L3656.07 1987.98 L3666.84 1986.74 L3677.60 1985.63 L3688.37 1984.52 L3699.14 1983.28 L3709.78 1982.17 L3720.54 1981.05 L3731.31 1979.94 L3742.08 1978.70 L3752.72 1977.59 L3763.49 1976.47 L3774.25 1975.36 L3785.02 1974.25 L3795.66 1973.01 L3795.66 1966.08 L3785.02 1967.19 L3774.25 1968.31 L3763.49 1969.54 L3752.72 1970.66 L3742.08 1971.77 L3731.31 1973.01 L3720.54 1974.12 L3709.78 1975.24 L3699.14 1976.47 L3688.37 1977.59 L3677.60 1978.82 L3666.84 1979.94 L3656.07 1981.18 L3645.43 1982.29 L3634.66 1983.40 L3623.89 1984.64 L3613.13 1985.75 L3602.49 1986.99 L3591.72 1988.11 L3580.95 1989.34 L3570.19 1990.46 L3559.55 1991.69 L3548.78 1992.81 L3538.01 1994.05 L3527.25 1995.16 L3516.48 1996.40 L3505.84 1997.63 L3495.07 1998.75 L3484.30 1999.99 L3473.54 2001.10 L3462.90 2002.34 L3452.13 2003.58 L3441.36 2004.69 L3430.60 2005.93 L3419.95 2007.04 L3409.19 2008.28 L3398.42 2009.52 L3387.66 2010.63 L3376.89 2011.87 L3366.25 2013.10 L3355.48 2014.34 L3344.72 2015.46 L3333.95 2016.69 L3323.31 2017.93 L3312.54 2019.17 L3301.77 2020.28 L3291.01 2021.52 L3280.36 2022.76 L3269.60 2023.99 L3258.83 2025.23 L3248.07 2026.35 L3237.30 2027.58 L3226.66 2028.82 L3215.89 2030.06 L3205.12 2031.30 L3194.36 2032.53 L3183.72 2033.77 L3172.95 2035.01 L3162.18 2036.12 L3151.42 2037.36 L3140.78 2038.60 L3130.01 2039.83 L3119.24 2041.07 L3108.48 2042.31 L3097.71 2043.55 L3087.07 2044.79 L3076.30 2046.02 L3065.53 2047.38 L3054.77 2048.62 L3044.13 2049.86 L3033.36 2051.10 L3022.59 2052.33 L3011.83 2053.57 L3001.18 2054.81 L2990.42 2056.05 L2979.65 2057.41 L2968.89 2058.65 L2958.12 2059.88 L2947.48 2061.12 L2936.71 2062.48 L2925.95 2063.72 L2915.18 2064.96 L2904.54 2066.19 L2893.77 2067.56 L2883.00 2068.79 L2872.24 2070.03 L2861.59 2071.39 L2850.83 2072.63 L2840.06 2073.99 L2829.30 2075.23 L2818.53 2076.47 L2807.89 2077.83 L2797.12 2079.06 L2786.36 2080.43 L2775.59 2081.66 L2764.95 2083.03 L2754.18 2084.39 L2743.41 2085.62 L2732.65 2086.99 L2722.01 2088.22 L2711.24 2089.58 L2700.47 2090.95 L2689.71 2092.18 L2678.94 2093.54 L2668.30 2094.91 L2657.53 2096.27 L2646.76 2097.50 L2636.00 2098.87 L2625.36 2100.23 L2614.59 2101.59 L2603.82 2102.95 L2593.06 2104.31 L2582.41 2105.67 L2571.65 2107.03 L2560.88 2108.27 L2550.12 2109.63 L2539.35 2110.99 L2528.71 2112.48 L2517.94 2113.84 L2507.18 2115.20 L2496.41 2116.56 L2485.77 2117.92 L2475.00 2119.28 L2464.23 2120.65 L2453.47 2122.13 L2442.82 2123.49 L2432.06 2124.85 L2421.29 2126.22 L2410.53 2127.70 L2399.76 2129.06 L2389.12 2130.42 L2378.35 2131.91 L2367.59 2133.27 L2356.82 2134.75 L2346.18 2136.12 L2335.41 2137.60 L2324.64 2138.96 L2313.88 2140.45 L2303.24 2141.93 L2292.47 2143.29 L2281.70 2144.78 L2270.94 2146.26 L2260.17 2147.62 L2249.53 2149.11 L2238.76 2150.59 L2227.99 2152.08 L2217.23 2153.56 L2206.59 2155.05 L2195.82 2156.53 L2185.05 2158.02 L2174.29 2159.50 L2163.52 2160.99 L2152.88 2162.48 L2142.11 2163.96 L2131.35 2165.45 L2120.58 2167.05 L2109.94 2168.54 L2099.17 2170.02 L2088.41 2171.51 L2077.64 2173.12 L2067.00 2174.60 L2056.23 2176.21 L2045.46 2177.70 L2034.70 2179.31 L2023.93 2180.79 L2013.29 2182.40 L2002.52 2184.01 L1991.76 2185.49 L1980.99 2187.10 L1970.35 2188.71 L1959.58 2190.32 L1948.82 2191.93 L1938.05 2193.54 L1927.41 2195.15 L1916.64 2196.75 L1905.87 2198.36 L1895.11 2199.97 L1884.34 2201.58 L1873.70 2203.19 L1862.93 2204.80 L1852.17 2206.53 L1841.40 2208.14 L1830.76 2209.87 L1819.99 2211.48 L1809.22 2213.21 L1798.46 2214.82 L1787.82 2216.56 L1777.05 2218.16 L1766.28 2219.90 L1755.52 2221.63 L1744.75 2223.36 L1734.11 2225.09 L1723.34 2226.83 L1712.58 2228.56 L1701.81 2230.29 L1691.17 2232.02 L1680.40 2233.76 L1669.63 2235.61 L1658.87 2237.35 L1648.23 2239.08 L1637.46 2240.94 L1626.69 2242.67 L1615.93 2244.52 L1605.16 2246.26 L1594.52 2248.11 L1583.75 2249.97 L1572.99 2251.83 L1562.22 2253.68 L1551.58 2255.41 L1540.81 2257.27 L1530.05 2259.13 L1519.28 2261.11 L1508.64 2262.96 L1497.87 2264.82 L1487.10 2266.68 L1476.34 2268.66 L1465.57 2270.51 L1454.93 2272.37 L1444.16 2274.35 L1433.40 2276.33 L1422.63 2278.18 L1411.99 2280.17 L1401.22 2282.15 L1390.45 2284.00 L1379.69 2285.98 L1369.05 2287.96 L1358.28 2289.94 L1347.51 2291.92 L1336.75 2293.90 L1325.98 2296.01 L1315.34 2297.99 L1304.57 2299.97 L1293.81 2301.95 L1283.04 2304.05 L1272.40 2306.03 L1261.63 2308.01 L1250.87 2310.11 L1240.10 2312.09 L1229.46 2314.20 L1218.69 2316.30 L1207.92 2318.28 L1197.16 2320.39 L1186.39 2322.49 L1175.75 2324.59 L1164.98 2326.57 L1154.22 2328.68 L1143.45 2330.78 L1132.81 2332.88 L1122.04 2334.99 L1111.28 2337.09 L1100.51 2339.20 L1089.87 2341.30 L1079.10 2343.40 L1068.33 2345.51 L1057.57 2347.73 L1046.80 2349.84 L1036.16 2351.94 L1025.39 2354.05 L1014.63 2356.15 L1003.86 2358.25 L993.22 2360.36 L982.45 2362.59 L971.68 2364.69 L960.92 2366.79 L950.28 2368.90 L939.51 2371.00 L928.74 2373.10 L917.98 2375.21 L907.21 2377.31 L896.57 2379.42 L885.80 2381.40 L875.04 2383.50 L864.27 2385.60 L853.63 2387.58 L842.86 2389.69 L832.10 2391.67 L821.33 2393.65 L810.69 2395.63 L799.92 2397.61 L789.15 2399.59 L778.39 2401.44 L767.62 2403.30 L756.98 2405.16 L746.21 2407.01 L735.45 2408.87 L724.68 2410.60 L714.04 2412.21 L703.27 2413.94 L692.50 2415.55 L681.74 2417.04 L671.10 2418.52 L660.33 2419.88 L649.56 2421.12 L638.80 2422.36 L628.03 2423.35 L617.39 2424.34 L606.62 2425.08 L595.86 2425.58 L595.86 2425.70 Z" stroke-linejoin="round"/>
	</defs>
	<defs>
		<clipPath id="clipPath_geDPGnjT">
			<use xlink:href="#path_tidjBggn"/>
		</clipPath>
	</defs>
	<use xlink:href="#path_tidjBggn" style="stroke:none;fill:#FF3333;fill-opacity:0.25"/>
	<use xlink:href="#path_tidjBggn" style="fill:none;stroke:#FF0000;stroke-opacity:0.25;stroke-width:17.28" clip-path="url(#clipPath_geDPGnjT)"/>
	<defs>
		<path id="path_vCqSpYAQ" d="M595.86 2424.96 L595.86 2424.96 L606.62 2422.73 L617.39 2419.51 L628.03 2415.68 L638.80 2411.10 L649.56 2405.90 L660.33 2400.33 L671.10 2394.27 L681.74 2387.83 L692.50 2381.15 L703.27 2374.09 L714.04 2366.79 L724.68 2359.24 L735.45 2351.45 L746.21 2343.53 L756.98 2335.36 L767.62 2327.07 L778.39 2318.78 L789.15 2310.24 L799.92 2301.57 L810.69 2292.79 L821.33 2283.88 L832.10 2274.97 L842.86 2266.06 L853.63 2256.90 L864.27 2247.87 L875.04 2238.58 L885.80 2229.43 L896.57 2220.14 L907.21 2210.86 L917.98 2201.46 L928.74 2192.05 L939.51 2182.77 L950.28 2173.37 L960.92 2163.84 L971.68 2154.43 L982.45 2145.03 L993.22 2135.62 L1003.86 2126.09 L1014.63 2116.69 L1025.39 2107.16 L1036.16 2097.75 L1046.80 2088.35 L1057.57 2078.94 L1068.33 2069.41 L1079.10 2060.01 L1089.87 2050.60 L1100.51 2041.20 L1111.28 2031.91 L1122.04 2022.51 L1132.81 2013.23 L1143.45 2003.82 L1154.22 1994.54 L1164.98 1985.26 L1175.75 1976.10 L1186.39 1966.82 L1197.16 1957.66 L1207.92 1948.50 L1218.69 1939.35 L1229.46 1930.19 L1240.10 1921.03 L1250.87 1912.00 L1261.63 1902.96 L1272.40 1893.93 L1283.04 1884.90 L1293.81 1875.98 L1304.57 1867.07 L1315.34 1858.16 L1325.98 1849.25 L1336.75 1840.47 L1347.51 1831.68 L1358.28 1822.89 L1369.05 1814.11 L1379.69 1805.45 L1390.45 1796.78 L1401.22 1788.12 L1411.99 1779.58 L1422.63 1770.92 L1433.40 1762.38 L1444.16 1753.96 L1454.93 1745.42 L1465.57 1737.01 L1476.34 1728.59 L1487.10 1720.18 L1497.87 1711.89 L1508.64 1703.60 L1519.28 1695.30 L1530.05 1687.01 L1540.81 1678.84 L1551.58 1670.68 L1562.22 1662.51 L1572.99 1654.47 L1583.75 1646.42 L1594.52 1638.38 L1605.16 1630.33 L1615.93 1622.41 L1626.69 1614.49 L1637.46 1606.57 L1648.23 1598.65 L1658.87 1590.86 L1669.63 1583.06 L1680.40 1575.39 L1691.17 1567.59 L1701.81 1559.92 L1712.58 1552.24 L1723.34 1544.57 L1734.11 1537.02 L1744.75 1529.47 L1755.52 1521.93 L1766.28 1514.50 L1777.05 1506.95 L1787.82 1499.53 L1798.46 1492.10 L1809.22 1484.80 L1819.99 1477.37 L1830.76 1470.07 L1841.40 1462.89 L1852.17 1455.59 L1862.93 1448.42 L1873.70 1441.11 L1884.34 1434.06 L1895.11 1426.88 L1905.87 1419.70 L1916.64 1412.65 L1927.41 1405.60 L1938.05 1398.54 L1948.82 1391.61 L1959.58 1384.56 L1970.35 1377.63 L1980.99 1370.70 L1991.76 1363.77 L2002.52 1356.96 L2013.29 1350.03 L2023.93 1343.22 L2034.70 1336.42 L2045.46 1329.61 L2056.23 1322.93 L2067.00 1316.12 L2077.64 1309.44 L2088.41 1302.76 L2099.17 1296.07 L2109.94 1289.52 L2120.58 1282.83 L2131.35 1276.27 L2142.11 1269.71 L2152.88 1263.16 L2163.52 1256.60 L2174.29 1250.04 L2185.05 1243.60 L2195.82 1237.04 L2206.59 1230.61 L2217.23 1224.17 L2227.99 1217.74 L2238.76 1211.43 L2249.53 1204.99 L2260.17 1198.68 L2270.94 1192.37 L2281.70 1186.06 L2292.47 1179.75 L2303.24 1173.43 L2313.88 1167.12 L2324.64 1160.94 L2335.41 1154.75 L2346.18 1148.56 L2356.82 1142.37 L2367.59 1136.18 L2378.35 1130.00 L2389.12 1123.81 L2399.76 1117.74 L2410.53 1111.56 L2421.29 1105.49 L2432.06 1099.43 L2442.82 1093.37 L2453.47 1087.30 L2464.23 1081.36 L2475.00 1075.30 L2485.77 1069.36 L2496.41 1063.29 L2507.18 1057.35 L2517.94 1051.41 L2528.71 1045.47 L2539.35 1039.53 L2550.12 1033.72 L2560.88 1027.78 L2571.65 1021.84 L2582.41 1016.02 L2593.06 1010.20 L2603.82 1004.39 L2614.59 998.57 L2625.36 992.75 L2636.00 986.94 L2646.76 981.12 L2657.53 975.43 L2668.30 969.61 L2678.94 963.92 L2689.71 958.10 L2700.47 952.41 L2711.24 946.72 L2722.01 941.02 L2732.65 935.33 L2743.41 929.64 L2754.18 924.07 L2764.95 918.38 L2775.59 912.68 L2786.36 907.12 L2797.12 901.55 L2807.89 895.85 L2818.53 890.29 L2829.30 884.72 L2840.06 879.15 L2850.83 873.58 L2861.59 868.13 L2872.24 862.56 L2883.00 857.00 L2893.77 851.55 L2904.54 845.98 L2915.18 840.54 L2925.95 835.09 L2936.71 829.52 L2947.48 824.08 L2958.12 818.63 L2968.89 813.19 L2979.65 807.74 L2990.42 802.42 L3001.18 796.97 L3011.83 791.53 L3022.59 786.21 L3033.36 780.76 L3044.13 775.44 L3054.77 770.12 L3065.53 764.68 L3076.30 759.35 L3087.07 754.03 L3097.71 748.71 L3108.48 743.39 L3119.24 738.07 L3130.01 732.75 L3140.78 727.43 L3151.42 722.23 L3162.18 716.91 L3172.95 711.58 L3183.72 706.39 L3194.36 701.19 L3205.12 695.87 L3215.89 690.67 L3226.66 685.47 L3237.30 680.15 L3248.07 674.95 L3258.83 669.76 L3269.60 664.56 L3280.36 659.36 L3291.01 654.16 L3301.77 649.09 L3312.54 643.89 L3323.31 638.69 L3333.95 633.62 L3344.72 628.42 L3355.48 623.22 L3366.25 618.15 L3376.89 613.08 L3387.66 607.88 L3398.42 602.81 L3409.19 597.73 L3419.95 592.66 L3430.60 587.46 L3441.36 582.39 L3452.13 577.31 L3462.90 572.24 L3473.54 567.16 L3484.30 562.21 L3495.07 557.14 L3505.84 552.07 L3516.48 546.99 L3527.25 542.04 L3538.01 536.97 L3548.78 531.89 L3559.55 526.94 L3570.19 521.87 L3580.95 516.92 L3591.72 511.97 L3602.49 506.90 L3613.13 501.95 L3623.89 497.00 L3634.66 492.05 L3645.43 486.97 L3656.07 482.02 L3666.84 477.07 L3677.60 472.12 L3688.37 467.17 L3699.14 462.22 L3709.78 457.39 L3720.54 452.44 L3731.31 447.49 L3742.08 442.54 L3752.72 437.59 L3763.49 432.77 L3774.25 427.82 L3785.02 422.99 L3795.66 418.04 L3795.66 164.22 L3785.02 169.67 L3774.25 175.11 L3763.49 180.68 L3752.72 186.13 L3742.08 191.69 L3731.31 197.14 L3720.54 202.71 L3709.78 208.15 L3699.14 213.72 L3688.37 219.29 L3677.60 224.86 L3666.84 230.43 L3656.07 235.87 L3645.43 241.44 L3634.66 247.01 L3623.89 252.71 L3613.13 258.27 L3602.49 263.84 L3591.72 269.41 L3580.95 274.98 L3570.19 280.67 L3559.55 286.24 L3548.78 291.81 L3538.01 297.50 L3527.25 303.07 L3516.48 308.77 L3505.84 314.46 L3495.07 320.03 L3484.30 325.72 L3473.54 331.41 L3462.90 337.11 L3452.13 342.80 L3441.36 348.49 L3430.60 354.18 L3419.95 359.88 L3409.19 365.57 L3398.42 371.26 L3387.66 377.08 L3376.89 382.77 L3366.25 388.59 L3355.48 394.28 L3344.72 400.10 L3333.95 405.79 L3323.31 411.61 L3312.54 417.42 L3301.77 423.24 L3291.01 428.93 L3280.36 434.75 L3269.60 440.56 L3258.83 446.50 L3248.07 452.32 L3237.30 458.14 L3226.66 463.95 L3215.89 469.89 L3205.12 475.71 L3194.36 481.65 L3183.72 487.47 L3172.95 493.41 L3162.18 499.35 L3151.42 505.29 L3140.78 511.10 L3130.01 517.04 L3119.24 522.98 L3108.48 529.05 L3097.71 534.99 L3087.07 540.93 L3076.30 546.99 L3065.53 552.93 L3054.77 559.00 L3044.13 564.94 L3033.36 571.00 L3022.59 577.06 L3011.83 583.13 L3001.18 589.19 L2990.42 595.26 L2979.65 601.32 L2968.89 607.38 L2958.12 613.45 L2947.48 619.64 L2936.71 625.70 L2925.95 631.89 L2915.18 638.07 L2904.54 644.14 L2893.77 650.33 L2883.00 656.51 L2872.24 662.70 L2861.59 668.89 L2850.83 675.20 L2840.06 681.39 L2829.30 687.70 L2818.53 693.89 L2807.89 700.20 L2797.12 706.51 L2786.36 712.82 L2775.59 719.01 L2764.95 725.45 L2754.18 731.76 L2743.41 738.07 L2732.65 744.50 L2722.01 750.81 L2711.24 757.25 L2700.47 763.56 L2689.71 770.00 L2678.94 776.43 L2668.30 782.87 L2657.53 789.43 L2646.76 795.86 L2636.00 802.30 L2625.36 808.86 L2614.59 815.41 L2603.82 821.97 L2593.06 828.53 L2582.41 835.09 L2571.65 841.65 L2560.88 848.21 L2550.12 854.89 L2539.35 861.45 L2528.71 868.13 L2517.94 874.82 L2507.18 881.50 L2496.41 888.18 L2485.77 894.86 L2475.00 901.67 L2464.23 908.35 L2453.47 915.16 L2442.82 921.97 L2432.06 928.77 L2421.29 935.58 L2410.53 942.39 L2399.76 949.32 L2389.12 956.12 L2378.35 963.05 L2367.59 969.98 L2356.82 976.91 L2346.18 983.84 L2335.41 990.77 L2324.64 997.83 L2313.88 1004.88 L2303.24 1011.94 L2292.47 1018.99 L2281.70 1026.04 L2270.94 1033.10 L2260.17 1040.28 L2249.53 1047.33 L2238.76 1054.51 L2227.99 1061.68 L2217.23 1068.99 L2206.59 1076.16 L2195.82 1083.47 L2185.05 1090.64 L2174.29 1097.94 L2163.52 1105.37 L2152.88 1112.67 L2142.11 1120.10 L2131.35 1127.40 L2120.58 1134.82 L2109.94 1142.25 L2099.17 1149.80 L2088.41 1157.22 L2077.64 1164.77 L2067.00 1172.32 L2056.23 1179.87 L2045.46 1187.54 L2034.70 1195.09 L2023.93 1202.76 L2013.29 1210.44 L2002.52 1218.23 L1991.76 1225.91 L1980.99 1233.70 L1970.35 1241.50 L1959.58 1249.30 L1948.82 1257.22 L1938.05 1265.01 L1927.41 1272.93 L1916.64 1280.85 L1905.87 1288.90 L1895.11 1296.82 L1884.34 1304.86 L1873.70 1313.03 L1862.93 1321.07 L1852.17 1329.24 L1841.40 1337.41 L1830.76 1345.58 L1819.99 1353.74 L1809.22 1362.04 L1798.46 1370.33 L1787.82 1378.74 L1777.05 1387.03 L1766.28 1395.45 L1755.52 1403.86 L1744.75 1412.40 L1734.11 1420.94 L1723.34 1429.48 L1712.58 1438.02 L1701.81 1446.68 L1691.17 1455.35 L1680.40 1464.01 L1669.63 1472.79 L1658.87 1481.58 L1648.23 1490.37 L1637.46 1499.28 L1626.69 1508.19 L1615.93 1517.10 L1605.16 1526.01 L1594.52 1535.04 L1583.75 1544.08 L1572.99 1553.23 L1562.22 1562.39 L1551.58 1571.55 L1540.81 1580.71 L1530.05 1589.99 L1519.28 1599.27 L1508.64 1608.55 L1497.87 1617.96 L1487.10 1627.36 L1476.34 1636.77 L1465.57 1646.30 L1454.93 1655.83 L1444.16 1665.36 L1433.40 1674.88 L1422.63 1684.54 L1411.99 1694.19 L1401.22 1703.97 L1390.45 1713.74 L1379.69 1723.52 L1369.05 1733.30 L1358.28 1743.20 L1347.51 1753.10 L1336.75 1763.00 L1325.98 1773.02 L1315.34 1782.92 L1304.57 1793.07 L1293.81 1803.09 L1283.04 1813.24 L1272.40 1823.39 L1261.63 1833.54 L1250.87 1843.69 L1240.10 1853.96 L1229.46 1864.23 L1218.69 1874.50 L1207.92 1884.90 L1197.16 1895.29 L1186.39 1905.69 L1175.75 1916.08 L1164.98 1926.48 L1154.22 1937.00 L1143.45 1947.51 L1132.81 1958.03 L1122.04 1968.55 L1111.28 1979.07 L1100.51 1989.71 L1089.87 2000.36 L1079.10 2010.88 L1068.33 2021.52 L1057.57 2032.16 L1046.80 2042.81 L1036.16 2053.57 L1025.39 2064.21 L1014.63 2074.86 L1003.86 2085.62 L993.22 2096.27 L982.45 2106.91 L971.68 2117.55 L960.92 2128.32 L950.28 2138.96 L939.51 2149.60 L928.74 2160.12 L917.98 2170.77 L907.21 2181.29 L896.57 2191.80 L885.80 2202.32 L875.04 2212.72 L864.27 2223.11 L853.63 2233.51 L842.86 2243.66 L832.10 2253.93 L821.33 2263.95 L810.69 2273.98 L799.92 2283.88 L789.15 2293.65 L778.39 2303.31 L767.62 2312.84 L756.98 2322.24 L746.21 2331.40 L735.45 2340.43 L724.68 2349.22 L714.04 2357.88 L703.27 2366.17 L692.50 2374.09 L681.74 2381.77 L671.10 2389.19 L660.33 2396.12 L649.56 2402.56 L638.80 2408.37 L628.03 2413.70 L617.39 2418.27 L606.62 2421.99 L595.86 2424.71 L595.86 2424.96 Z" stroke-linejoin="round"/>
	</defs>
	<defs>
		<clipPath id="clipPath_yVZHhWTA">
			<use xlink:href="#path_vCqSpYAQ"/>
		</clipPath>
	</defs>
	<use xlink:href="#path_vCqSpYAQ" style="stroke:none;fill:#3333FF;fill-opacity:0.25"/>
	<use xlink:href="#path_vCqSpYAQ" style="fill:none;stroke:#0000FF;stroke-opacity:0.25;stroke-width:17.28" clip-path="url(#clipPath_yVZHhWTA)"/>
	<path d=" M585.09 2425.95 L595.86 2425.70 L606.50 2425.20 L617.26 2424.46 L628.03 2423.60 L638.80 2422.61 L649.44 2421.49 L660.21 2420.25 L670.97 2418.89 L681.74 2417.41 L692.50 2415.92 L703.15 2414.44 L713.91 2412.83 L724.68 2411.10 L735.45 2409.36 L746.09 2407.63 L756.86 2405.90 L767.62 2404.04 L778.39 2402.19 L789.03 2400.21 L799.80 2398.35 L810.56 2396.37 L821.33 2394.51 L832.10 2392.53 L842.74 2390.55 L853.50 2388.45 L864.27 2386.47 L875.04 2384.49 L885.68 2382.39 L896.45 2380.28 L907.21 2378.30 L917.98 2376.20 L928.62 2374.09 L939.39 2371.99 L950.15 2369.89 L960.92 2367.91 L971.68 2365.80 L982.33 2363.70 L993.09 2361.60 L1003.86 2359.49 L1014.63 2357.39 L1025.27 2355.28 L1036.04 2353.18 L1046.80 2351.08 L1057.57 2348.97 L1068.21 2346.87 L1078.98 2344.76 L1089.74 2342.66 L1100.51 2340.56 L1111.28 2338.45 L1121.92 2336.35 L1132.68 2334.37 L1143.45 2332.27 L1154.22 2330.16 L1164.86 2328.06 L1175.62 2326.08 L1186.39 2323.97 L1197.16 2321.87 L1207.80 2319.89 L1218.57 2317.79 L1229.33 2315.81 L1240.10 2313.70 L1250.87 2311.72 L1261.51 2309.62 L1272.27 2307.64 L1283.04 2305.66 L1293.81 2303.68 L1304.45 2301.70 L1315.21 2299.59 L1325.98 2297.61 L1336.75 2295.63 L1347.51 2293.65 L1358.16 2291.67 L1368.92 2289.82 L1379.69 2287.84 L1390.45 2285.86 L1401.10 2283.88 L1411.86 2282.02 L1422.63 2280.04 L1433.40 2278.18 L1444.04 2276.20 L1454.81 2274.35 L1465.57 2272.37 L1476.34 2270.51 L1487.10 2268.66 L1497.75 2266.80 L1508.51 2264.94 L1519.28 2263.09 L1530.05 2261.23 L1540.69 2259.37 L1551.45 2257.52 L1562.22 2255.66 L1572.99 2253.81 L1583.63 2251.95 L1594.39 2250.22 L1605.16 2248.36 L1615.93 2246.63 L1626.69 2244.77 L1637.34 2243.04 L1648.10 2241.18 L1658.87 2239.45 L1669.63 2237.72 L1680.28 2235.98 L1691.04 2234.25 L1701.81 2232.52 L1712.58 2230.79 L1723.22 2229.05 L1733.98 2227.32 L1744.75 2225.59 L1755.52 2223.86 L1766.28 2222.12 L1776.93 2220.52 L1787.69 2218.78 L1798.46 2217.17 L1809.22 2215.44 L1819.87 2213.83 L1830.63 2212.10 L1841.40 2210.49 L1852.17 2208.88 L1862.81 2207.15 L1873.58 2205.54 L1884.34 2203.93 L1895.11 2202.32 L1905.87 2200.72 L1916.52 2199.11 L1927.28 2197.50 L1938.05 2195.89 L1948.82 2194.28 L1959.46 2192.67 L1970.22 2191.06 L1980.99 2189.58 L1991.76 2187.97 L2002.40 2186.36 L2013.16 2184.87 L2023.93 2183.27 L2034.70 2181.78 L2045.46 2180.17 L2056.11 2178.69 L2066.87 2177.08 L2077.64 2175.59 L2088.41 2174.11 L2099.05 2172.50 L2109.81 2171.01 L2120.58 2169.53 L2131.35 2168.04 L2141.99 2166.56 L2152.76 2165.07 L2163.52 2163.59 L2174.29 2162.10 L2185.05 2160.62 L2195.70 2159.13 L2206.46 2157.65 L2217.23 2156.16 L2227.99 2154.68 L2238.64 2153.19 L2249.40 2151.71 L2260.17 2150.35 L2270.94 2148.86 L2281.58 2147.38 L2292.34 2146.02 L2303.11 2144.53 L2313.88 2143.05 L2324.64 2141.68 L2335.29 2140.20 L2346.05 2138.84 L2356.82 2137.35 L2367.59 2135.99 L2378.23 2134.63 L2388.99 2133.15 L2399.76 2131.78 L2410.53 2130.42 L2421.17 2128.94 L2431.93 2127.58 L2442.70 2126.22 L2453.47 2124.85 L2464.23 2123.37 L2474.88 2122.01 L2485.64 2120.65 L2496.41 2119.28 L2507.18 2117.92 L2517.82 2116.56 L2528.58 2115.20 L2539.35 2113.84 L2550.12 2112.48 L2560.76 2111.12 L2571.53 2109.76 L2582.29 2108.39 L2593.06 2107.03 L2603.82 2105.67 L2614.47 2104.43 L2625.23 2103.07 L2636.00 2101.71 L2646.76 2100.35 L2657.41 2099.11 L2668.17 2097.75 L2678.94 2096.39 L2689.71 2095.15 L2700.35 2093.79 L2711.11 2092.43 L2721.88 2091.19 L2732.65 2089.83 L2743.41 2088.47 L2754.06 2087.23 L2764.82 2085.87 L2775.59 2084.63 L2786.36 2083.27 L2797.00 2082.04 L2807.76 2080.80 L2818.53 2079.44 L2829.30 2078.20 L2839.94 2076.84 L2850.70 2075.60 L2861.47 2074.36 L2872.24 2073.00 L2883.00 2071.76 L2893.65 2070.53 L2904.41 2069.16 L2915.18 2067.93 L2925.95 2066.69 L2936.59 2065.45 L2947.35 2064.09 L2958.12 2062.85 L2968.89 2061.62 L2979.53 2060.38 L2990.30 2059.14 L3001.06 2057.90 L3011.83 2056.67 L3022.59 2055.43 L3033.24 2054.07 L3044.00 2052.83 L3054.77 2051.59 L3065.53 2050.35 L3076.18 2049.12 L3086.94 2047.88 L3097.71 2046.64 L3108.48 2045.40 L3119.24 2044.17 L3129.89 2042.93 L3140.65 2041.82 L3151.42 2040.58 L3162.18 2039.34 L3172.83 2038.10 L3183.59 2036.86 L3194.36 2035.63 L3205.12 2034.39 L3215.77 2033.15 L3226.53 2032.04 L3237.30 2030.80 L3248.07 2029.56 L3258.83 2028.33 L3269.47 2027.21 L3280.24 2025.97 L3291.01 2024.74 L3301.77 2023.50 L3312.42 2022.39 L3323.18 2021.15 L3333.95 2019.91 L3344.72 2018.80 L3355.36 2017.56 L3366.12 2016.32 L3376.89 2015.21 L3387.66 2013.97 L3398.42 2012.73 L3409.07 2011.62 L3419.83 2010.38 L3430.60 2009.27 L3441.36 2008.03 L3452.01 2006.79 L3462.77 2005.68 L3473.54 2004.44 L3484.30 2003.33 L3494.95 2002.09 L3505.71 2000.98 L3516.48 1999.74 L3527.25 1998.62 L3538.01 1997.39 L3548.66 1996.27 L3559.42 1995.04 L3570.19 1993.92 L3580.95 1992.68 L3591.60 1991.57 L3602.36 1990.46 L3613.13 1989.22 L3623.89 1988.11 L3634.54 1986.87 L3645.30 1985.75 L3656.07 1984.64 L3666.84 1983.40 L3677.60 1982.29 L3688.24 1981.18 L3699.01 1979.94 L3709.78 1978.82 L3720.54 1977.71 L3731.19 1976.47 L3741.95 1975.36 L3752.72 1974.25 L3763.49 1973.01 L3774.13 1971.89 L3784.89 1970.78 L3795.66 1969.67" stroke-linejoin="round" style="fill:none;stroke:#FF0000;stroke-width:8.64"/>
	<path d=" M585.09 2425.95 L595.86 2424.83 L606.50 2422.48 L617.26 2419.02 L628.03 2414.81 L638.80 2409.86 L649.44 2404.29 L660.21 2398.35 L670.97 2391.91 L681.74 2384.98 L692.50 2377.81 L703.15 2370.26 L713.91 2362.46 L724.68 2354.42 L735.45 2346.25 L746.09 2337.71 L756.86 2329.17 L767.62 2320.26 L778.39 2311.35 L789.03 2302.32 L799.80 2293.04 L810.56 2283.75 L821.33 2274.35 L832.10 2264.82 L842.74 2255.29 L853.50 2245.64 L864.27 2235.98 L875.04 2226.21 L885.68 2216.31 L896.45 2206.53 L907.21 2196.63 L917.98 2186.61 L928.62 2176.71 L939.39 2166.68 L950.15 2156.78 L960.92 2146.76 L971.68 2136.73 L982.33 2126.59 L993.09 2116.56 L1003.86 2106.54 L1014.63 2096.51 L1025.27 2086.49 L1036.04 2076.47 L1046.80 2066.32 L1057.57 2056.29 L1068.21 2046.27 L1078.98 2036.37 L1089.74 2026.35 L1100.51 2016.32 L1111.28 2006.42 L1121.92 1996.40 L1132.68 1986.50 L1143.45 1976.60 L1154.22 1966.70 L1164.86 1956.92 L1175.62 1947.02 L1186.39 1937.24 L1197.16 1927.47 L1207.80 1917.69 L1218.57 1908.04 L1229.33 1898.26 L1240.10 1888.61 L1250.87 1878.95 L1261.51 1869.43 L1272.27 1859.77 L1283.04 1850.24 L1293.81 1840.72 L1304.45 1831.31 L1315.21 1821.78 L1325.98 1812.38 L1336.75 1802.97 L1347.51 1793.69 L1358.16 1784.28 L1368.92 1775.00 L1379.69 1765.84 L1390.45 1756.56 L1401.10 1747.40 L1411.86 1738.25 L1422.63 1729.21 L1433.40 1720.06 L1444.04 1711.02 L1454.81 1702.11 L1465.57 1693.08 L1476.34 1684.17 L1487.10 1675.26 L1497.75 1666.47 L1508.51 1657.56 L1519.28 1648.77 L1530.05 1640.11 L1540.69 1631.32 L1551.45 1622.66 L1562.22 1614.00 L1572.99 1605.46 L1583.63 1596.92 L1594.39 1588.38 L1605.16 1579.84 L1615.93 1571.43 L1626.69 1563.01 L1637.34 1554.60 L1648.10 1546.30 L1658.87 1538.01 L1669.63 1529.72 L1680.28 1521.43 L1691.04 1513.26 L1701.81 1505.09 L1712.58 1496.93 L1723.22 1488.88 L1733.98 1480.84 L1744.75 1472.79 L1755.52 1464.75 L1766.28 1456.83 L1776.93 1448.91 L1787.69 1440.99 L1798.46 1433.19 L1809.22 1425.40 L1819.87 1417.60 L1830.63 1409.80 L1841.40 1402.13 L1852.17 1394.33 L1862.81 1386.79 L1873.58 1379.11 L1884.34 1371.44 L1895.11 1363.89 L1905.87 1356.34 L1916.52 1348.79 L1927.28 1341.37 L1938.05 1333.94 L1948.82 1326.52 L1959.46 1319.09 L1970.22 1311.67 L1980.99 1304.37 L1991.76 1297.06 L2002.40 1289.76 L2013.16 1282.46 L2023.93 1275.28 L2034.70 1267.98 L2045.46 1260.80 L2056.11 1253.63 L2066.87 1246.45 L2077.64 1239.39 L2088.41 1232.34 L2099.05 1225.29 L2109.81 1218.23 L2120.58 1211.18 L2131.35 1204.13 L2141.99 1197.19 L2152.76 1190.26 L2163.52 1183.33 L2174.29 1176.40 L2185.05 1169.47 L2195.70 1162.67 L2206.46 1155.86 L2217.23 1149.05 L2227.99 1142.25 L2238.64 1135.44 L2249.40 1128.64 L2260.17 1121.95 L2270.94 1115.15 L2281.58 1108.46 L2292.34 1101.78 L2303.11 1095.22 L2313.88 1088.54 L2324.64 1081.98 L2335.29 1075.30 L2346.05 1068.74 L2356.82 1062.18 L2367.59 1055.62 L2378.23 1049.06 L2388.99 1042.63 L2399.76 1036.07 L2410.53 1029.63 L2421.17 1023.20 L2431.93 1016.76 L2442.70 1010.33 L2453.47 1003.89 L2464.23 997.58 L2474.88 991.14 L2485.64 984.83 L2496.41 978.52 L2507.18 972.21 L2517.82 965.90 L2528.58 959.59 L2539.35 953.28 L2550.12 946.96 L2560.76 940.78 L2571.53 934.59 L2582.29 928.28 L2593.06 922.09 L2603.82 915.90 L2614.47 909.84 L2625.23 903.65 L2636.00 897.46 L2646.76 891.40 L2657.41 885.21 L2668.17 879.15 L2678.94 873.08 L2689.71 867.02 L2700.35 860.96 L2711.11 854.89 L2721.88 848.83 L2732.65 842.89 L2743.41 836.82 L2754.06 830.88 L2764.82 824.82 L2775.59 818.88 L2786.36 812.94 L2797.00 807.00 L2807.76 801.06 L2818.53 795.12 L2829.30 789.18 L2839.94 783.36 L2850.70 777.42 L2861.47 771.61 L2872.24 765.67 L2883.00 759.85 L2893.65 754.03 L2904.41 748.22 L2915.18 742.40 L2925.95 736.58 L2936.59 730.77 L2947.35 724.95 L2958.12 719.26 L2968.89 713.44 L2979.53 707.75 L2990.30 701.93 L3001.06 696.24 L3011.83 690.55 L3022.59 684.85 L3033.24 679.16 L3044.00 673.47 L3054.77 667.78 L3065.53 662.08 L3076.18 656.39 L3086.94 650.70 L3097.71 645.13 L3108.48 639.44 L3119.24 633.87 L3129.89 628.17 L3140.65 622.61 L3151.42 617.04 L3162.18 611.47 L3172.83 605.90 L3183.59 600.33 L3194.36 594.76 L3205.12 589.19 L3215.77 583.62 L3226.53 578.05 L3237.30 572.61 L3248.07 567.04 L3258.83 561.47 L3269.47 556.03 L3280.24 550.58 L3291.01 545.01 L3301.77 539.57 L3312.42 534.12 L3323.18 528.68 L3333.95 523.11 L3344.72 517.66 L3355.36 512.22 L3366.12 506.90 L3376.89 501.45 L3387.66 496.01 L3398.42 490.56 L3409.07 485.12 L3419.83 479.79 L3430.60 474.35 L3441.36 469.03 L3452.01 463.58 L3462.77 458.26 L3473.54 452.94 L3484.30 447.49 L3494.95 442.17 L3505.71 436.85 L3516.48 431.53 L3527.25 426.21 L3538.01 420.89 L3548.66 415.57 L3559.42 410.24 L3570.19 404.92 L3580.95 399.60 L3591.60 394.40 L3602.36 389.08 L3613.13 383.76 L3623.89 378.56 L3634.54 373.24 L3645.30 368.04 L3656.07 362.72 L3666.84 357.52 L3677.60 352.20 L3688.24 347.01 L3699.01 341.81 L3709.78 336.49 L3720.54 331.29 L3731.19 326.09 L3741.95 320.89 L3752.72 315.70 L3763.49 310.50 L3774.13 305.30 L3784.89 300.10 L3795.66 294.91" stroke-linejoin="round" style="fill:none;stroke:#0000FF;stroke-width:8.64"/>
	<line x1="521.73" y1="2489.19" x2="521.73" y2="100.86" style="stroke:#000000;stroke-width:5.76"/>
	<line x1="521.73" y1="2425.82" x2="481.76" y2="2425.82" style="stroke:#000000;stroke-width:5.76"/>
	<text x="461.83" y="2460.85" style="font-family:'Helvetica';font-size:99.99px;fill:#000000" text-anchor="end">0.00</text>
	<line x1="521.73" y1="2325.71" x2="481.76" y2="2325.71" style="stroke:#000000;stroke-width:5.76"/>
	<text x="461.83" y="2360.73" style="font-family:'Helvetica';font-size:99.99px;fill:#000000" text-anchor="end">0.10</text>
	<line x1="521.73" y1="2225.59" x2="481.76" y2="2225.59" style="stroke:#000000;stroke-width:5.76"/>
	<text x="461.83" y="2260.62" style="font-family:'Helvetica';font-size:99.99px;fill:#000000" text-anchor="end">0.20</text>
	<line x1="521.73" y1="2125.47" x2="481.76" y2="2125.47" style="stroke:#000000;stroke-width:5.76"/>
	<text x="461.83" y="2160.50" style="font-family:'Helvetica';font-size:99.99px;fill:#000000" text-anchor="end">0.30</text>
	<line x1="521.73" y1="2025.23" x2="481.76" y2="2025.23" style="stroke:#000000;stroke-width:5.76"/>
	<text x="461.83" y="2060.26" style="font-family:'Helvetica';font-size:99.99px;fill:#000000" text-anchor="end">0.40</text>
	<line x1="521.73" y1="1925.12" x2="481.76" y2="1925.12" style="stroke:#000000;stroke-width:5.76"/>
	<text x="461.83" y="1960.14" style="font-family:'Helvetica';font-size:99.99px;fill:#000000" text-anchor="end">0.50</text>
	<text x="190.71" y="1294.96" style="font-family:'Helvetica';font-size:99.99px;fill:#000000" transform="rotate(-90 190.71,1294.96)" text-anchor="middle">Cumulative mortality or admission (%)</text>
	<line x1="521.73" y1="2489.19" x2="3859.02" y2="2489.19" style="stroke:#000000;stroke-width:5.76"/>
	<line x1="585.09" y1="2489.19" x2="585.09" y2="2529.16" style="stroke:#000000;stroke-width:5.76"/>
	<text x="585.09" y="2619.14" style="font-family:'Helvetica';font-size:99.99px;fill:#000000" text-anchor="middle">1 March</text>
	<line x1="1572.99" y1="2489.19" x2="1572.99" y2="2529.16" style="stroke:#000000;stroke-width:5.76"/>
	<text x="1572.99" y="2619.14" style="font-family:'Helvetica';font-size:99.99px;fill:#000000" text-anchor="middle">1 June</text>
	<line x1="2560.88" y1="2489.19" x2="2560.88" y2="2529.16" style="stroke:#000000;stroke-width:5.76"/>
	<text x="2560.88" y="2619.14" style="font-family:'Helvetica';font-size:99.99px;fill:#000000" text-anchor="middle">1 September</text>
	<line x1="3538.01" y1="2489.19" x2="3538.01" y2="2529.16" style="stroke:#000000;stroke-width:5.76"/>
	<text x="3538.01" y="2619.14" style="font-family:'Helvetica';font-size:99.99px;fill:#000000" text-anchor="middle">1 December</text>
	<text x="2190.38" y="2729.16" style="font-family:'Helvetica';font-size:99.99px;fill:#000000" text-anchor="middle">Date in 2020</text>
	<rect x="556.38" y="135.39" width="1056.21" height="326.34" style="fill:#FFFFFF"/>
	<rect x="559.26" y="138.27" width="1050.45" height="320.58" style="fill:none;stroke:#000000;stroke-width:5.76"/>
	<rect x="599.57" y="178.58" width="374.34" height="99.99" style="fill:#FF3333;fill-opacity:0.25"/>
	<rect x="603.89" y="182.90" width="365.70" height="91.35" style="fill:none;stroke:#FF0000;stroke-opacity:0.25;stroke-width:8.64"/>
	<rect x="599.57" y="318.54" width="374.34" height="99.99" style="fill:#3333FF;fill-opacity:0.25"/>
	<rect x="603.89" y="322.86" width="365.70" height="91.35" style="fill:none;stroke:#0000FF;stroke-opacity:0.25;stroke-width:8.64"/>
	<text x="1033.93" y="263.60" style="font-family:'Helvetica';font-size:99.99px;fill:#000000">Not on LDR</text>
	<text x="1033.93" y="403.57" style="font-family:'Helvetica';font-size:99.99px;fill:#000000">On LDR</text>
</svg>
