<?xml version="1.0" encoding="UTF-8" standalone="no"?>
<!-- This is a Stata 16.1 generated SVG file (http://www.stata.com) -->

<svg version="1.1" width="5.50in" height="4.00in" viewBox="0 0 3960 2880" xmlns="http://www.w3.org/2000/svg" xmlns:xlink="http://www.w3.org/1999/xlink">
	<desc>Stata Graph - Graph</desc>
	<rect x="0" y="0" width="3960" height="2880" style="fill:#EAF2F3;stroke:none"/>
	<rect x="0.00" y="0.00" width="3959.88" height="2880.00" style="fill:#EAF2F3"/>
	<rect x="2.88" y="2.88" width="3954.12" height="2874.24" style="fill:none;stroke:#EAF2F3;stroke-width:5.76"/>
	<rect x="521.73" y="100.86" width="3337.29" height="2388.33" style="fill:#FFFFFF"/>
	<rect x="524.61" y="103.74" width="3331.53" height="2382.57" style="fill:none;stroke:#FFFFFF;stroke-width:5.76"/>
	<line x1="521.73" y1="2425.82" x2="3859.02" y2="2425.82" style="stroke:#EAF2F3;stroke-width:8.64"/>
	<line x1="521.73" y1="2361.84" x2="3859.02" y2="2361.84" style="stroke:#EAF2F3;stroke-width:8.64"/>
	<line x1="521.73" y1="2297.86" x2="3859.02" y2="2297.86" style="stroke:#EAF2F3;stroke-width:8.64"/>
	<line x1="521.73" y1="2233.76" x2="3859.02" y2="2233.76" style="stroke:#EAF2F3;stroke-width:8.64"/>
	<defs>
		<path id="path_dgJpQtdv" d="M594.62 2425.33 L594.62 2425.33 L604.15 2424.83 L613.68 2424.34 L623.08 2423.84 L632.61 2423.22 L642.14 2422.73 L651.67 2422.11 L661.07 2421.62 L670.60 2421.00 L680.13 2420.50 L689.66 2419.88 L699.06 2419.26 L708.59 2418.65 L718.12 2418.03 L727.65 2417.53 L737.05 2416.91 L746.58 2416.29 L756.11 2415.68 L765.64 2415.06 L775.17 2414.44 L784.58 2413.82 L794.10 2413.20 L803.63 2412.46 L813.16 2411.84 L822.57 2411.22 L832.10 2410.60 L841.62 2409.98 L851.15 2409.36 L860.56 2408.62 L870.09 2408.00 L879.62 2407.38 L889.14 2406.64 L898.55 2406.02 L908.08 2405.40 L917.61 2404.66 L927.13 2404.04 L936.54 2403.30 L946.07 2402.68 L955.60 2401.94 L965.13 2401.32 L974.53 2400.58 L984.06 2399.96 L993.59 2399.22 L1003.12 2398.60 L1012.52 2397.85 L1022.05 2397.24 L1031.58 2396.49 L1041.11 2395.75 L1050.51 2395.13 L1060.04 2394.39 L1069.57 2393.65 L1079.10 2393.03 L1088.63 2392.29 L1098.03 2391.54 L1107.56 2390.80 L1117.09 2390.18 L1126.62 2389.44 L1136.03 2388.70 L1145.55 2387.95 L1155.08 2387.21 L1164.61 2386.59 L1174.02 2385.85 L1183.55 2385.11 L1193.07 2384.37 L1202.60 2383.62 L1212.01 2382.88 L1221.54 2382.14 L1231.07 2381.40 L1240.59 2380.65 L1250.00 2379.91 L1259.53 2379.17 L1269.06 2378.43 L1278.59 2377.68 L1287.99 2376.94 L1297.52 2376.20 L1307.05 2375.46 L1316.58 2374.71 L1325.98 2373.97 L1335.51 2373.23 L1345.04 2372.49 L1354.57 2371.74 L1363.97 2370.88 L1373.50 2370.13 L1383.03 2369.39 L1392.56 2368.65 L1402.09 2367.91 L1411.49 2367.04 L1421.02 2366.30 L1430.55 2365.56 L1440.08 2364.81 L1449.48 2363.95 L1459.01 2363.20 L1468.54 2362.46 L1478.07 2361.72 L1487.47 2360.85 L1497.00 2360.11 L1506.53 2359.37 L1516.06 2358.50 L1525.47 2357.76 L1534.99 2356.89 L1544.52 2356.15 L1554.05 2355.41 L1563.46 2354.54 L1572.99 2353.80 L1582.52 2352.93 L1592.04 2352.19 L1601.45 2351.32 L1610.98 2350.58 L1620.51 2349.71 L1630.04 2348.97 L1639.44 2348.11 L1648.97 2347.36 L1658.50 2346.50 L1668.03 2345.75 L1677.56 2344.89 L1686.96 2344.15 L1696.49 2343.28 L1706.02 2342.54 L1715.55 2341.67 L1724.95 2340.80 L1734.48 2340.06 L1744.01 2339.20 L1753.54 2338.33 L1762.94 2337.59 L1772.47 2336.72 L1782.00 2335.85 L1791.53 2335.11 L1800.93 2334.25 L1810.46 2333.38 L1819.99 2332.64 L1829.52 2331.77 L1838.92 2330.90 L1848.45 2330.04 L1857.98 2329.30 L1867.51 2328.43 L1876.92 2327.56 L1886.44 2326.70 L1895.97 2325.83 L1905.50 2325.09 L1914.91 2324.22 L1924.44 2323.36 L1933.96 2322.49 L1943.49 2321.62 L1952.90 2320.76 L1962.43 2319.89 L1971.96 2319.15 L1981.48 2318.28 L1991.01 2317.41 L2000.42 2316.55 L2009.95 2315.68 L2019.48 2314.82 L2029.01 2313.95 L2038.41 2313.08 L2047.94 2312.22 L2057.47 2311.35 L2067.00 2310.48 L2076.40 2309.62 L2085.93 2308.75 L2095.46 2307.89 L2104.99 2307.02 L2114.39 2306.15 L2123.92 2305.29 L2133.45 2304.42 L2142.98 2303.55 L2152.38 2302.69 L2161.91 2301.82 L2171.44 2300.96 L2180.97 2299.97 L2190.38 2299.10 L2199.90 2298.23 L2209.43 2297.37 L2218.96 2296.50 L2228.37 2295.63 L2237.89 2294.77 L2247.42 2293.78 L2256.95 2292.91 L2266.36 2292.05 L2275.89 2291.18 L2285.41 2290.31 L2294.94 2289.32 L2304.47 2288.46 L2313.88 2287.59 L2323.41 2286.72 L2332.93 2285.86 L2342.46 2284.87 L2351.87 2284.00 L2361.40 2283.14 L2370.93 2282.15 L2380.45 2281.28 L2389.86 2280.41 L2399.39 2279.42 L2408.92 2278.56 L2418.45 2277.69 L2427.85 2276.70 L2437.38 2275.83 L2446.91 2274.97 L2456.44 2273.98 L2465.84 2273.11 L2475.37 2272.24 L2484.90 2271.25 L2494.43 2270.39 L2503.83 2269.40 L2513.36 2268.53 L2522.89 2267.67 L2532.42 2266.68 L2541.82 2265.81 L2551.35 2264.82 L2560.88 2263.95 L2570.41 2262.96 L2579.82 2262.10 L2589.34 2261.11 L2598.87 2260.24 L2608.40 2259.25 L2617.93 2258.38 L2627.34 2257.39 L2636.86 2256.53 L2646.39 2255.54 L2655.92 2254.67 L2665.33 2253.68 L2674.86 2252.82 L2684.39 2251.83 L2693.91 2250.96 L2703.32 2249.97 L2712.85 2248.98 L2722.38 2248.11 L2731.91 2247.12 L2741.31 2246.26 L2750.84 2245.27 L2760.37 2244.28 L2769.90 2243.41 L2779.30 2242.42 L2788.83 2241.43 L2798.36 2240.56 L2807.89 2239.57 L2817.29 2238.58 L2826.82 2237.72 L2836.35 2236.73 L2845.88 2235.74 L2855.28 2234.87 L2864.81 2233.88 L2874.34 2232.89 L2883.87 2231.90 L2893.40 2231.03 L2902.80 2230.04 L2912.33 2229.05 L2921.86 2228.19 L2931.39 2227.20 L2940.80 2226.21 L2950.32 2225.22 L2959.85 2224.23 L2969.38 2223.36 L2978.79 2222.37 L2988.32 2221.38 L2997.84 2220.39 L3007.37 2219.40 L3016.78 2218.54 L3026.31 2217.55 L3035.84 2216.56 L3045.36 2215.57 L3054.77 2214.58 L3064.30 2213.59 L3073.83 2212.60 L3083.36 2211.73 L3092.76 2210.74 L3102.29 2209.75 L3111.82 2208.76 L3121.35 2207.77 L3130.75 2206.78 L3140.28 2205.79 L3149.81 2204.80 L3159.34 2203.81 L3168.74 2202.82 L3178.27 2201.95 L3187.80 2200.96 L3197.33 2199.97 L3206.86 2198.98 L3216.26 2197.99 L3225.79 2197.00 L3235.32 2196.01 L3244.85 2195.02 L3254.25 2194.03 L3263.78 2193.04 L3273.31 2192.05 L3282.84 2191.06 L3292.24 2190.07 L3301.77 2189.08 L3311.30 2188.09 L3320.83 2187.10 L3330.24 2186.11 L3339.76 2185.12 L3349.29 2184.13 L3358.82 2183.14 L3368.23 2182.15 L3377.76 2181.04 L3387.28 2180.05 L3396.81 2179.06 L3406.22 2178.07 L3415.75 2177.08 L3425.28 2176.09 L3434.80 2175.10 L3444.21 2174.11 L3453.74 2173.12 L3463.27 2172.13 L3472.80 2171.14 L3482.20 2170.02 L3491.73 2169.03 L3501.26 2168.04 L3510.79 2167.05 L3520.32 2166.06 L3529.72 2165.07 L3539.25 2164.08 L3548.78 2163.09 L3558.31 2161.98 L3567.71 2160.99 L3577.24 2160.00 L3586.77 2159.01 L3596.30 2158.02 L3605.70 2157.03 L3615.23 2155.92 L3624.76 2154.93 L3634.29 2153.94 L3643.70 2152.95 L3653.22 2151.96 L3662.75 2150.84 L3672.28 2149.85 L3681.69 2148.86 L3691.22 2147.87 L3700.74 2146.88 L3710.27 2145.77 L3719.68 2144.78 L3729.21 2143.79 L3738.74 2142.80 L3748.26 2141.68 L3757.67 2140.69 L3767.20 2139.70 L3776.73 2138.71 L3786.26 2137.60 L3795.66 2136.61 L3795.66 2130.18 L3786.26 2131.29 L3776.73 2132.28 L3767.20 2133.39 L3757.67 2134.38 L3748.26 2135.50 L3738.74 2136.49 L3729.21 2137.48 L3719.68 2138.59 L3710.27 2139.58 L3700.74 2140.69 L3691.22 2141.68 L3681.69 2142.67 L3672.28 2143.79 L3662.75 2144.78 L3653.22 2145.89 L3643.70 2146.88 L3634.29 2147.87 L3624.76 2148.99 L3615.23 2149.98 L3605.70 2150.97 L3596.30 2152.08 L3586.77 2153.07 L3577.24 2154.06 L3567.71 2155.17 L3558.31 2156.16 L3548.78 2157.15 L3539.25 2158.14 L3529.72 2159.26 L3520.32 2160.25 L3510.79 2161.24 L3501.26 2162.35 L3491.73 2163.34 L3482.20 2164.33 L3472.80 2165.32 L3463.27 2166.44 L3453.74 2167.43 L3444.21 2168.42 L3434.80 2169.41 L3425.28 2170.52 L3415.75 2171.51 L3406.22 2172.50 L3396.81 2173.49 L3387.28 2174.48 L3377.76 2175.59 L3368.23 2176.58 L3358.82 2177.57 L3349.29 2178.56 L3339.76 2179.55 L3330.24 2180.67 L3320.83 2181.66 L3311.30 2182.65 L3301.77 2183.64 L3292.24 2184.63 L3282.84 2185.62 L3273.31 2186.61 L3263.78 2187.72 L3254.25 2188.71 L3244.85 2189.70 L3235.32 2190.69 L3225.79 2191.68 L3216.26 2192.67 L3206.86 2193.66 L3197.33 2194.65 L3187.80 2195.64 L3178.27 2196.63 L3168.74 2197.62 L3159.34 2198.61 L3149.81 2199.60 L3140.28 2200.72 L3130.75 2201.71 L3121.35 2202.70 L3111.82 2203.69 L3102.29 2204.68 L3092.76 2205.67 L3083.36 2206.66 L3073.83 2207.65 L3064.30 2208.64 L3054.77 2209.50 L3045.36 2210.49 L3035.84 2211.48 L3026.31 2212.47 L3016.78 2213.46 L3007.37 2214.45 L2997.84 2215.44 L2988.32 2216.43 L2978.79 2217.42 L2969.38 2218.41 L2959.85 2219.40 L2950.32 2220.39 L2940.80 2221.38 L2931.39 2222.25 L2921.86 2223.24 L2912.33 2224.23 L2902.80 2225.22 L2893.40 2226.21 L2883.87 2227.20 L2874.34 2228.06 L2864.81 2229.05 L2855.28 2230.04 L2845.88 2231.03 L2836.35 2232.02 L2826.82 2232.89 L2817.29 2233.88 L2807.89 2234.87 L2798.36 2235.86 L2788.83 2236.85 L2779.30 2237.72 L2769.90 2238.71 L2760.37 2239.70 L2750.84 2240.56 L2741.31 2241.55 L2731.91 2242.54 L2722.38 2243.53 L2712.85 2244.40 L2703.32 2245.39 L2693.91 2246.38 L2684.39 2247.25 L2674.86 2248.24 L2665.33 2249.23 L2655.92 2250.09 L2646.39 2251.08 L2636.86 2252.07 L2627.34 2252.94 L2617.93 2253.93 L2608.40 2254.80 L2598.87 2255.79 L2589.34 2256.78 L2579.82 2257.64 L2570.41 2258.63 L2560.88 2259.50 L2551.35 2260.49 L2541.82 2261.35 L2532.42 2262.34 L2522.89 2263.33 L2513.36 2264.20 L2503.83 2265.19 L2494.43 2266.06 L2484.90 2267.05 L2475.37 2267.91 L2465.84 2268.90 L2456.44 2269.77 L2446.91 2270.64 L2437.38 2271.63 L2427.85 2272.49 L2418.45 2273.48 L2408.92 2274.35 L2399.39 2275.34 L2389.86 2276.20 L2380.45 2277.19 L2370.93 2278.06 L2361.40 2278.93 L2351.87 2279.92 L2342.46 2280.78 L2332.93 2281.65 L2323.41 2282.64 L2313.88 2283.51 L2304.47 2284.50 L2294.94 2285.36 L2285.41 2286.23 L2275.89 2287.10 L2266.36 2288.09 L2256.95 2288.95 L2247.42 2289.82 L2237.89 2290.81 L2228.37 2291.67 L2218.96 2292.54 L2209.43 2293.41 L2199.90 2294.40 L2190.38 2295.26 L2180.97 2296.13 L2171.44 2297.00 L2161.91 2297.99 L2152.38 2298.85 L2142.98 2299.72 L2133.45 2300.58 L2123.92 2301.45 L2114.39 2302.44 L2104.99 2303.31 L2095.46 2304.17 L2085.93 2305.04 L2076.40 2305.91 L2067.00 2306.77 L2057.47 2307.64 L2047.94 2308.50 L2038.41 2309.49 L2029.01 2310.36 L2019.48 2311.23 L2009.95 2312.09 L2000.42 2312.96 L1991.01 2313.83 L1981.48 2314.69 L1971.96 2315.56 L1962.43 2316.42 L1952.90 2317.29 L1943.49 2318.16 L1933.96 2319.02 L1924.44 2319.89 L1914.91 2320.76 L1905.50 2321.62 L1895.97 2322.49 L1886.44 2323.36 L1876.92 2324.22 L1867.51 2325.09 L1857.98 2325.95 L1848.45 2326.70 L1838.92 2327.56 L1829.52 2328.43 L1819.99 2329.30 L1810.46 2330.16 L1800.93 2331.03 L1791.53 2331.89 L1782.00 2332.64 L1772.47 2333.50 L1762.94 2334.37 L1753.54 2335.24 L1744.01 2336.10 L1734.48 2336.84 L1724.95 2337.71 L1715.55 2338.58 L1706.02 2339.44 L1696.49 2340.19 L1686.96 2341.05 L1677.56 2341.92 L1668.03 2342.78 L1658.50 2343.53 L1648.97 2344.39 L1639.44 2345.26 L1630.04 2346.00 L1620.51 2346.87 L1610.98 2347.73 L1601.45 2348.48 L1592.04 2349.34 L1582.52 2350.09 L1572.99 2350.95 L1563.46 2351.82 L1554.05 2352.56 L1544.52 2353.43 L1534.99 2354.17 L1525.47 2355.04 L1516.06 2355.78 L1506.53 2356.64 L1497.00 2357.39 L1487.47 2358.25 L1478.07 2359.00 L1468.54 2359.86 L1459.01 2360.61 L1449.48 2361.47 L1440.08 2362.21 L1430.55 2363.08 L1421.02 2363.82 L1411.49 2364.57 L1402.09 2365.43 L1392.56 2366.17 L1383.03 2366.92 L1373.50 2367.78 L1363.97 2368.53 L1354.57 2369.27 L1345.04 2370.13 L1335.51 2370.88 L1325.98 2371.62 L1316.58 2372.49 L1307.05 2373.23 L1297.52 2373.97 L1287.99 2374.71 L1278.59 2375.58 L1269.06 2376.32 L1259.53 2377.06 L1250.00 2377.81 L1240.59 2378.55 L1231.07 2379.29 L1221.54 2380.16 L1212.01 2380.90 L1202.60 2381.64 L1193.07 2382.39 L1183.55 2383.13 L1174.02 2383.87 L1164.61 2384.61 L1155.08 2385.36 L1145.55 2386.10 L1136.03 2386.84 L1126.62 2387.58 L1117.09 2388.33 L1107.56 2389.07 L1098.03 2389.81 L1088.63 2390.55 L1079.10 2391.30 L1069.57 2391.91 L1060.04 2392.66 L1050.51 2393.40 L1041.11 2394.14 L1031.58 2394.88 L1022.05 2395.63 L1012.52 2396.25 L1003.12 2396.99 L993.59 2397.73 L984.06 2398.47 L974.53 2399.09 L965.13 2399.83 L955.60 2400.58 L946.07 2401.20 L936.54 2401.94 L927.13 2402.68 L917.61 2403.30 L908.08 2404.04 L898.55 2404.66 L889.14 2405.40 L879.62 2406.02 L870.09 2406.77 L860.56 2407.38 L851.15 2408.13 L841.62 2408.75 L832.10 2409.49 L822.57 2410.11 L813.16 2410.85 L803.63 2411.47 L794.10 2412.09 L784.58 2412.71 L775.17 2413.45 L765.64 2414.07 L756.11 2414.69 L746.58 2415.30 L737.05 2416.05 L727.65 2416.67 L718.12 2417.28 L708.59 2417.90 L699.06 2418.52 L689.66 2419.14 L680.13 2419.76 L670.60 2420.38 L661.07 2421.00 L651.67 2421.62 L642.14 2422.23 L632.61 2422.85 L623.08 2423.47 L613.68 2424.09 L604.15 2424.71 L594.62 2425.20 L594.62 2425.33 Z" stroke-linejoin="round"/>
	</defs>
	<defs>
		<clipPath id="clipPath_kZXqJaiS">
			<use xlink:href="#path_dgJpQtdv"/>
		</clipPath>
	</defs>
	<use xlink:href="#path_dgJpQtdv" style="stroke:none;fill:#FF3333;fill-opacity:0.25"/>
	<use xlink:href="#path_dgJpQtdv" style="fill:none;stroke:#FF0000;stroke-opacity:0.25;stroke-width:17.28" clip-path="url(#clipPath_kZXqJaiS)"/>
	<defs>
		<path id="path_KhsxxNIf" d="M594.62 2422.36 L594.62 2422.36 L604.15 2418.65 L613.68 2414.81 L623.08 2410.97 L632.61 2406.89 L642.14 2402.93 L651.67 2398.84 L661.07 2394.76 L670.60 2390.55 L680.13 2386.47 L689.66 2382.14 L699.06 2377.93 L708.59 2373.72 L718.12 2369.39 L727.65 2365.06 L737.05 2360.73 L746.58 2356.27 L756.11 2351.94 L765.64 2347.49 L775.17 2343.03 L784.58 2338.58 L794.10 2334.12 L803.63 2329.67 L813.16 2325.09 L822.57 2320.51 L832.10 2315.93 L841.62 2311.35 L851.15 2306.77 L860.56 2302.19 L870.09 2297.61 L879.62 2292.91 L889.14 2288.21 L898.55 2283.51 L908.08 2278.80 L917.61 2274.10 L927.13 2269.40 L936.54 2264.70 L946.07 2259.87 L955.60 2255.17 L965.13 2250.34 L974.53 2245.51 L984.06 2240.69 L993.59 2235.86 L1003.12 2231.03 L1012.52 2226.21 L1022.05 2221.26 L1031.58 2216.43 L1041.11 2211.48 L1050.51 2206.66 L1060.04 2201.71 L1069.57 2196.75 L1079.10 2191.80 L1088.63 2186.85 L1098.03 2181.90 L1107.56 2176.95 L1117.09 2171.88 L1126.62 2166.93 L1136.03 2161.86 L1145.55 2156.78 L1155.08 2151.83 L1164.61 2146.76 L1174.02 2141.68 L1183.55 2136.61 L1193.07 2131.54 L1202.60 2126.46 L1212.01 2121.27 L1221.54 2116.19 L1231.07 2111.12 L1240.59 2105.92 L1250.00 2100.72 L1259.53 2095.65 L1269.06 2090.45 L1278.59 2085.25 L1287.99 2080.06 L1297.52 2074.86 L1307.05 2069.66 L1316.58 2064.46 L1325.98 2059.26 L1335.51 2053.94 L1345.04 2048.75 L1354.57 2043.42 L1363.97 2038.23 L1373.50 2032.90 L1383.03 2027.71 L1392.56 2022.39 L1402.09 2017.06 L1411.49 2011.74 L1421.02 2006.42 L1430.55 2001.10 L1440.08 1995.78 L1449.48 1990.46 L1459.01 1985.01 L1468.54 1979.69 L1478.07 1974.37 L1487.47 1968.92 L1497.00 1963.60 L1506.53 1958.16 L1516.06 1952.71 L1525.47 1947.39 L1534.99 1941.95 L1544.52 1936.50 L1554.05 1931.06 L1563.46 1925.61 L1572.99 1920.17 L1582.52 1914.72 L1592.04 1909.27 L1601.45 1903.83 L1610.98 1898.26 L1620.51 1892.82 L1630.04 1887.37 L1639.44 1881.80 L1648.97 1876.36 L1658.50 1870.79 L1668.03 1865.22 L1677.56 1859.77 L1686.96 1854.20 L1696.49 1848.64 L1706.02 1843.07 L1715.55 1837.50 L1724.95 1831.93 L1734.48 1826.36 L1744.01 1820.79 L1753.54 1815.22 L1762.94 1809.65 L1772.47 1804.08 L1782.00 1798.39 L1791.53 1792.82 L1800.93 1787.25 L1810.46 1781.56 L1819.99 1775.99 L1829.52 1770.30 L1838.92 1764.61 L1848.45 1759.04 L1857.98 1753.34 L1867.51 1747.65 L1876.92 1741.96 L1886.44 1736.39 L1895.97 1730.70 L1905.50 1725.01 L1914.91 1719.31 L1924.44 1713.62 L1933.96 1707.80 L1943.49 1702.11 L1952.90 1696.42 L1962.43 1690.73 L1971.96 1684.91 L1981.48 1679.22 L1991.01 1673.52 L2000.42 1667.71 L2009.95 1662.01 L2019.48 1656.20 L2029.01 1650.51 L2038.41 1644.69 L2047.94 1638.87 L2057.47 1633.18 L2067.00 1627.36 L2076.40 1621.55 L2085.93 1615.73 L2095.46 1609.91 L2104.99 1604.10 L2114.39 1598.28 L2123.92 1592.46 L2133.45 1586.65 L2142.98 1580.83 L2152.38 1575.02 L2161.91 1569.20 L2171.44 1563.38 L2180.97 1557.44 L2190.38 1551.63 L2199.90 1545.81 L2209.43 1539.87 L2218.96 1534.05 L2228.37 1528.11 L2237.89 1522.30 L2247.42 1516.36 L2256.95 1510.54 L2266.36 1504.60 L2275.89 1498.78 L2285.41 1492.84 L2294.94 1486.90 L2304.47 1480.96 L2313.88 1475.02 L2323.41 1469.21 L2332.93 1463.27 L2342.46 1457.33 L2351.87 1451.39 L2361.40 1445.45 L2370.93 1439.50 L2380.45 1433.56 L2389.86 1427.62 L2399.39 1421.56 L2408.92 1415.62 L2418.45 1409.68 L2427.85 1403.74 L2437.38 1397.68 L2446.91 1391.74 L2456.44 1385.80 L2465.84 1379.73 L2475.37 1373.79 L2484.90 1367.73 L2494.43 1361.79 L2503.83 1355.72 L2513.36 1349.78 L2522.89 1343.72 L2532.42 1337.78 L2541.82 1331.72 L2551.35 1325.65 L2560.88 1319.71 L2570.41 1313.65 L2579.82 1307.58 L2589.34 1301.52 L2598.87 1295.46 L2608.40 1289.39 L2617.93 1283.33 L2627.34 1277.26 L2636.86 1271.32 L2646.39 1265.14 L2655.92 1259.07 L2665.33 1253.01 L2674.86 1246.94 L2684.39 1240.88 L2693.91 1234.82 L2703.32 1228.75 L2712.85 1222.69 L2722.38 1216.50 L2731.91 1210.44 L2741.31 1204.37 L2750.84 1198.18 L2760.37 1192.12 L2769.90 1186.06 L2779.30 1179.87 L2788.83 1173.81 L2798.36 1167.62 L2807.89 1161.55 L2817.29 1155.37 L2826.82 1149.30 L2836.35 1143.11 L2845.88 1136.93 L2855.28 1130.86 L2864.81 1124.68 L2874.34 1118.49 L2883.87 1112.30 L2893.40 1106.24 L2902.80 1100.05 L2912.33 1093.86 L2921.86 1087.67 L2931.39 1081.49 L2940.80 1075.30 L2950.32 1069.23 L2959.85 1063.05 L2969.38 1056.86 L2978.79 1050.67 L2988.32 1044.48 L2997.84 1038.29 L3007.37 1031.98 L3016.78 1025.80 L3026.31 1019.61 L3035.84 1013.42 L3045.36 1007.23 L3054.77 1001.05 L3064.30 994.86 L3073.83 988.55 L3083.36 982.36 L3092.76 976.17 L3102.29 969.86 L3111.82 963.67 L3121.35 957.48 L3130.75 951.17 L3140.28 944.98 L3149.81 938.80 L3159.34 932.49 L3168.74 926.30 L3178.27 919.99 L3187.80 913.80 L3197.33 907.49 L3206.86 901.30 L3216.26 894.99 L3225.79 888.80 L3235.32 882.49 L3244.85 876.18 L3254.25 869.99 L3263.78 863.68 L3273.31 857.49 L3282.84 851.18 L3292.24 844.87 L3301.77 838.68 L3311.30 832.37 L3320.83 826.06 L3330.24 819.75 L3339.76 813.56 L3349.29 807.25 L3358.82 800.94 L3368.23 794.62 L3377.76 788.31 L3387.28 782.12 L3396.81 775.81 L3406.22 769.50 L3415.75 763.19 L3425.28 756.88 L3434.80 750.57 L3444.21 744.26 L3453.74 737.94 L3463.27 731.63 L3472.80 725.32 L3482.20 719.13 L3491.73 712.82 L3501.26 706.51 L3510.79 700.20 L3520.32 693.89 L3529.72 687.58 L3539.25 681.27 L3548.78 674.83 L3558.31 668.52 L3567.71 662.21 L3577.24 655.90 L3586.77 649.58 L3596.30 643.27 L3605.70 636.96 L3615.23 630.65 L3624.76 624.34 L3634.29 618.03 L3643.70 611.72 L3653.22 605.28 L3662.75 598.97 L3672.28 592.66 L3681.69 586.35 L3691.22 580.03 L3700.74 573.72 L3710.27 567.41 L3719.68 560.98 L3729.21 554.66 L3738.74 548.35 L3748.26 542.04 L3757.67 535.73 L3767.20 529.30 L3776.73 522.98 L3786.26 516.67 L3795.66 510.36 L3795.66 164.22 L3786.26 171.52 L3776.73 178.95 L3767.20 186.37 L3757.67 193.67 L3748.26 201.10 L3738.74 208.53 L3729.21 215.83 L3719.68 223.25 L3710.27 230.68 L3700.74 237.98 L3691.22 245.40 L3681.69 252.83 L3672.28 260.13 L3662.75 267.56 L3653.22 274.98 L3643.70 282.28 L3634.29 289.71 L3624.76 297.01 L3615.23 304.43 L3605.70 311.86 L3596.30 319.16 L3586.77 326.59 L3577.24 333.89 L3567.71 341.31 L3558.31 348.74 L3548.78 356.04 L3539.25 363.47 L3529.72 370.77 L3520.32 378.19 L3510.79 385.49 L3501.26 392.92 L3491.73 400.22 L3482.20 407.65 L3472.80 414.95 L3463.27 422.37 L3453.74 429.67 L3444.21 437.10 L3434.80 444.40 L3425.28 451.83 L3415.75 459.13 L3406.22 466.55 L3396.81 473.85 L3387.28 481.16 L3377.76 488.58 L3368.23 495.88 L3358.82 503.31 L3349.29 510.61 L3339.76 517.91 L3330.24 525.34 L3320.83 532.64 L3311.30 539.94 L3301.77 547.24 L3292.24 554.66 L3282.84 561.97 L3273.31 569.27 L3263.78 576.57 L3254.25 583.99 L3244.85 591.30 L3235.32 598.60 L3225.79 605.90 L3216.26 613.20 L3206.86 620.50 L3197.33 627.93 L3187.80 635.23 L3178.27 642.53 L3168.74 649.83 L3159.34 657.13 L3149.81 664.43 L3140.28 671.74 L3130.75 679.04 L3121.35 686.34 L3111.82 693.64 L3102.29 700.94 L3092.76 708.24 L3083.36 715.42 L3073.83 722.72 L3064.30 730.02 L3054.77 737.33 L3045.36 744.63 L3035.84 751.80 L3026.31 759.11 L3016.78 766.41 L3007.37 773.71 L2997.84 780.89 L2988.32 788.19 L2978.79 795.49 L2969.38 802.67 L2959.85 809.97 L2950.32 817.15 L2940.80 824.45 L2931.39 831.63 L2921.86 838.93 L2912.33 846.11 L2902.80 853.41 L2893.40 860.58 L2883.87 867.76 L2874.34 875.06 L2864.81 882.24 L2855.28 889.42 L2845.88 896.60 L2836.35 903.90 L2826.82 911.08 L2817.29 918.25 L2807.89 925.43 L2798.36 932.61 L2788.83 939.79 L2779.30 946.96 L2769.90 954.14 L2760.37 961.32 L2750.84 968.50 L2741.31 975.68 L2731.91 982.85 L2722.38 990.03 L2712.85 997.21 L2703.32 1004.39 L2693.91 1011.56 L2684.39 1018.62 L2674.86 1025.80 L2665.33 1032.97 L2655.92 1040.03 L2646.39 1047.21 L2636.86 1054.38 L2627.34 1061.44 L2617.93 1068.61 L2608.40 1075.67 L2598.87 1082.85 L2589.34 1089.90 L2579.82 1097.08 L2570.41 1104.13 L2560.88 1111.19 L2551.35 1118.36 L2541.82 1125.42 L2532.42 1132.47 L2522.89 1139.53 L2513.36 1146.70 L2503.83 1153.76 L2494.43 1160.81 L2484.90 1167.87 L2475.37 1174.92 L2465.84 1181.97 L2456.44 1189.03 L2446.91 1196.08 L2437.38 1203.14 L2427.85 1210.19 L2418.45 1217.12 L2408.92 1224.17 L2399.39 1231.23 L2389.86 1238.28 L2380.45 1245.21 L2370.93 1252.27 L2361.40 1259.32 L2351.87 1266.25 L2342.46 1273.30 L2332.93 1280.23 L2323.41 1287.29 L2313.88 1294.22 L2304.47 1301.15 L2294.94 1308.20 L2285.41 1315.13 L2275.89 1322.06 L2266.36 1329.12 L2256.95 1336.05 L2247.42 1342.98 L2237.89 1349.91 L2228.37 1356.84 L2218.96 1363.77 L2209.43 1370.70 L2199.90 1377.63 L2190.38 1384.56 L2180.97 1391.49 L2171.44 1398.29 L2161.91 1405.23 L2152.38 1412.16 L2142.98 1419.09 L2133.45 1425.89 L2123.92 1432.82 L2114.39 1439.63 L2104.99 1446.56 L2095.46 1453.37 L2085.93 1460.30 L2076.40 1467.10 L2067.00 1473.91 L2057.47 1480.72 L2047.94 1487.65 L2038.41 1494.45 L2029.01 1501.26 L2019.48 1508.06 L2009.95 1514.87 L2000.42 1521.68 L1991.01 1528.48 L1981.48 1535.29 L1971.96 1542.10 L1962.43 1548.78 L1952.90 1555.59 L1943.49 1562.39 L1933.96 1569.08 L1924.44 1575.88 L1914.91 1582.69 L1905.50 1589.37 L1895.97 1596.05 L1886.44 1602.86 L1876.92 1609.54 L1867.51 1616.23 L1857.98 1623.03 L1848.45 1629.71 L1838.92 1636.40 L1829.52 1643.08 L1819.99 1649.76 L1810.46 1656.45 L1800.93 1663.13 L1791.53 1669.69 L1782.00 1676.37 L1772.47 1683.05 L1762.94 1689.61 L1753.54 1696.29 L1744.01 1702.98 L1734.48 1709.54 L1724.95 1716.09 L1715.55 1722.78 L1706.02 1729.34 L1696.49 1735.90 L1686.96 1742.45 L1677.56 1749.14 L1668.03 1755.70 L1658.50 1762.26 L1648.97 1768.69 L1639.44 1775.25 L1630.04 1781.81 L1620.51 1788.37 L1610.98 1794.80 L1601.45 1801.36 L1592.04 1807.92 L1582.52 1814.36 L1572.99 1820.79 L1563.46 1827.35 L1554.05 1833.78 L1544.52 1840.22 L1534.99 1846.66 L1525.47 1853.09 L1516.06 1859.53 L1506.53 1865.96 L1497.00 1872.40 L1487.47 1878.83 L1478.07 1885.14 L1468.54 1891.58 L1459.01 1897.89 L1449.48 1904.32 L1440.08 1910.64 L1430.55 1917.07 L1421.02 1923.38 L1411.49 1929.69 L1402.09 1936.01 L1392.56 1942.32 L1383.03 1948.63 L1373.50 1954.94 L1363.97 1961.13 L1354.57 1967.44 L1345.04 1973.75 L1335.51 1979.94 L1325.98 1986.25 L1316.58 1992.44 L1307.05 1998.62 L1297.52 2004.81 L1287.99 2011.00 L1278.59 2017.19 L1269.06 2023.38 L1259.53 2029.56 L1250.00 2035.75 L1240.59 2041.82 L1231.07 2048.00 L1221.54 2054.07 L1212.01 2060.13 L1202.60 2066.32 L1193.07 2072.38 L1183.55 2078.45 L1174.02 2084.51 L1164.61 2090.57 L1155.08 2096.51 L1145.55 2102.58 L1136.03 2108.52 L1126.62 2114.58 L1117.09 2120.52 L1107.56 2126.46 L1098.03 2132.40 L1088.63 2138.34 L1079.10 2144.28 L1069.57 2150.22 L1060.04 2156.04 L1050.51 2161.98 L1041.11 2167.80 L1031.58 2173.74 L1022.05 2179.55 L1012.52 2185.37 L1003.12 2191.19 L993.59 2196.88 L984.06 2202.70 L974.53 2208.39 L965.13 2214.20 L955.60 2219.90 L946.07 2225.59 L936.54 2231.28 L927.13 2236.97 L917.61 2242.67 L908.08 2248.24 L898.55 2253.93 L889.14 2259.50 L879.62 2265.07 L870.09 2270.64 L860.56 2276.20 L851.15 2281.65 L841.62 2287.22 L832.10 2292.66 L822.57 2298.11 L813.16 2303.55 L803.63 2309.00 L794.10 2314.32 L784.58 2319.64 L775.17 2325.09 L765.64 2330.41 L756.11 2335.61 L746.58 2340.93 L737.05 2346.13 L727.65 2351.32 L718.12 2356.52 L708.59 2361.72 L699.06 2366.79 L689.66 2371.99 L680.13 2377.06 L670.60 2382.01 L661.07 2387.09 L651.67 2392.04 L642.14 2396.99 L632.61 2401.82 L623.08 2406.77 L613.68 2411.59 L604.15 2416.29 L594.62 2421.12 L594.62 2422.36 Z" stroke-linejoin="round"/>
	</defs>
	<defs>
		<clipPath id="clipPath_BXvHHmXm">
			<use xlink:href="#path_KhsxxNIf"/>
		</clipPath>
	</defs>
	<use xlink:href="#path_KhsxxNIf" style="stroke:none;fill:#3333FF;fill-opacity:0.25"/>
	<use xlink:href="#path_KhsxxNIf" style="fill:none;stroke:#0000FF;stroke-opacity:0.25;stroke-width:17.28" clip-path="url(#clipPath_BXvHHmXm)"/>
	<path d=" M585.09 2425.95 L594.62 2425.33 L604.02 2424.83 L613.55 2424.34 L623.08 2423.72 L632.61 2423.10 L642.01 2422.61 L651.54 2421.99 L661.07 2421.37 L670.60 2420.75 L680.01 2420.13 L689.53 2419.64 L699.06 2419.02 L708.59 2418.40 L718.00 2417.78 L727.53 2417.16 L737.05 2416.54 L746.58 2415.92 L755.99 2415.30 L765.52 2414.56 L775.05 2413.94 L784.58 2413.32 L794.10 2412.71 L803.51 2412.09 L813.04 2411.47 L822.57 2410.73 L832.10 2410.11 L841.50 2409.49 L851.03 2408.75 L860.56 2408.13 L870.09 2407.51 L879.49 2406.77 L889.02 2406.15 L898.55 2405.40 L908.08 2404.79 L917.48 2404.04 L927.01 2403.42 L936.54 2402.68 L946.07 2402.06 L955.47 2401.32 L965.00 2400.70 L974.53 2399.96 L984.06 2399.22 L993.47 2398.60 L1002.99 2397.85 L1012.52 2397.11 L1022.05 2396.49 L1031.46 2395.75 L1040.98 2395.01 L1050.51 2394.39 L1060.04 2393.65 L1069.57 2392.90 L1078.98 2392.16 L1088.51 2391.42 L1098.03 2390.80 L1107.56 2390.06 L1116.97 2389.32 L1126.50 2388.57 L1136.03 2387.83 L1145.55 2387.09 L1154.96 2386.35 L1164.49 2385.60 L1174.02 2384.86 L1183.55 2384.12 L1192.95 2383.38 L1202.48 2382.63 L1212.01 2381.89 L1221.54 2381.15 L1230.94 2380.41 L1240.47 2379.66 L1250.00 2378.92 L1259.53 2378.18 L1268.93 2377.44 L1278.46 2376.69 L1287.99 2375.95 L1297.52 2375.21 L1306.92 2374.47 L1316.45 2373.60 L1325.98 2372.86 L1335.51 2372.11 L1344.91 2371.37 L1354.44 2370.63 L1363.97 2369.76 L1373.50 2369.02 L1383.03 2368.28 L1392.43 2367.54 L1401.96 2366.67 L1411.49 2365.93 L1421.02 2365.18 L1430.43 2364.32 L1439.95 2363.58 L1449.48 2362.83 L1459.01 2361.97 L1468.42 2361.22 L1477.95 2360.48 L1487.47 2359.61 L1497.00 2358.87 L1506.41 2358.01 L1515.94 2357.26 L1525.47 2356.40 L1534.99 2355.65 L1544.40 2354.91 L1553.93 2354.05 L1563.46 2353.30 L1572.99 2352.44 L1582.39 2351.69 L1591.92 2350.83 L1601.45 2349.96 L1610.98 2349.22 L1620.38 2348.35 L1629.91 2347.61 L1639.44 2346.74 L1648.97 2346.00 L1658.37 2345.14 L1667.90 2344.27 L1677.43 2343.53 L1686.96 2342.66 L1696.49 2341.79 L1705.89 2341.05 L1715.42 2340.19 L1724.95 2339.32 L1734.48 2338.58 L1743.88 2337.71 L1753.41 2336.84 L1762.94 2336.10 L1772.47 2335.24 L1781.88 2334.37 L1791.40 2333.50 L1800.93 2332.76 L1810.46 2331.89 L1819.87 2331.03 L1829.40 2330.16 L1838.92 2329.30 L1848.45 2328.55 L1857.86 2327.69 L1867.39 2326.82 L1876.92 2325.95 L1886.44 2325.09 L1895.85 2324.22 L1905.38 2323.36 L1914.91 2322.49 L1924.44 2321.75 L1933.84 2320.88 L1943.37 2320.01 L1952.90 2319.15 L1962.43 2318.28 L1971.83 2317.41 L1981.36 2316.55 L1990.89 2315.68 L2000.42 2314.82 L2009.95 2313.95 L2019.35 2313.08 L2028.88 2312.22 L2038.41 2311.35 L2047.94 2310.48 L2057.34 2309.62 L2066.87 2308.75 L2076.40 2307.89 L2085.93 2307.02 L2095.34 2306.15 L2104.86 2305.16 L2114.39 2304.30 L2123.92 2303.43 L2133.33 2302.56 L2142.86 2301.70 L2152.38 2300.83 L2161.91 2299.97 L2171.32 2299.10 L2180.85 2298.11 L2190.38 2297.24 L2199.90 2296.38 L2209.31 2295.51 L2218.84 2294.64 L2228.37 2293.65 L2237.89 2292.79 L2247.30 2291.92 L2256.83 2291.06 L2266.36 2290.19 L2275.89 2289.20 L2285.41 2288.33 L2294.82 2287.47 L2304.35 2286.48 L2313.88 2285.61 L2323.41 2284.74 L2332.81 2283.88 L2342.34 2282.89 L2351.87 2282.02 L2361.40 2281.16 L2370.80 2280.17 L2380.33 2279.30 L2389.86 2278.43 L2399.39 2277.44 L2408.79 2276.58 L2418.32 2275.59 L2427.85 2274.72 L2437.38 2273.85 L2446.78 2272.86 L2456.31 2272.00 L2465.84 2271.01 L2475.37 2270.14 L2484.78 2269.27 L2494.30 2268.28 L2503.83 2267.42 L2513.36 2266.43 L2522.77 2265.56 L2532.30 2264.57 L2541.82 2263.71 L2551.35 2262.72 L2560.76 2261.85 L2570.29 2260.86 L2579.82 2259.99 L2589.34 2259.00 L2598.87 2258.14 L2608.28 2257.15 L2617.81 2256.16 L2627.34 2255.29 L2636.86 2254.30 L2646.27 2253.43 L2655.80 2252.44 L2665.33 2251.58 L2674.86 2250.59 L2684.26 2249.60 L2693.79 2248.73 L2703.32 2247.74 L2712.85 2246.75 L2722.25 2245.89 L2731.78 2244.90 L2741.31 2244.03 L2750.84 2243.04 L2760.24 2242.05 L2769.77 2241.06 L2779.30 2240.19 L2788.83 2239.20 L2798.24 2238.21 L2807.76 2237.35 L2817.29 2236.36 L2826.82 2235.37 L2836.23 2234.38 L2845.76 2233.51 L2855.28 2232.52 L2864.81 2231.53 L2874.22 2230.54 L2883.75 2229.67 L2893.28 2228.68 L2902.80 2227.69 L2912.33 2226.70 L2921.74 2225.84 L2931.27 2224.85 L2940.80 2223.86 L2950.32 2222.87 L2959.73 2221.88 L2969.26 2220.89 L2978.79 2220.02 L2988.32 2219.03 L2997.72 2218.04 L3007.25 2217.05 L3016.78 2216.06 L3026.31 2215.07 L3035.71 2214.08 L3045.24 2213.09 L3054.77 2212.10 L3064.30 2211.23 L3073.70 2210.24 L3083.23 2209.25 L3092.76 2208.26 L3102.29 2207.27 L3111.69 2206.28 L3121.22 2205.29 L3130.75 2204.30 L3140.28 2203.31 L3149.68 2202.32 L3159.21 2201.33 L3168.74 2200.34 L3178.27 2199.35 L3187.68 2198.36 L3197.20 2197.37 L3206.73 2196.38 L3216.26 2195.39 L3225.79 2194.40 L3235.20 2193.41 L3244.72 2192.42 L3254.25 2191.43 L3263.78 2190.44 L3273.19 2189.45 L3282.72 2188.46 L3292.24 2187.47 L3301.77 2186.48 L3311.18 2185.37 L3320.71 2184.38 L3330.24 2183.39 L3339.76 2182.40 L3349.17 2181.41 L3358.70 2180.42 L3368.23 2179.43 L3377.76 2178.44 L3387.16 2177.45 L3396.69 2176.34 L3406.22 2175.35 L3415.75 2174.36 L3425.15 2173.37 L3434.68 2172.38 L3444.21 2171.39 L3453.74 2170.27 L3463.14 2169.28 L3472.67 2168.29 L3482.20 2167.30 L3491.73 2166.31 L3501.14 2165.32 L3510.66 2164.21 L3520.19 2163.22 L3529.72 2162.23 L3539.25 2161.24 L3548.66 2160.25 L3558.18 2159.13 L3567.71 2158.14 L3577.24 2157.15 L3586.65 2156.16 L3596.18 2155.05 L3605.70 2154.06 L3615.23 2153.07 L3624.64 2152.08 L3634.17 2150.97 L3643.70 2149.98 L3653.22 2148.99 L3662.63 2147.87 L3672.16 2146.88 L3681.69 2145.89 L3691.22 2144.90 L3700.62 2143.79 L3710.15 2142.80 L3719.68 2141.81 L3729.21 2140.69 L3738.61 2139.70 L3748.14 2138.71 L3757.67 2137.60 L3767.20 2136.61 L3776.60 2135.62 L3786.13 2134.51 L3795.66 2133.52" stroke-linejoin="round" style="fill:none;stroke:#FF0000;stroke-width:8.64"/>
	<path d=" M585.09 2425.95 L594.62 2421.86 L604.02 2417.66 L613.55 2413.32 L623.08 2408.99 L632.61 2404.66 L642.01 2400.21 L651.54 2395.75 L661.07 2391.17 L670.60 2386.59 L680.01 2382.01 L689.53 2377.44 L699.06 2372.73 L708.59 2368.03 L718.00 2363.33 L727.53 2358.62 L737.05 2353.80 L746.58 2349.10 L755.99 2344.27 L765.52 2339.44 L775.05 2334.62 L784.58 2329.67 L794.10 2324.72 L803.51 2319.89 L813.04 2314.94 L822.57 2309.87 L832.10 2304.92 L841.50 2299.97 L851.03 2294.89 L860.56 2289.82 L870.09 2284.74 L879.49 2279.67 L889.02 2274.60 L898.55 2269.52 L908.08 2264.32 L917.48 2259.13 L927.01 2254.05 L936.54 2248.86 L946.07 2243.66 L955.47 2238.46 L965.00 2233.14 L974.53 2227.94 L984.06 2222.62 L993.47 2217.42 L1002.99 2212.10 L1012.52 2206.78 L1022.05 2201.46 L1031.46 2196.14 L1040.98 2190.81 L1050.51 2185.37 L1060.04 2180.05 L1069.57 2174.60 L1078.98 2169.16 L1088.51 2163.84 L1098.03 2158.39 L1107.56 2152.95 L1116.97 2147.50 L1126.50 2141.93 L1136.03 2136.49 L1145.55 2131.04 L1154.96 2125.47 L1164.49 2120.03 L1174.02 2114.46 L1183.55 2108.89 L1192.95 2103.32 L1202.48 2097.75 L1212.01 2092.18 L1221.54 2086.61 L1230.94 2081.05 L1240.47 2075.35 L1250.00 2069.78 L1259.53 2064.09 L1268.93 2058.52 L1278.46 2052.83 L1287.99 2047.14 L1297.52 2041.57 L1306.92 2035.87 L1316.45 2030.18 L1325.98 2024.37 L1335.51 2018.67 L1344.91 2012.98 L1354.44 2007.29 L1363.97 2001.47 L1373.50 1995.78 L1383.03 1989.96 L1392.43 1984.15 L1401.96 1978.45 L1411.49 1972.64 L1421.02 1966.82 L1430.43 1961.00 L1439.95 1955.19 L1449.48 1949.37 L1459.01 1943.55 L1468.42 1937.74 L1477.95 1931.80 L1487.47 1925.98 L1497.00 1920.04 L1506.41 1914.22 L1515.94 1908.28 L1525.47 1902.47 L1534.99 1896.53 L1544.40 1890.59 L1553.93 1884.65 L1563.46 1878.71 L1572.99 1872.77 L1582.39 1866.83 L1591.92 1860.89 L1601.45 1854.95 L1610.98 1849.01 L1620.38 1842.94 L1629.91 1837.00 L1639.44 1830.94 L1648.97 1825.00 L1658.37 1818.93 L1667.90 1812.99 L1677.43 1806.93 L1686.96 1800.87 L1696.49 1794.93 L1705.89 1788.86 L1715.42 1782.80 L1724.95 1776.73 L1734.48 1770.67 L1743.88 1764.61 L1753.41 1758.42 L1762.94 1752.35 L1772.47 1746.29 L1781.88 1740.23 L1791.40 1734.04 L1800.93 1727.98 L1810.46 1721.79 L1819.87 1715.72 L1829.40 1709.54 L1838.92 1703.47 L1848.45 1697.28 L1857.86 1691.10 L1867.39 1684.91 L1876.92 1678.72 L1886.44 1672.53 L1895.85 1666.47 L1905.38 1660.28 L1914.91 1653.97 L1924.44 1647.78 L1933.84 1641.60 L1943.37 1635.41 L1952.90 1629.22 L1962.43 1622.91 L1971.83 1616.72 L1981.36 1610.53 L1990.89 1604.22 L2000.42 1598.03 L2009.95 1591.72 L2019.35 1585.41 L2028.88 1579.22 L2038.41 1572.91 L2047.94 1566.60 L2057.34 1560.41 L2066.87 1554.10 L2076.40 1547.79 L2085.93 1541.48 L2095.34 1535.17 L2104.86 1528.86 L2114.39 1522.54 L2123.92 1516.23 L2133.33 1509.92 L2142.86 1503.61 L2152.38 1497.17 L2161.91 1490.86 L2171.32 1484.55 L2180.85 1478.12 L2190.38 1471.80 L2199.90 1465.37 L2209.31 1459.06 L2218.84 1452.62 L2228.37 1446.31 L2237.89 1439.88 L2247.30 1433.56 L2256.83 1427.13 L2266.36 1420.69 L2275.89 1414.38 L2285.41 1407.95 L2294.82 1401.51 L2304.35 1395.08 L2313.88 1388.64 L2323.41 1382.21 L2332.81 1375.77 L2342.34 1369.34 L2351.87 1362.90 L2361.40 1356.47 L2370.80 1350.03 L2380.33 1343.60 L2389.86 1337.04 L2399.39 1330.60 L2408.79 1324.17 L2418.32 1317.61 L2427.85 1311.17 L2437.38 1304.74 L2446.78 1298.18 L2456.31 1291.74 L2465.84 1285.18 L2475.37 1278.75 L2484.78 1272.19 L2494.30 1265.75 L2503.83 1259.20 L2513.36 1252.64 L2522.77 1246.08 L2532.30 1239.64 L2541.82 1233.08 L2551.35 1226.52 L2560.76 1219.97 L2570.29 1213.41 L2579.82 1206.85 L2589.34 1200.41 L2598.87 1193.85 L2608.28 1187.29 L2617.81 1180.61 L2627.34 1174.05 L2636.86 1167.49 L2646.27 1160.94 L2655.80 1154.38 L2665.33 1147.82 L2674.86 1141.26 L2684.26 1134.58 L2693.79 1128.02 L2703.32 1121.46 L2712.85 1114.77 L2722.25 1108.22 L2731.78 1101.66 L2741.31 1094.97 L2750.84 1088.42 L2760.24 1081.73 L2769.77 1075.17 L2779.30 1068.49 L2788.83 1061.81 L2798.24 1055.25 L2807.76 1048.57 L2817.29 1042.01 L2826.82 1035.32 L2836.23 1028.64 L2845.76 1021.96 L2855.28 1015.40 L2864.81 1008.72 L2874.22 1002.04 L2883.75 995.35 L2893.28 988.67 L2902.80 981.99 L2912.33 975.30 L2921.74 968.62 L2931.27 961.94 L2940.80 955.26 L2950.32 948.57 L2959.73 941.89 L2969.26 935.21 L2978.79 928.53 L2988.32 921.84 L2997.72 915.16 L3007.25 908.35 L3016.78 901.67 L3026.31 894.99 L3035.71 888.31 L3045.24 881.50 L3054.77 874.82 L3064.30 868.13 L3073.70 861.33 L3083.23 854.64 L3092.76 847.96 L3102.29 841.16 L3111.69 834.47 L3121.22 827.67 L3130.75 820.98 L3140.28 814.18 L3149.68 807.49 L3159.21 800.69 L3168.74 793.88 L3178.27 787.20 L3187.68 780.39 L3197.20 773.71 L3206.73 766.90 L3216.26 760.10 L3225.79 753.41 L3235.20 746.61 L3244.72 739.80 L3254.25 732.99 L3263.78 726.31 L3273.19 719.50 L3282.72 712.70 L3292.24 705.89 L3301.77 699.21 L3311.18 692.40 L3320.71 685.60 L3330.24 678.79 L3339.76 671.98 L3349.17 665.18 L3358.70 658.37 L3368.23 651.56 L3377.76 644.88 L3387.16 638.07 L3396.69 631.27 L3406.22 624.46 L3415.75 617.66 L3425.15 610.85 L3434.68 604.04 L3444.21 597.24 L3453.74 590.43 L3463.14 583.62 L3472.67 576.69 L3482.20 569.89 L3491.73 563.08 L3501.14 556.27 L3510.66 549.47 L3520.19 542.66 L3529.72 535.85 L3539.25 529.05 L3548.66 522.24 L3558.18 515.43 L3567.71 508.50 L3577.24 501.70 L3586.65 494.89 L3596.18 488.09 L3605.70 481.28 L3615.23 474.35 L3624.64 467.54 L3634.17 460.74 L3643.70 453.93 L3653.22 447.12 L3662.63 440.19 L3672.16 433.39 L3681.69 426.58 L3691.22 419.77 L3700.62 412.84 L3710.15 406.04 L3719.68 399.23 L3729.21 392.42 L3738.61 385.49 L3748.14 378.69 L3757.67 371.88 L3767.20 365.07 L3776.60 358.14 L3786.13 351.34 L3795.66 344.53" stroke-linejoin="round" style="fill:none;stroke:#0000FF;stroke-width:8.64"/>
	<line x1="521.73" y1="2489.19" x2="521.73" y2="100.86" style="stroke:#000000;stroke-width:5.76"/>
	<line x1="521.73" y1="2425.82" x2="481.76" y2="2425.82" style="stroke:#000000;stroke-width:5.76"/>
	<text x="461.83" y="2460.85" style="font-family:'Helvetica';font-size:99.99px;fill:#000000" text-anchor="end">0.00</text>
	<line x1="521.73" y1="2361.84" x2="481.76" y2="2361.84" style="stroke:#000000;stroke-width:5.76"/>
	<text x="461.83" y="2396.87" style="font-family:'Helvetica';font-size:99.99px;fill:#000000" text-anchor="end">0.05</text>
	<line x1="521.73" y1="2297.86" x2="481.76" y2="2297.86" style="stroke:#000000;stroke-width:5.76"/>
	<text x="461.83" y="2332.89" style="font-family:'Helvetica';font-size:99.99px;fill:#000000" text-anchor="end">0.10</text>
	<line x1="521.73" y1="2233.76" x2="481.76" y2="2233.76" style="stroke:#000000;stroke-width:5.76"/>
	<text x="461.83" y="2268.79" style="font-family:'Helvetica';font-size:99.99px;fill:#000000" text-anchor="end">0.15</text>
	<text x="190.71" y="1294.96" style="font-family:'Helvetica';font-size:99.99px;fill:#000000" transform="rotate(-90 190.71,1294.96)" text-anchor="middle">Cumulative mortality (%)</text>
	<line x1="521.73" y1="2489.19" x2="3859.02" y2="2489.19" style="stroke:#000000;stroke-width:5.76"/>
	<line x1="879.62" y1="2489.19" x2="879.62" y2="2529.16" style="stroke:#000000;stroke-width:5.76"/>
	<text x="879.62" y="2619.14" style="font-family:'Helvetica';font-size:99.99px;fill:#000000" text-anchor="middle">1 April</text>
	<line x1="1744.01" y1="2489.19" x2="1744.01" y2="2529.16" style="stroke:#000000;stroke-width:5.76"/>
	<text x="1744.01" y="2619.14" style="font-family:'Helvetica';font-size:99.99px;fill:#000000" text-anchor="middle">1 July</text>
	<line x1="2617.93" y1="2489.19" x2="2617.93" y2="2529.16" style="stroke:#000000;stroke-width:5.76"/>
	<text x="2617.93" y="2619.14" style="font-family:'Helvetica';font-size:99.99px;fill:#000000" text-anchor="middle">1 October</text>
	<line x1="3491.73" y1="2489.19" x2="3491.73" y2="2529.16" style="stroke:#000000;stroke-width:5.76"/>
	<text x="3491.73" y="2619.14" style="font-family:'Helvetica';font-size:99.99px;fill:#000000" text-anchor="middle">1 January</text>
	<text x="2190.38" y="2729.16" style="font-family:'Helvetica';font-size:99.99px;fill:#000000" text-anchor="middle">Date in 2020</text>
	<rect x="556.38" y="135.39" width="1056.21" height="326.34" style="fill:#FFFFFF"/>
	<rect x="559.26" y="138.27" width="1050.45" height="320.58" style="fill:none;stroke:#000000;stroke-width:5.76"/>
	<rect x="599.57" y="178.58" width="374.34" height="99.99" style="fill:#FF3333;fill-opacity:0.25"/>
	<rect x="603.89" y="182.90" width="365.70" height="91.35" style="fill:none;stroke:#FF0000;stroke-opacity:0.25;stroke-width:8.64"/>
	<rect x="599.57" y="318.54" width="374.34" height="99.99" style="fill:#3333FF;fill-opacity:0.25"/>
	<rect x="603.89" y="322.86" width="365.70" height="91.35" style="fill:none;stroke:#0000FF;stroke-opacity:0.25;stroke-width:8.64"/>
	<text x="1033.93" y="263.60" style="font-family:'Helvetica';font-size:99.99px;fill:#000000">Not on LDR</text>
	<text x="1033.93" y="403.57" style="font-family:'Helvetica';font-size:99.99px;fill:#000000">On LDR</text>
</svg>
