<?xml version="1.0" encoding="UTF-8" standalone="no"?>
<!-- This is a Stata 16.1 generated SVG file (http://www.stata.com) -->

<svg version="1.1" width="5.50in" height="4.00in" viewBox="0 0 3960 2880" xmlns="http://www.w3.org/2000/svg" xmlns:xlink="http://www.w3.org/1999/xlink">
	<desc>Stata Graph - Graph</desc>
	<rect x="0" y="0" width="3960" height="2880" style="fill:#EAF2F3;stroke:none"/>
	<rect x="0.00" y="0.00" width="3959.88" height="2880.00" style="fill:#EAF2F3"/>
	<rect x="2.88" y="2.88" width="3954.12" height="2874.24" style="fill:none;stroke:#EAF2F3;stroke-width:5.76"/>
	<rect x="521.73" y="100.86" width="3337.29" height="2388.33" style="fill:#FFFFFF"/>
	<rect x="524.61" y="103.74" width="3331.53" height="2382.57" style="fill:none;stroke:#FFFFFF;stroke-width:5.76"/>
	<line x1="521.73" y1="2425.82" x2="3859.02" y2="2425.82" style="stroke:#EAF2F3;stroke-width:8.64"/>
	<line x1="521.73" y1="2122.50" x2="3859.02" y2="2122.50" style="stroke:#EAF2F3;stroke-width:8.64"/>
	<line x1="521.73" y1="1819.06" x2="3859.02" y2="1819.06" style="stroke:#EAF2F3;stroke-width:8.64"/>
	<line x1="521.73" y1="1515.61" x2="3859.02" y2="1515.61" style="stroke:#EAF2F3;stroke-width:8.64"/>
	<line x1="521.73" y1="1212.29" x2="3859.02" y2="1212.29" style="stroke:#EAF2F3;stroke-width:8.64"/>
	<line x1="521.73" y1="908.85" x2="3859.02" y2="908.85" style="stroke:#EAF2F3;stroke-width:8.64"/>
	<line x1="521.73" y1="605.40" x2="3859.02" y2="605.40" style="stroke:#EAF2F3;stroke-width:8.64"/>
	<line x1="521.73" y1="302.08" x2="3859.02" y2="302.08" style="stroke:#EAF2F3;stroke-width:8.64"/>
	<defs>
		<path id="path_UaOqSTvB" d="M603.78 2425.82 L603.78 2425.82 L613.06 2425.82 L622.34 2425.82 L631.62 2425.82 L641.02 2425.82 L650.31 2425.82 L659.59 2425.82 L668.87 2425.82 L678.15 2425.82 L687.55 2425.82 L696.84 2425.82 L706.12 2425.82 L715.40 2425.70 L724.68 2425.70 L734.09 2425.58 L743.37 2425.45 L752.65 2425.33 L761.93 2425.20 L771.21 2424.96 L780.62 2424.59 L789.90 2424.21 L799.18 2423.84 L808.46 2423.35 L817.74 2422.73 L827.14 2421.99 L836.43 2421.24 L845.71 2420.38 L854.99 2419.39 L864.27 2418.27 L873.67 2417.16 L882.96 2415.80 L892.24 2414.44 L901.52 2412.95 L910.80 2411.34 L920.21 2409.61 L929.49 2407.88 L938.77 2406.02 L948.05 2404.04 L957.33 2402.06 L966.74 2399.96 L976.02 2397.85 L985.30 2395.63 L994.58 2393.28 L1003.86 2391.05 L1013.26 2388.70 L1022.55 2386.35 L1031.83 2383.99 L1041.11 2381.52 L1050.39 2379.17 L1059.80 2376.82 L1069.08 2374.34 L1078.36 2371.99 L1087.64 2369.64 L1096.92 2367.29 L1106.33 2365.06 L1115.61 2362.83 L1124.89 2360.61 L1134.17 2358.50 L1143.45 2356.40 L1152.86 2354.29 L1162.14 2352.31 L1171.42 2350.46 L1180.70 2348.48 L1189.98 2346.74 L1199.38 2345.01 L1208.67 2343.28 L1217.95 2341.67 L1227.23 2340.06 L1236.51 2338.58 L1245.91 2337.09 L1255.20 2335.61 L1264.48 2334.37 L1273.76 2333.01 L1283.04 2331.77 L1292.44 2330.53 L1301.73 2329.42 L1311.01 2328.31 L1320.29 2327.32 L1329.57 2326.33 L1338.97 2325.34 L1348.26 2324.47 L1357.54 2323.60 L1366.82 2322.74 L1376.10 2321.99 L1385.51 2321.25 L1394.79 2320.51 L1404.07 2319.89 L1413.35 2319.15 L1422.63 2318.53 L1432.04 2318.03 L1441.32 2317.41 L1450.60 2316.92 L1459.88 2316.42 L1469.16 2316.05 L1478.57 2315.56 L1487.85 2315.19 L1497.13 2314.69 L1506.41 2314.44 L1515.69 2314.07 L1525.10 2313.70 L1534.38 2313.45 L1543.66 2313.08 L1552.94 2312.84 L1562.22 2312.59 L1571.62 2312.34 L1580.91 2312.09 L1590.19 2311.97 L1599.47 2311.72 L1608.75 2311.47 L1618.15 2311.35 L1627.44 2311.23 L1636.72 2310.98 L1646.00 2310.86 L1655.28 2310.73 L1664.68 2310.61 L1673.97 2310.48 L1683.25 2310.36 L1692.53 2310.24 L1701.81 2310.24 L1711.21 2310.11 L1720.50 2309.99 L1729.78 2309.99 L1739.06 2309.87 L1748.34 2309.74 L1757.74 2309.74 L1767.03 2309.62 L1776.31 2309.62 L1785.59 2309.49 L1794.87 2309.49 L1804.28 2309.49 L1813.56 2309.37 L1822.84 2309.37 L1832.12 2309.25 L1841.40 2309.25 L1850.81 2309.25 L1860.09 2309.12 L1869.37 2309.12 L1878.65 2309.00 L1887.93 2309.00 L1897.34 2309.00 L1906.62 2308.88 L1915.90 2308.88 L1925.18 2308.75 L1934.46 2308.75 L1943.87 2308.75 L1953.15 2308.63 L1962.43 2308.63 L1971.71 2308.50 L1980.99 2308.50 L1990.39 2308.38 L1999.68 2308.38 L2008.96 2308.26 L2018.24 2308.26 L2027.52 2308.13 L2036.92 2308.01 L2046.21 2308.01 L2055.49 2307.89 L2064.77 2307.76 L2074.05 2307.76 L2083.45 2307.64 L2092.74 2307.51 L2102.02 2307.39 L2111.30 2307.39 L2120.58 2307.27 L2129.99 2307.14 L2139.27 2307.02 L2148.55 2306.90 L2157.83 2306.77 L2167.11 2306.65 L2176.51 2306.52 L2185.80 2306.40 L2195.08 2306.28 L2204.36 2306.15 L2213.64 2306.03 L2223.05 2305.78 L2232.33 2305.66 L2241.61 2305.53 L2250.89 2305.29 L2260.17 2305.16 L2269.57 2305.04 L2278.86 2304.79 L2288.14 2304.67 L2297.42 2304.42 L2306.70 2304.30 L2316.11 2304.05 L2325.39 2303.93 L2334.67 2303.68 L2343.95 2303.43 L2353.23 2303.31 L2362.64 2303.06 L2371.92 2302.81 L2381.20 2302.56 L2390.48 2302.32 L2399.76 2302.07 L2409.16 2301.82 L2418.45 2301.57 L2427.73 2301.33 L2437.01 2301.08 L2446.29 2300.83 L2455.70 2300.58 L2464.98 2300.34 L2474.26 2299.97 L2483.54 2299.72 L2492.82 2299.47 L2502.22 2299.10 L2511.51 2298.85 L2520.79 2298.48 L2530.07 2298.23 L2539.35 2297.86 L2548.76 2297.61 L2558.04 2297.24 L2567.32 2296.87 L2576.60 2296.50 L2585.88 2296.25 L2595.28 2295.88 L2604.57 2295.51 L2613.85 2295.14 L2623.13 2294.77 L2632.41 2294.40 L2641.82 2294.03 L2651.10 2293.65 L2660.38 2293.16 L2669.66 2292.79 L2678.94 2292.42 L2688.34 2292.05 L2697.63 2291.55 L2706.91 2291.18 L2716.19 2290.68 L2725.47 2290.31 L2734.88 2289.82 L2744.16 2289.32 L2753.44 2288.95 L2762.72 2288.46 L2772.00 2287.96 L2781.41 2287.47 L2790.69 2286.97 L2799.97 2286.60 L2809.25 2286.11 L2818.53 2285.49 L2827.93 2284.99 L2837.22 2284.50 L2846.50 2284.00 L2855.78 2283.51 L2865.06 2282.89 L2874.47 2282.39 L2883.75 2281.90 L2893.03 2281.28 L2902.31 2280.78 L2911.59 2280.17 L2920.99 2279.55 L2930.28 2279.05 L2939.56 2278.43 L2948.84 2277.81 L2958.12 2277.19 L2967.53 2276.58 L2976.81 2275.96 L2986.09 2275.34 L2995.37 2274.72 L3004.65 2274.10 L3014.05 2273.36 L3023.34 2272.74 L3032.62 2272.12 L3041.90 2271.38 L3051.18 2270.76 L3060.59 2270.02 L3069.87 2269.27 L3079.15 2268.66 L3088.43 2267.91 L3097.71 2267.17 L3107.11 2266.43 L3116.40 2265.56 L3125.68 2264.82 L3134.96 2263.95 L3144.24 2263.21 L3153.64 2262.34 L3162.93 2261.48 L3172.21 2260.61 L3181.49 2259.75 L3190.77 2258.88 L3200.18 2257.89 L3209.46 2257.02 L3218.74 2256.03 L3228.02 2255.04 L3237.30 2254.05 L3246.70 2253.06 L3255.99 2251.95 L3265.27 2250.96 L3274.55 2249.85 L3283.83 2248.73 L3293.24 2247.62 L3302.52 2246.38 L3311.80 2245.14 L3321.08 2243.91 L3330.36 2242.67 L3339.76 2241.43 L3349.05 2240.07 L3358.33 2238.83 L3367.61 2237.35 L3376.89 2235.98 L3386.30 2234.50 L3395.58 2233.14 L3404.86 2231.53 L3414.14 2230.04 L3423.42 2228.44 L3432.82 2226.83 L3442.11 2225.22 L3451.39 2223.49 L3460.67 2221.75 L3469.95 2220.02 L3479.36 2218.16 L3488.64 2216.31 L3497.92 2214.45 L3507.20 2212.47 L3516.48 2210.49 L3525.89 2208.51 L3535.17 2206.41 L3544.45 2204.30 L3553.73 2202.08 L3563.01 2199.85 L3572.41 2197.62 L3581.70 2195.27 L3590.98 2192.92 L3600.26 2190.57 L3609.54 2188.09 L3618.95 2185.62 L3628.23 2183.14 L3637.51 2180.54 L3646.79 2177.94 L3656.07 2175.35 L3665.47 2172.62 L3674.76 2169.90 L3684.04 2167.18 L3693.32 2164.33 L3702.60 2161.49 L3712.01 2158.64 L3721.29 2155.79 L3730.57 2152.82 L3739.85 2149.98 L3749.13 2147.01 L3758.53 2143.91 L3767.82 2140.94 L3777.10 2137.85 L3786.38 2134.75 L3795.66 2131.66 L3795.66 2125.35 L3786.38 2128.57 L3777.10 2131.66 L3767.82 2134.75 L3758.53 2137.85 L3749.13 2140.94 L3739.85 2144.04 L3730.57 2147.01 L3721.29 2149.98 L3712.01 2152.82 L3702.60 2155.79 L3693.32 2158.64 L3684.04 2161.49 L3674.76 2164.21 L3665.47 2167.05 L3656.07 2169.65 L3646.79 2172.38 L3637.51 2174.97 L3628.23 2177.57 L3618.95 2180.17 L3609.54 2182.65 L3600.26 2185.12 L3590.98 2187.60 L3581.70 2189.95 L3572.41 2192.30 L3563.01 2194.53 L3553.73 2196.75 L3544.45 2198.98 L3535.17 2201.09 L3525.89 2203.19 L3516.48 2205.29 L3507.20 2207.27 L3497.92 2209.25 L3488.64 2211.11 L3479.36 2213.09 L3469.95 2214.82 L3460.67 2216.68 L3451.39 2218.41 L3442.11 2220.14 L3432.82 2221.75 L3423.42 2223.36 L3414.14 2224.97 L3404.86 2226.58 L3395.58 2228.06 L3386.30 2229.55 L3376.89 2231.03 L3367.61 2232.52 L3358.33 2233.88 L3349.05 2235.24 L3339.76 2236.60 L3330.36 2237.84 L3321.08 2239.08 L3311.80 2240.32 L3302.52 2241.55 L3293.24 2242.79 L3283.83 2243.91 L3274.55 2245.14 L3265.27 2246.26 L3255.99 2247.25 L3246.70 2248.36 L3237.30 2249.35 L3228.02 2250.46 L3218.74 2251.45 L3209.46 2252.44 L3200.18 2253.31 L3190.77 2254.30 L3181.49 2255.17 L3172.21 2256.16 L3162.93 2257.02 L3153.64 2257.89 L3144.24 2258.76 L3134.96 2259.50 L3125.68 2260.36 L3116.40 2261.11 L3107.11 2261.97 L3097.71 2262.72 L3088.43 2263.46 L3079.15 2264.20 L3069.87 2264.94 L3060.59 2265.69 L3051.18 2266.43 L3041.90 2267.05 L3032.62 2267.79 L3023.34 2268.41 L3014.05 2269.15 L3004.65 2269.77 L2995.37 2270.51 L2986.09 2271.13 L2976.81 2271.75 L2967.53 2272.37 L2958.12 2272.99 L2948.84 2273.61 L2939.56 2274.22 L2930.28 2274.84 L2920.99 2275.46 L2911.59 2275.96 L2902.31 2276.58 L2893.03 2277.19 L2883.75 2277.69 L2874.47 2278.31 L2865.06 2278.80 L2855.78 2279.42 L2846.50 2279.92 L2837.22 2280.41 L2827.93 2280.91 L2818.53 2281.53 L2809.25 2282.02 L2799.97 2282.52 L2790.69 2283.01 L2781.41 2283.51 L2772.00 2284.00 L2762.72 2284.37 L2753.44 2284.87 L2744.16 2285.36 L2734.88 2285.86 L2725.47 2286.23 L2716.19 2286.72 L2706.91 2287.10 L2697.63 2287.59 L2688.34 2287.96 L2678.94 2288.46 L2669.66 2288.83 L2660.38 2289.20 L2651.10 2289.69 L2641.82 2290.07 L2632.41 2290.44 L2623.13 2290.81 L2613.85 2291.18 L2604.57 2291.55 L2595.28 2291.92 L2585.88 2292.29 L2576.60 2292.66 L2567.32 2292.91 L2558.04 2293.28 L2548.76 2293.65 L2539.35 2293.90 L2530.07 2294.27 L2520.79 2294.64 L2511.51 2294.89 L2502.22 2295.14 L2492.82 2295.51 L2483.54 2295.76 L2474.26 2296.13 L2464.98 2296.38 L2455.70 2296.62 L2446.29 2296.87 L2437.01 2297.12 L2427.73 2297.49 L2418.45 2297.74 L2409.16 2297.99 L2399.76 2298.23 L2390.48 2298.48 L2381.20 2298.60 L2371.92 2298.85 L2362.64 2299.10 L2353.23 2299.35 L2343.95 2299.59 L2334.67 2299.72 L2325.39 2299.97 L2316.11 2300.21 L2306.70 2300.34 L2297.42 2300.58 L2288.14 2300.71 L2278.86 2300.96 L2269.57 2301.08 L2260.17 2301.20 L2250.89 2301.45 L2241.61 2301.57 L2232.33 2301.70 L2223.05 2301.82 L2213.64 2302.07 L2204.36 2302.19 L2195.08 2302.32 L2185.80 2302.44 L2176.51 2302.56 L2167.11 2302.69 L2157.83 2302.81 L2148.55 2302.94 L2139.27 2303.06 L2129.99 2303.18 L2120.58 2303.31 L2111.30 2303.43 L2102.02 2303.43 L2092.74 2303.55 L2083.45 2303.68 L2074.05 2303.80 L2064.77 2303.80 L2055.49 2303.93 L2046.21 2304.05 L2036.92 2304.05 L2027.52 2304.17 L2018.24 2304.17 L2008.96 2304.30 L1999.68 2304.30 L1990.39 2304.42 L1980.99 2304.42 L1971.71 2304.54 L1962.43 2304.54 L1953.15 2304.67 L1943.87 2304.67 L1934.46 2304.79 L1925.18 2304.79 L1915.90 2304.92 L1906.62 2304.92 L1897.34 2304.92 L1887.93 2305.04 L1878.65 2305.04 L1869.37 2305.04 L1860.09 2305.16 L1850.81 2305.16 L1841.40 2305.29 L1832.12 2305.29 L1822.84 2305.29 L1813.56 2305.41 L1804.28 2305.41 L1794.87 2305.53 L1785.59 2305.53 L1776.31 2305.66 L1767.03 2305.66 L1757.74 2305.78 L1748.34 2305.78 L1739.06 2305.91 L1729.78 2305.91 L1720.50 2306.03 L1711.21 2306.15 L1701.81 2306.28 L1692.53 2306.28 L1683.25 2306.40 L1673.97 2306.52 L1664.68 2306.65 L1655.28 2306.77 L1646.00 2306.90 L1636.72 2307.14 L1627.44 2307.27 L1618.15 2307.39 L1608.75 2307.64 L1599.47 2307.76 L1590.19 2308.01 L1580.91 2308.26 L1571.62 2308.50 L1562.22 2308.75 L1552.94 2309.00 L1543.66 2309.25 L1534.38 2309.49 L1525.10 2309.87 L1515.69 2310.24 L1506.41 2310.61 L1497.13 2310.98 L1487.85 2311.35 L1478.57 2311.72 L1469.16 2312.22 L1459.88 2312.71 L1450.60 2313.21 L1441.32 2313.70 L1432.04 2314.32 L1422.63 2314.94 L1413.35 2315.56 L1404.07 2316.18 L1394.79 2316.92 L1385.51 2317.66 L1376.10 2318.40 L1366.82 2319.27 L1357.54 2320.01 L1348.26 2321.00 L1338.97 2321.87 L1329.57 2322.86 L1320.29 2323.85 L1311.01 2324.96 L1301.73 2326.08 L1292.44 2327.32 L1283.04 2328.55 L1273.76 2329.79 L1264.48 2331.15 L1255.20 2332.51 L1245.91 2334.00 L1236.51 2335.48 L1227.23 2336.97 L1217.95 2338.58 L1208.67 2340.31 L1199.38 2342.04 L1189.98 2343.90 L1180.70 2345.75 L1171.42 2347.61 L1162.14 2349.59 L1152.86 2351.57 L1143.45 2353.67 L1134.17 2355.90 L1124.89 2358.01 L1115.61 2360.36 L1106.33 2362.59 L1096.92 2364.94 L1087.64 2367.29 L1078.36 2369.76 L1069.08 2372.11 L1059.80 2374.59 L1050.39 2377.06 L1041.11 2379.42 L1031.83 2381.89 L1022.55 2384.37 L1013.26 2386.84 L1003.86 2389.19 L994.58 2391.54 L985.30 2393.89 L976.02 2396.12 L966.74 2398.35 L957.33 2400.58 L948.05 2402.68 L938.77 2404.66 L929.49 2406.64 L920.21 2408.50 L910.80 2410.23 L901.52 2411.96 L892.24 2413.45 L882.96 2414.93 L873.67 2416.29 L864.27 2417.53 L854.99 2418.77 L845.71 2419.76 L836.43 2420.75 L827.14 2421.62 L817.74 2422.36 L808.46 2422.98 L799.18 2423.60 L789.90 2424.09 L780.62 2424.46 L771.21 2424.83 L761.93 2425.08 L752.65 2425.20 L743.37 2425.45 L734.09 2425.58 L724.68 2425.70 L715.40 2425.70 L706.12 2425.82 L696.84 2425.82 L687.55 2425.82 L678.15 2425.82 L668.87 2425.82 L659.59 2425.82 L650.31 2425.82 L641.02 2425.82 L631.62 2425.82 L622.34 2425.82 L613.06 2425.82 L603.78 2425.82 L603.78 2425.82 Z" stroke-linejoin="round"/>
	</defs>
	<defs>
		<clipPath id="clipPath_LQjKQlGp">
			<use xlink:href="#path_UaOqSTvB"/>
		</clipPath>
	</defs>
	<use xlink:href="#path_UaOqSTvB" style="stroke:none;fill:#FF3333;fill-opacity:0.25"/>
	<use xlink:href="#path_UaOqSTvB" style="fill:none;stroke:#FF0000;stroke-opacity:0.25;stroke-width:17.28" clip-path="url(#clipPath_LQjKQlGp)"/>
	<defs>
		<path id="path_VOsGHeBP" d="M594.50 2425.82 L594.50 2425.82 L603.78 2425.82 L613.06 2425.82 L622.34 2425.82 L631.62 2425.82 L641.02 2425.82 L650.31 2425.82 L659.59 2425.82 L668.87 2425.82 L678.15 2425.82 L687.55 2425.70 L696.84 2425.58 L706.12 2425.45 L715.40 2425.08 L724.68 2424.71 L734.09 2424.09 L743.37 2423.35 L752.65 2422.23 L761.93 2420.87 L771.21 2419.14 L780.62 2417.04 L789.90 2414.31 L799.18 2411.22 L808.46 2407.51 L817.74 2403.18 L827.14 2398.35 L836.43 2392.66 L845.71 2386.35 L854.99 2379.42 L864.27 2371.62 L873.67 2363.20 L882.96 2354.05 L892.24 2344.15 L901.52 2333.50 L910.80 2322.24 L920.21 2310.36 L929.49 2297.74 L938.77 2284.62 L948.05 2271.01 L957.33 2256.78 L966.74 2242.17 L976.02 2227.07 L985.30 2211.73 L994.58 2196.01 L1003.86 2180.05 L1013.26 2163.84 L1022.55 2147.50 L1031.83 2131.17 L1041.11 2114.58 L1050.39 2098.12 L1059.80 2081.66 L1069.08 2065.33 L1078.36 2049.12 L1087.64 2033.03 L1096.92 2017.19 L1106.33 2001.60 L1115.61 1986.37 L1124.89 1971.40 L1134.17 1956.80 L1143.45 1942.44 L1152.86 1928.58 L1162.14 1915.09 L1171.42 1902.10 L1180.70 1889.35 L1189.98 1877.10 L1199.38 1865.22 L1208.67 1853.83 L1217.95 1842.82 L1227.23 1832.18 L1236.51 1821.90 L1245.91 1812.00 L1255.20 1802.60 L1264.48 1793.44 L1273.76 1784.78 L1283.04 1776.36 L1292.44 1768.44 L1301.73 1760.77 L1311.01 1753.34 L1320.29 1746.41 L1329.57 1739.73 L1338.97 1733.30 L1348.26 1727.23 L1357.54 1721.42 L1366.82 1715.85 L1376.10 1710.65 L1385.51 1705.70 L1394.79 1700.87 L1404.07 1696.42 L1413.35 1692.09 L1422.63 1688.00 L1432.04 1684.17 L1441.32 1680.45 L1450.60 1676.99 L1459.88 1673.77 L1469.16 1670.68 L1478.57 1667.71 L1487.85 1664.98 L1497.13 1662.39 L1506.41 1659.91 L1515.69 1657.56 L1525.10 1655.46 L1534.38 1653.35 L1543.66 1651.37 L1552.94 1649.64 L1562.22 1647.91 L1571.62 1646.30 L1580.91 1644.81 L1590.19 1643.33 L1599.47 1642.09 L1608.75 1640.85 L1618.15 1639.61 L1627.44 1638.50 L1636.72 1637.51 L1646.00 1636.52 L1655.28 1635.65 L1664.68 1634.79 L1673.97 1634.05 L1683.25 1633.30 L1692.53 1632.68 L1701.81 1631.94 L1711.21 1631.32 L1720.50 1630.83 L1729.78 1630.33 L1739.06 1629.71 L1748.34 1629.34 L1757.74 1628.85 L1767.03 1628.48 L1776.31 1627.98 L1785.59 1627.61 L1794.87 1627.24 L1804.28 1626.87 L1813.56 1626.50 L1822.84 1626.25 L1832.12 1625.88 L1841.40 1625.63 L1850.81 1625.26 L1860.09 1625.01 L1869.37 1624.64 L1878.65 1624.27 L1887.93 1624.02 L1897.34 1623.65 L1906.62 1623.40 L1915.90 1623.03 L1925.18 1622.78 L1934.46 1622.41 L1943.87 1622.04 L1953.15 1621.67 L1962.43 1621.30 L1971.71 1620.93 L1980.99 1620.56 L1990.39 1620.19 L1999.68 1619.69 L2008.96 1619.32 L2018.24 1618.82 L2027.52 1618.33 L2036.92 1617.83 L2046.21 1617.34 L2055.49 1616.84 L2064.77 1616.23 L2074.05 1615.73 L2083.45 1615.11 L2092.74 1614.49 L2102.02 1613.87 L2111.30 1613.13 L2120.58 1612.51 L2129.99 1611.77 L2139.27 1611.03 L2148.55 1610.29 L2157.83 1609.54 L2167.11 1608.68 L2176.51 1607.93 L2185.80 1607.07 L2195.08 1606.08 L2204.36 1605.21 L2213.64 1604.22 L2223.05 1603.36 L2232.33 1602.24 L2241.61 1601.25 L2250.89 1600.26 L2260.17 1599.15 L2269.57 1598.03 L2278.86 1596.80 L2288.14 1595.68 L2297.42 1594.44 L2306.70 1593.21 L2316.11 1591.97 L2325.39 1590.61 L2334.67 1589.25 L2343.95 1587.89 L2353.23 1586.52 L2362.64 1585.16 L2371.92 1583.68 L2381.20 1582.19 L2390.48 1580.58 L2399.76 1579.10 L2409.16 1577.49 L2418.45 1575.76 L2427.73 1574.15 L2437.01 1572.42 L2446.29 1570.68 L2455.70 1568.95 L2464.98 1567.10 L2474.26 1565.24 L2483.54 1563.38 L2492.82 1561.53 L2502.22 1559.55 L2511.51 1557.57 L2520.79 1555.59 L2530.07 1553.48 L2539.35 1551.38 L2548.76 1549.27 L2558.04 1547.05 L2567.32 1544.94 L2576.60 1542.59 L2585.88 1540.36 L2595.28 1538.01 L2604.57 1535.66 L2613.85 1533.31 L2623.13 1530.84 L2632.41 1528.36 L2641.82 1525.89 L2651.10 1523.41 L2660.38 1520.81 L2669.66 1518.21 L2678.94 1515.49 L2688.34 1512.77 L2697.63 1510.04 L2706.91 1507.32 L2716.19 1504.48 L2725.47 1501.63 L2734.88 1498.66 L2744.16 1495.69 L2753.44 1492.72 L2762.72 1489.75 L2772.00 1486.66 L2781.41 1483.56 L2790.69 1480.34 L2799.97 1477.25 L2809.25 1473.91 L2818.53 1470.69 L2827.93 1467.35 L2837.22 1464.01 L2846.50 1460.54 L2855.78 1457.08 L2865.06 1453.61 L2874.47 1450.15 L2883.75 1446.56 L2893.03 1442.85 L2902.31 1439.26 L2911.59 1435.54 L2920.99 1431.71 L2930.28 1427.87 L2939.56 1424.04 L2948.84 1420.20 L2958.12 1416.24 L2967.53 1412.16 L2976.81 1408.20 L2986.09 1404.11 L2995.37 1399.90 L3004.65 1395.82 L3014.05 1391.49 L3023.34 1387.28 L3032.62 1382.95 L3041.90 1378.49 L3051.18 1374.04 L3060.59 1369.58 L3069.87 1364.88 L3079.15 1360.30 L3088.43 1355.48 L3097.71 1350.65 L3107.11 1345.82 L3116.40 1340.75 L3125.68 1335.68 L3134.96 1330.48 L3144.24 1325.28 L3153.64 1319.83 L3162.93 1314.39 L3172.21 1308.70 L3181.49 1303.00 L3190.77 1297.19 L3200.18 1291.25 L3209.46 1285.18 L3218.74 1279.00 L3228.02 1272.68 L3237.30 1266.25 L3246.70 1259.57 L3255.99 1252.88 L3265.27 1245.95 L3274.55 1238.90 L3283.83 1231.72 L3293.24 1224.30 L3302.52 1216.87 L3311.80 1209.20 L3321.08 1201.28 L3330.36 1193.23 L3339.76 1185.07 L3349.05 1176.65 L3358.33 1168.11 L3367.61 1159.33 L3376.89 1150.29 L3386.30 1141.13 L3395.58 1131.85 L3404.86 1122.20 L3414.14 1112.42 L3423.42 1102.40 L3432.82 1092.13 L3442.11 1081.73 L3451.39 1070.97 L3460.67 1059.95 L3469.95 1048.81 L3479.36 1037.30 L3488.64 1025.67 L3497.92 1013.67 L3507.20 1001.42 L3516.48 988.92 L3525.89 976.17 L3535.17 963.05 L3544.45 949.69 L3553.73 936.07 L3563.01 922.09 L3572.41 907.98 L3581.70 893.50 L3590.98 878.78 L3600.26 863.80 L3609.54 848.58 L3618.95 833.11 L3628.23 817.39 L3637.51 801.43 L3646.79 785.34 L3656.07 768.88 L3665.47 752.30 L3674.76 735.47 L3684.04 718.51 L3693.32 701.31 L3702.60 683.86 L3712.01 666.29 L3721.29 648.47 L3730.57 630.53 L3739.85 612.33 L3749.13 594.02 L3758.53 575.58 L3767.82 557.02 L3777.10 538.33 L3786.38 519.39 L3795.66 500.46 L3795.66 164.22 L3786.38 186.13 L3777.10 208.03 L3767.82 229.81 L3758.53 251.34 L3749.13 272.75 L3739.85 293.92 L3730.57 314.95 L3721.29 335.87 L3712.01 356.53 L3702.60 376.95 L3693.32 397.13 L3684.04 417.17 L3674.76 436.85 L3665.47 456.40 L3656.07 475.71 L3646.79 494.77 L3637.51 513.58 L3628.23 532.02 L3618.95 550.33 L3609.54 568.28 L3600.26 585.97 L3590.98 603.30 L3581.70 620.38 L3572.41 637.21 L3563.01 653.79 L3553.73 669.88 L3544.45 685.84 L3535.17 701.31 L3525.89 716.66 L3516.48 731.51 L3507.20 746.11 L3497.92 760.34 L3488.64 774.33 L3479.36 787.94 L3469.95 801.31 L3460.67 814.30 L3451.39 827.05 L3442.11 839.55 L3432.82 851.80 L3423.42 863.68 L3414.14 875.43 L3404.86 886.82 L3395.58 898.08 L3386.30 908.97 L3376.89 919.74 L3367.61 930.13 L3358.33 940.41 L3349.05 950.43 L3339.76 960.21 L3330.36 969.86 L3321.08 979.14 L3311.80 988.42 L3302.52 997.33 L3293.24 1006.12 L3283.83 1014.78 L3274.55 1023.20 L3265.27 1031.36 L3255.99 1039.41 L3246.70 1047.33 L3237.30 1055.13 L3228.02 1062.67 L3218.74 1070.10 L3209.46 1077.28 L3200.18 1084.46 L3190.77 1091.39 L3181.49 1098.19 L3172.21 1104.87 L3162.93 1111.43 L3153.64 1117.87 L3144.24 1124.18 L3134.96 1130.37 L3125.68 1136.43 L3116.40 1142.37 L3107.11 1148.31 L3097.71 1154.00 L3088.43 1159.70 L3079.15 1165.27 L3069.87 1170.71 L3060.59 1176.16 L3051.18 1181.35 L3041.90 1186.68 L3032.62 1191.75 L3023.34 1196.82 L3014.05 1201.90 L3004.65 1206.85 L2995.37 1211.80 L2986.09 1216.62 L2976.81 1221.45 L2967.53 1226.15 L2958.12 1230.86 L2948.84 1235.43 L2939.56 1240.01 L2930.28 1244.59 L2920.99 1249.05 L2911.59 1253.38 L2902.31 1257.83 L2893.03 1262.04 L2883.75 1266.37 L2874.47 1270.58 L2865.06 1274.66 L2855.78 1278.75 L2846.50 1282.83 L2837.22 1286.79 L2827.93 1290.75 L2818.53 1294.71 L2809.25 1298.55 L2799.97 1302.39 L2790.69 1306.10 L2781.41 1309.81 L2772.00 1313.40 L2762.72 1316.99 L2753.44 1320.58 L2744.16 1324.04 L2734.88 1327.51 L2725.47 1330.97 L2716.19 1334.31 L2706.91 1337.53 L2697.63 1340.87 L2688.34 1344.09 L2678.94 1347.18 L2669.66 1350.40 L2660.38 1353.50 L2651.10 1356.47 L2641.82 1359.44 L2632.41 1362.41 L2623.13 1365.25 L2613.85 1368.10 L2604.57 1370.95 L2595.28 1373.67 L2585.88 1376.39 L2576.60 1379.11 L2567.32 1381.71 L2558.04 1384.31 L2548.76 1386.79 L2539.35 1389.38 L2530.07 1391.74 L2520.79 1394.21 L2511.51 1396.56 L2502.22 1398.91 L2492.82 1401.14 L2483.54 1403.37 L2474.26 1405.60 L2464.98 1407.70 L2455.70 1409.93 L2446.29 1411.91 L2437.01 1414.01 L2427.73 1415.99 L2418.45 1417.97 L2409.16 1419.83 L2399.76 1421.68 L2390.48 1423.54 L2381.20 1425.40 L2371.92 1427.13 L2362.64 1428.86 L2353.23 1430.47 L2343.95 1432.20 L2334.67 1433.69 L2325.39 1435.30 L2316.11 1436.78 L2306.70 1438.39 L2297.42 1439.75 L2288.14 1441.24 L2278.86 1442.60 L2269.57 1443.96 L2260.17 1445.20 L2250.89 1446.56 L2241.61 1447.80 L2232.33 1448.91 L2223.05 1450.15 L2213.64 1451.26 L2204.36 1452.38 L2195.08 1453.49 L2185.80 1454.48 L2176.51 1455.47 L2167.11 1456.46 L2157.83 1457.45 L2148.55 1458.32 L2139.27 1459.18 L2129.99 1460.05 L2120.58 1460.91 L2111.30 1461.66 L2102.02 1462.52 L2092.74 1463.27 L2083.45 1463.88 L2074.05 1464.63 L2064.77 1465.25 L2055.49 1465.86 L2046.21 1466.48 L2036.92 1467.10 L2027.52 1467.72 L2018.24 1468.22 L2008.96 1468.83 L1999.68 1469.33 L1990.39 1469.82 L1980.99 1470.32 L1971.71 1470.69 L1962.43 1471.19 L1953.15 1471.56 L1943.87 1472.05 L1934.46 1472.42 L1925.18 1472.79 L1915.90 1473.17 L1906.62 1473.54 L1897.34 1473.91 L1887.93 1474.28 L1878.65 1474.65 L1869.37 1475.02 L1860.09 1475.39 L1850.81 1475.76 L1841.40 1476.14 L1832.12 1476.51 L1822.84 1476.88 L1813.56 1477.25 L1804.28 1477.74 L1794.87 1478.12 L1785.59 1478.49 L1776.31 1478.98 L1767.03 1479.48 L1757.74 1479.97 L1748.34 1480.47 L1739.06 1481.09 L1729.78 1481.71 L1720.50 1482.32 L1711.21 1482.94 L1701.81 1483.69 L1692.53 1484.43 L1683.25 1485.29 L1673.97 1486.16 L1664.68 1487.03 L1655.28 1488.02 L1646.00 1489.13 L1636.72 1490.24 L1627.44 1491.36 L1618.15 1492.72 L1608.75 1494.08 L1599.47 1495.57 L1590.19 1497.05 L1580.91 1498.78 L1571.62 1500.52 L1562.22 1502.50 L1552.94 1504.48 L1543.66 1506.58 L1534.38 1508.93 L1525.10 1511.28 L1515.69 1513.88 L1506.41 1516.60 L1497.13 1519.57 L1487.85 1522.67 L1478.57 1525.89 L1469.16 1529.35 L1459.88 1533.06 L1450.60 1536.90 L1441.32 1540.98 L1432.04 1545.31 L1422.63 1549.77 L1413.35 1554.60 L1404.07 1559.67 L1394.79 1564.99 L1385.51 1570.56 L1376.10 1576.50 L1366.82 1582.69 L1357.54 1589.25 L1348.26 1596.05 L1338.97 1603.23 L1329.57 1610.78 L1320.29 1618.70 L1311.01 1626.99 L1301.73 1635.65 L1292.44 1644.69 L1283.04 1654.09 L1273.76 1663.99 L1264.48 1674.27 L1255.20 1685.03 L1245.91 1696.17 L1236.51 1707.80 L1227.23 1719.93 L1217.95 1732.55 L1208.67 1745.55 L1199.38 1759.04 L1189.98 1773.02 L1180.70 1787.50 L1171.42 1802.48 L1162.14 1817.94 L1152.86 1833.91 L1143.45 1850.24 L1134.17 1867.20 L1124.89 1884.52 L1115.61 1902.22 L1106.33 1920.29 L1096.92 1938.73 L1087.64 1957.41 L1078.36 1976.47 L1069.08 1995.65 L1059.80 2014.96 L1050.39 2034.51 L1041.11 2054.07 L1031.83 2073.50 L1022.55 2093.05 L1013.26 2112.35 L1003.86 2131.54 L994.58 2150.47 L985.30 2169.16 L976.02 2187.47 L966.74 2205.29 L957.33 2222.74 L948.05 2239.57 L938.77 2255.91 L929.49 2271.50 L920.21 2286.48 L910.80 2300.71 L901.52 2314.07 L892.24 2326.82 L882.96 2338.70 L873.67 2349.59 L864.27 2359.74 L854.99 2369.14 L845.71 2377.56 L836.43 2385.11 L827.14 2391.91 L817.74 2397.85 L808.46 2403.18 L799.18 2407.63 L789.90 2411.47 L780.62 2414.69 L771.21 2417.41 L761.93 2419.51 L752.65 2421.24 L743.37 2422.61 L734.09 2423.60 L724.68 2424.34 L715.40 2424.96 L706.12 2425.33 L696.84 2425.58 L687.55 2425.70 L678.15 2425.70 L668.87 2425.82 L659.59 2425.82 L650.31 2425.82 L641.02 2425.82 L631.62 2425.82 L622.34 2425.82 L613.06 2425.82 L603.78 2425.82 L594.50 2425.82 L594.50 2425.82 Z" stroke-linejoin="round"/>
	</defs>
	<defs>
		<clipPath id="clipPath_CDbJhIkc">
			<use xlink:href="#path_VOsGHeBP"/>
		</clipPath>
	</defs>
	<use xlink:href="#path_VOsGHeBP" style="stroke:none;fill:#3333FF;fill-opacity:0.25"/>
	<use xlink:href="#path_VOsGHeBP" style="fill:none;stroke:#0000FF;stroke-opacity:0.25;stroke-width:17.28" clip-path="url(#clipPath_CDbJhIkc)"/>
	<path d=" M585.09 2425.95 L594.37 2425.95 L603.65 2425.95 L612.93 2425.95 L622.34 2425.95 L631.62 2425.95 L640.90 2425.95 L650.18 2425.95 L659.46 2425.95 L668.87 2425.95 L678.15 2425.95 L687.43 2425.95 L696.71 2425.82 L705.99 2425.82 L715.40 2425.82 L724.68 2425.70 L733.96 2425.70 L743.24 2425.58 L752.52 2425.33 L761.93 2425.20 L771.21 2424.96 L780.49 2424.59 L789.77 2424.21 L799.05 2423.72 L808.46 2423.22 L817.74 2422.61 L827.02 2421.86 L836.30 2421.12 L845.58 2420.13 L854.99 2419.14 L864.27 2418.03 L873.55 2416.79 L882.83 2415.43 L892.11 2414.07 L901.52 2412.46 L910.80 2410.85 L920.08 2409.12 L929.36 2407.38 L938.64 2405.40 L948.05 2403.42 L957.33 2401.32 L966.61 2399.22 L975.89 2396.99 L985.17 2394.76 L994.58 2392.53 L1003.86 2390.18 L1013.14 2387.83 L1022.42 2385.36 L1031.70 2383.00 L1041.11 2380.53 L1050.39 2378.18 L1059.67 2375.70 L1068.95 2373.35 L1078.23 2370.88 L1087.64 2368.53 L1096.92 2366.17 L1106.20 2363.95 L1115.48 2361.60 L1124.76 2359.37 L1134.17 2357.26 L1143.45 2355.16 L1152.73 2353.06 L1162.01 2351.08 L1171.29 2349.10 L1180.70 2347.24 L1189.98 2345.38 L1199.26 2343.53 L1208.54 2341.92 L1217.82 2340.19 L1227.23 2338.58 L1236.51 2337.09 L1245.79 2335.61 L1255.07 2334.12 L1264.35 2332.76 L1273.76 2331.52 L1283.04 2330.16 L1292.32 2329.05 L1301.60 2327.81 L1310.88 2326.70 L1320.29 2325.71 L1329.57 2324.72 L1338.85 2323.73 L1348.13 2322.74 L1357.41 2321.87 L1366.82 2321.00 L1376.10 2320.26 L1385.38 2319.52 L1394.66 2318.78 L1403.94 2318.16 L1413.35 2317.41 L1422.63 2316.80 L1431.91 2316.30 L1441.19 2315.68 L1450.47 2315.19 L1459.88 2314.69 L1469.16 2314.20 L1478.44 2313.70 L1487.72 2313.33 L1497.00 2312.96 L1506.41 2312.59 L1515.69 2312.22 L1524.97 2311.85 L1534.25 2311.60 L1543.53 2311.23 L1552.94 2310.98 L1562.22 2310.73 L1571.50 2310.48 L1580.78 2310.24 L1590.06 2309.99 L1599.47 2309.87 L1608.75 2309.62 L1618.03 2309.49 L1627.31 2309.25 L1636.59 2309.12 L1646.00 2309.00 L1655.28 2308.88 L1664.56 2308.75 L1673.84 2308.63 L1683.25 2308.50 L1692.53 2308.38 L1701.81 2308.26 L1711.09 2308.26 L1720.37 2308.13 L1729.78 2308.01 L1739.06 2308.01 L1748.34 2307.89 L1757.62 2307.76 L1766.90 2307.76 L1776.31 2307.64 L1785.59 2307.64 L1794.87 2307.51 L1804.15 2307.51 L1813.43 2307.51 L1822.84 2307.39 L1832.12 2307.39 L1841.40 2307.27 L1850.68 2307.27 L1859.96 2307.27 L1869.37 2307.14 L1878.65 2307.14 L1887.93 2307.02 L1897.21 2307.02 L1906.49 2307.02 L1915.90 2306.90 L1925.18 2306.90 L1934.46 2306.77 L1943.74 2306.77 L1953.02 2306.77 L1962.43 2306.65 L1971.71 2306.65 L1980.99 2306.52 L1990.27 2306.52 L1999.55 2306.40 L2008.96 2306.40 L2018.24 2306.28 L2027.52 2306.28 L2036.80 2306.15 L2046.08 2306.03 L2055.49 2306.03 L2064.77 2305.91 L2074.05 2305.78 L2083.33 2305.78 L2092.61 2305.66 L2102.02 2305.53 L2111.30 2305.41 L2120.58 2305.29 L2129.86 2305.16 L2139.14 2305.16 L2148.55 2305.04 L2157.83 2304.92 L2167.11 2304.79 L2176.39 2304.67 L2185.67 2304.54 L2195.08 2304.30 L2204.36 2304.17 L2213.64 2304.05 L2222.92 2303.93 L2232.20 2303.80 L2241.61 2303.68 L2250.89 2303.43 L2260.17 2303.31 L2269.45 2303.06 L2278.73 2302.94 L2288.14 2302.81 L2297.42 2302.56 L2306.70 2302.44 L2315.98 2302.19 L2325.26 2301.95 L2334.67 2301.82 L2343.95 2301.57 L2353.23 2301.33 L2362.51 2301.20 L2371.79 2300.96 L2381.20 2300.71 L2390.48 2300.46 L2399.76 2300.21 L2409.04 2299.97 L2418.32 2299.72 L2427.73 2299.47 L2437.01 2299.22 L2446.29 2298.98 L2455.57 2298.73 L2464.85 2298.36 L2474.26 2298.11 L2483.54 2297.86 L2492.82 2297.49 L2502.10 2297.24 L2511.38 2297.00 L2520.79 2296.62 L2530.07 2296.38 L2539.35 2296.01 L2548.63 2295.63 L2557.91 2295.39 L2567.32 2295.02 L2576.60 2294.64 L2585.88 2294.27 L2595.16 2293.90 L2604.44 2293.53 L2613.85 2293.28 L2623.13 2292.91 L2632.41 2292.42 L2641.69 2292.05 L2650.97 2291.67 L2660.38 2291.30 L2669.66 2290.93 L2678.94 2290.44 L2688.22 2290.07 L2697.50 2289.69 L2706.91 2289.20 L2716.19 2288.83 L2725.47 2288.33 L2734.75 2287.96 L2744.03 2287.47 L2753.44 2286.97 L2762.72 2286.48 L2772.00 2286.11 L2781.28 2285.61 L2790.56 2285.12 L2799.97 2284.62 L2809.25 2284.13 L2818.53 2283.63 L2827.81 2283.14 L2837.09 2282.52 L2846.50 2282.02 L2855.78 2281.53 L2865.06 2280.91 L2874.34 2280.41 L2883.62 2279.92 L2893.03 2279.30 L2902.31 2278.68 L2911.59 2278.18 L2920.87 2277.57 L2930.15 2276.95 L2939.56 2276.33 L2948.84 2275.83 L2958.12 2275.21 L2967.40 2274.60 L2976.68 2273.98 L2986.09 2273.23 L2995.37 2272.62 L3004.65 2272.00 L3013.93 2271.38 L3023.21 2270.64 L3032.62 2270.02 L3041.90 2269.27 L3051.18 2268.66 L3060.46 2267.91 L3069.74 2267.17 L3079.15 2266.55 L3088.43 2265.81 L3097.71 2264.94 L3106.99 2264.20 L3116.27 2263.46 L3125.68 2262.72 L3134.96 2261.85 L3144.24 2260.98 L3153.52 2260.24 L3162.80 2259.37 L3172.21 2258.51 L3181.49 2257.52 L3190.77 2256.65 L3200.05 2255.79 L3209.33 2254.80 L3218.74 2253.81 L3228.02 2252.82 L3237.30 2251.83 L3246.58 2250.84 L3255.86 2249.72 L3265.27 2248.61 L3274.55 2247.49 L3283.83 2246.38 L3293.11 2245.27 L3302.39 2244.03 L3311.80 2242.92 L3321.08 2241.68 L3330.36 2240.32 L3339.64 2239.08 L3348.92 2237.72 L3358.33 2236.36 L3367.61 2234.99 L3376.89 2233.63 L3386.17 2232.15 L3395.45 2230.66 L3404.86 2229.18 L3414.14 2227.57 L3423.42 2225.96 L3432.70 2224.35 L3441.98 2222.74 L3451.39 2221.01 L3460.67 2219.28 L3469.95 2217.55 L3479.23 2215.69 L3488.51 2213.83 L3497.92 2211.98 L3507.20 2210.00 L3516.48 2208.02 L3525.76 2205.91 L3535.04 2203.81 L3544.45 2201.71 L3553.73 2199.48 L3563.01 2197.25 L3572.29 2195.02 L3581.57 2192.67 L3590.98 2190.32 L3600.26 2187.97 L3609.54 2185.49 L3618.82 2183.02 L3628.10 2180.42 L3637.51 2177.82 L3646.79 2175.22 L3656.07 2172.62 L3665.35 2169.90 L3674.63 2167.18 L3684.04 2164.33 L3693.32 2161.61 L3702.60 2158.76 L3711.88 2155.92 L3721.16 2152.95 L3730.57 2149.98 L3739.85 2147.01 L3749.13 2144.04 L3758.41 2140.94 L3767.69 2137.97 L3777.10 2134.88 L3786.38 2131.78 L3795.66 2128.57" stroke-linejoin="round" style="fill:none;stroke:#FF0000;stroke-width:8.64"/>
	<path d=" M585.09 2425.95 L594.37 2425.95 L603.65 2425.95 L612.93 2425.95 L622.34 2425.95 L631.62 2425.95 L640.90 2425.95 L650.18 2425.95 L659.46 2425.95 L668.87 2425.82 L678.15 2425.82 L687.43 2425.70 L696.71 2425.58 L705.99 2425.45 L715.40 2425.08 L724.68 2424.59 L733.96 2423.97 L743.24 2423.10 L752.52 2421.86 L761.93 2420.38 L771.21 2418.40 L780.49 2415.92 L789.77 2413.08 L799.05 2409.61 L808.46 2405.53 L817.74 2400.83 L827.02 2395.38 L836.30 2389.19 L845.58 2382.26 L854.99 2374.59 L864.27 2366.05 L873.55 2356.77 L882.83 2346.74 L892.11 2335.98 L901.52 2324.35 L910.80 2312.09 L920.08 2298.98 L929.36 2285.36 L938.64 2271.01 L948.05 2256.03 L957.33 2240.56 L966.61 2224.60 L975.89 2208.26 L985.17 2191.43 L994.58 2174.36 L1003.86 2156.91 L1013.14 2139.33 L1022.42 2121.51 L1031.70 2103.69 L1041.11 2085.75 L1050.39 2067.80 L1059.67 2049.86 L1068.95 2032.04 L1078.23 2014.47 L1087.64 1997.02 L1096.92 1979.81 L1106.20 1962.86 L1115.48 1946.15 L1124.76 1929.82 L1134.17 1913.98 L1143.45 1898.51 L1152.73 1883.41 L1162.01 1868.68 L1171.29 1854.58 L1180.70 1840.72 L1189.98 1827.47 L1199.26 1814.48 L1208.54 1802.10 L1217.82 1790.10 L1227.23 1778.59 L1236.51 1767.45 L1245.79 1756.69 L1255.07 1746.41 L1264.35 1736.51 L1273.76 1727.11 L1283.04 1717.95 L1292.32 1709.29 L1301.60 1701.00 L1310.88 1692.95 L1320.29 1685.40 L1329.57 1678.10 L1338.85 1671.17 L1348.13 1664.49 L1357.41 1658.30 L1366.82 1652.24 L1376.10 1646.55 L1385.38 1641.10 L1394.66 1635.90 L1403.94 1631.08 L1413.35 1626.37 L1422.63 1621.92 L1431.91 1617.71 L1441.19 1613.75 L1450.47 1610.04 L1459.88 1606.45 L1469.16 1603.11 L1478.44 1599.89 L1487.72 1596.92 L1497.00 1594.07 L1506.41 1591.47 L1515.69 1588.88 L1524.97 1586.52 L1534.25 1584.30 L1543.53 1582.19 L1552.94 1580.21 L1562.22 1578.36 L1571.50 1576.62 L1580.78 1575.02 L1590.06 1573.41 L1599.47 1572.05 L1608.75 1570.68 L1618.03 1569.32 L1627.31 1568.21 L1636.59 1567.10 L1646.00 1565.98 L1655.28 1565.12 L1664.56 1564.13 L1673.84 1563.26 L1683.25 1562.52 L1692.53 1561.77 L1701.81 1561.03 L1711.09 1560.41 L1720.37 1559.79 L1729.78 1559.17 L1739.06 1558.68 L1748.34 1558.18 L1757.62 1557.69 L1766.90 1557.19 L1776.31 1556.70 L1785.59 1556.33 L1794.87 1555.96 L1804.15 1555.59 L1813.43 1555.21 L1822.84 1554.84 L1832.12 1554.47 L1841.40 1554.10 L1850.68 1553.73 L1859.96 1553.48 L1869.37 1553.11 L1878.65 1552.74 L1887.93 1552.49 L1897.21 1552.12 L1906.49 1551.75 L1915.90 1551.38 L1925.18 1551.01 L1934.46 1550.64 L1943.74 1550.26 L1953.02 1549.89 L1962.43 1549.52 L1971.71 1549.15 L1980.99 1548.66 L1990.27 1548.28 L1999.55 1547.79 L2008.96 1547.29 L2018.24 1546.80 L2027.52 1546.30 L2036.80 1545.81 L2046.08 1545.19 L2055.49 1544.70 L2064.77 1544.08 L2074.05 1543.46 L2083.33 1542.84 L2092.61 1542.10 L2102.02 1541.48 L2111.30 1540.74 L2120.58 1539.99 L2129.86 1539.25 L2139.14 1538.38 L2148.55 1537.64 L2157.83 1536.78 L2167.11 1535.91 L2176.39 1535.04 L2185.67 1534.05 L2195.08 1533.06 L2204.36 1532.07 L2213.64 1531.08 L2222.92 1530.09 L2232.20 1528.98 L2241.61 1527.87 L2250.89 1526.75 L2260.17 1525.51 L2269.45 1524.28 L2278.73 1523.04 L2288.14 1521.80 L2297.42 1520.44 L2306.70 1519.08 L2315.98 1517.72 L2325.26 1516.36 L2334.67 1514.87 L2343.95 1513.39 L2353.23 1511.90 L2362.51 1510.42 L2371.79 1508.81 L2381.20 1507.20 L2390.48 1505.47 L2399.76 1503.73 L2409.04 1502.00 L2418.32 1500.27 L2427.73 1498.54 L2437.01 1496.68 L2446.29 1494.82 L2455.57 1492.84 L2464.85 1490.86 L2474.26 1488.88 L2483.54 1486.90 L2492.82 1484.80 L2502.10 1482.70 L2511.38 1480.59 L2520.79 1478.36 L2530.07 1476.14 L2539.35 1473.91 L2548.63 1471.56 L2557.91 1469.21 L2567.32 1466.85 L2576.60 1464.38 L2585.88 1461.90 L2595.16 1459.43 L2604.44 1456.83 L2613.85 1454.23 L2623.13 1451.63 L2632.41 1449.03 L2641.69 1446.31 L2650.97 1443.47 L2660.38 1440.74 L2669.66 1437.90 L2678.94 1435.05 L2688.22 1432.08 L2697.50 1429.11 L2706.91 1426.14 L2716.19 1423.05 L2725.47 1419.95 L2734.75 1416.73 L2744.03 1413.64 L2753.44 1410.30 L2762.72 1407.08 L2772.00 1403.74 L2781.28 1400.40 L2790.56 1396.93 L2799.97 1393.47 L2809.25 1390.00 L2818.53 1386.41 L2827.81 1382.83 L2837.09 1379.24 L2846.50 1375.52 L2855.78 1371.81 L2865.06 1367.98 L2874.34 1364.14 L2883.62 1360.30 L2893.03 1356.34 L2902.31 1352.38 L2911.59 1348.30 L2920.87 1344.34 L2930.15 1340.13 L2939.56 1335.92 L2948.84 1331.72 L2958.12 1327.51 L2967.40 1323.18 L2976.68 1318.84 L2986.09 1314.39 L2995.37 1309.93 L3004.65 1305.36 L3013.93 1300.78 L3023.21 1296.07 L3032.62 1291.50 L3041.90 1286.67 L3051.18 1281.84 L3060.46 1276.89 L3069.74 1271.94 L3079.15 1266.87 L3088.43 1261.79 L3097.71 1256.60 L3106.99 1251.28 L3116.27 1245.83 L3125.68 1240.26 L3134.96 1234.69 L3144.24 1229.00 L3153.52 1223.18 L3162.80 1217.24 L3172.21 1211.18 L3181.49 1204.99 L3190.77 1198.68 L3200.05 1192.24 L3209.33 1185.69 L3218.74 1179.00 L3228.02 1172.07 L3237.30 1165.14 L3246.58 1157.96 L3255.86 1150.66 L3265.27 1143.24 L3274.55 1135.57 L3283.83 1127.77 L3293.11 1119.85 L3302.39 1111.68 L3311.80 1103.39 L3321.08 1094.97 L3330.36 1086.31 L3339.64 1077.40 L3348.92 1068.37 L3358.33 1059.09 L3367.61 1049.56 L3376.89 1039.90 L3386.17 1030.00 L3395.45 1019.86 L3404.86 1009.46 L3414.14 998.94 L3423.42 988.05 L3432.70 977.04 L3441.98 965.65 L3451.39 954.14 L3460.67 942.26 L3469.95 930.26 L3479.23 917.88 L3488.51 905.26 L3497.92 892.27 L3507.20 879.02 L3516.48 865.53 L3525.76 851.80 L3535.04 837.69 L3544.45 823.21 L3553.73 808.48 L3563.01 793.51 L3572.29 778.16 L3581.57 762.57 L3590.98 746.73 L3600.26 730.64 L3609.54 714.18 L3618.82 697.48 L3628.10 680.65 L3637.51 663.44 L3646.79 646.00 L3656.07 628.30 L3665.35 610.48 L3674.63 592.29 L3684.04 573.97 L3693.32 555.41 L3702.60 536.72 L3711.88 517.66 L3721.16 498.48 L3730.57 479.17 L3739.85 459.62 L3749.13 439.94 L3758.41 420.14 L3767.69 400.10 L3777.10 379.92 L3786.38 359.50 L3795.66 339.09" stroke-linejoin="round" style="fill:none;stroke:#0000FF;stroke-width:8.64"/>
	<line x1="521.73" y1="2489.19" x2="521.73" y2="100.86" style="stroke:#000000;stroke-width:5.76"/>
	<line x1="521.73" y1="2425.82" x2="481.76" y2="2425.82" style="stroke:#000000;stroke-width:5.76"/>
	<text x="461.83" y="2460.85" style="font-family:'Helvetica';font-size:99.99px;fill:#000000" text-anchor="end">0.00</text>
	<line x1="521.73" y1="2122.50" x2="481.76" y2="2122.50" style="stroke:#000000;stroke-width:5.76"/>
	<text x="461.83" y="2157.53" style="font-family:'Helvetica';font-size:99.99px;fill:#000000" text-anchor="end">0.25</text>
	<line x1="521.73" y1="1819.06" x2="481.76" y2="1819.06" style="stroke:#000000;stroke-width:5.76"/>
	<text x="461.83" y="1854.09" style="font-family:'Helvetica';font-size:99.99px;fill:#000000" text-anchor="end">0.50</text>
	<line x1="521.73" y1="1515.61" x2="481.76" y2="1515.61" style="stroke:#000000;stroke-width:5.76"/>
	<text x="461.83" y="1550.64" style="font-family:'Helvetica';font-size:99.99px;fill:#000000" text-anchor="end">0.75</text>
	<line x1="521.73" y1="1212.29" x2="481.76" y2="1212.29" style="stroke:#000000;stroke-width:5.76"/>
	<text x="461.83" y="1247.32" style="font-family:'Helvetica';font-size:99.99px;fill:#000000" text-anchor="end">1.00</text>
	<line x1="521.73" y1="908.85" x2="481.76" y2="908.85" style="stroke:#000000;stroke-width:5.76"/>
	<text x="461.83" y="943.88" style="font-family:'Helvetica';font-size:99.99px;fill:#000000" text-anchor="end">1.25</text>
	<line x1="521.73" y1="605.40" x2="481.76" y2="605.40" style="stroke:#000000;stroke-width:5.76"/>
	<text x="461.83" y="640.43" style="font-family:'Helvetica';font-size:99.99px;fill:#000000" text-anchor="end">1.50</text>
	<line x1="521.73" y1="302.08" x2="481.76" y2="302.08" style="stroke:#000000;stroke-width:5.76"/>
	<text x="461.83" y="337.11" style="font-family:'Helvetica';font-size:99.99px;fill:#000000" text-anchor="end">1.75</text>
	<text x="190.71" y="1294.96" style="font-family:'Helvetica';font-size:99.99px;fill:#000000" transform="rotate(-90 190.71,1294.96)" text-anchor="middle">Cumulative mortality (%)</text>
	<line x1="521.73" y1="2489.19" x2="3859.02" y2="2489.19" style="stroke:#000000;stroke-width:5.76"/>
	<line x1="585.09" y1="2489.19" x2="585.09" y2="2509.23" style="stroke:#000000;stroke-width:5.76"/>
	<line x1="873.67" y1="2489.19" x2="873.67" y2="2509.23" style="stroke:#000000;stroke-width:5.76"/>
	<line x1="1152.86" y1="2489.19" x2="1152.86" y2="2509.23" style="stroke:#000000;stroke-width:5.76"/>
	<line x1="1441.32" y1="2489.19" x2="1441.32" y2="2509.23" style="stroke:#000000;stroke-width:5.76"/>
	<line x1="1720.50" y1="2489.19" x2="1720.50" y2="2509.23" style="stroke:#000000;stroke-width:5.76"/>
	<line x1="2008.96" y1="2489.19" x2="2008.96" y2="2509.23" style="stroke:#000000;stroke-width:5.76"/>
	<line x1="2297.42" y1="2489.19" x2="2297.42" y2="2509.23" style="stroke:#000000;stroke-width:5.76"/>
	<line x1="2576.60" y1="2489.19" x2="2576.60" y2="2509.23" style="stroke:#000000;stroke-width:5.76"/>
	<line x1="2865.06" y1="2489.19" x2="2865.06" y2="2509.23" style="stroke:#000000;stroke-width:5.76"/>
	<line x1="3144.24" y1="2489.19" x2="3144.24" y2="2509.23" style="stroke:#000000;stroke-width:5.76"/>
	<line x1="3432.82" y1="2489.19" x2="3432.82" y2="2509.23" style="stroke:#000000;stroke-width:5.76"/>
	<line x1="3721.29" y1="2489.19" x2="3721.29" y2="2509.23" style="stroke:#000000;stroke-width:5.76"/>
	<line x1="585.09" y1="2489.19" x2="585.09" y2="2529.16" style="stroke:#000000;stroke-width:5.76"/>
	<text x="585.09" y="2619.14" style="font-family:'Helvetica';font-size:99.99px;fill:#000000" text-anchor="middle">1 March 20</text>
	<line x1="1441.32" y1="2489.19" x2="1441.32" y2="2529.16" style="stroke:#000000;stroke-width:5.76"/>
	<text x="1441.32" y="2619.14" style="font-family:'Helvetica';font-size:99.99px;fill:#000000" text-anchor="middle">1 June 20</text>
	<line x1="2297.42" y1="2489.19" x2="2297.42" y2="2529.16" style="stroke:#000000;stroke-width:5.76"/>
	<text x="2297.42" y="2619.14" style="font-family:'Helvetica';font-size:99.99px;fill:#000000" text-anchor="middle">1 September 20</text>
	<line x1="3144.24" y1="2489.19" x2="3144.24" y2="2529.16" style="stroke:#000000;stroke-width:5.76"/>
	<text x="3144.24" y="2619.14" style="font-family:'Helvetica';font-size:99.99px;fill:#000000" text-anchor="middle">1 December 20</text>
	<text x="2190.38" y="2729.16" style="font-family:'Helvetica';font-size:99.99px;fill:#000000" text-anchor="middle">Date</text>
	<rect x="556.38" y="135.39" width="1056.21" height="326.34" style="fill:#FFFFFF"/>
	<rect x="559.26" y="138.27" width="1050.45" height="320.58" style="fill:none;stroke:#000000;stroke-width:5.76"/>
	<rect x="599.57" y="178.58" width="374.34" height="99.99" style="fill:#FF3333;fill-opacity:0.25"/>
	<rect x="603.89" y="182.90" width="365.70" height="91.35" style="fill:none;stroke:#FF0000;stroke-opacity:0.25;stroke-width:8.64"/>
	<rect x="599.57" y="318.54" width="374.34" height="99.99" style="fill:#3333FF;fill-opacity:0.25"/>
	<rect x="603.89" y="322.86" width="365.70" height="91.35" style="fill:none;stroke:#0000FF;stroke-opacity:0.25;stroke-width:8.64"/>
	<text x="1033.93" y="263.60" style="font-family:'Helvetica';font-size:99.99px;fill:#000000">Not on LDR</text>
	<text x="1033.93" y="403.57" style="font-family:'Helvetica';font-size:99.99px;fill:#000000">On LDR</text>
</svg>
