<?xml version="1.0" encoding="UTF-8" standalone="no"?>
<!-- This is a Stata 16.1 generated SVG file (http://www.stata.com) -->

<svg version="1.1" width="5.50in" height="4.00in" viewBox="0 0 3960 2880" xmlns="http://www.w3.org/2000/svg" xmlns:xlink="http://www.w3.org/1999/xlink">
	<desc>Stata Graph - Graph</desc>
	<rect x="0" y="0" width="3960" height="2880" style="fill:#EAF2F3;stroke:none"/>
	<rect x="0.00" y="0.00" width="3959.88" height="2880.00" style="fill:#EAF2F3"/>
	<rect x="2.88" y="2.88" width="3954.12" height="2874.24" style="fill:none;stroke:#EAF2F3;stroke-width:5.76"/>
	<rect x="521.73" y="100.86" width="3337.29" height="2388.33" style="fill:#FFFFFF"/>
	<rect x="524.61" y="103.74" width="3331.53" height="2382.57" style="fill:none;stroke:#FFFFFF;stroke-width:5.76"/>
	<line x1="521.73" y1="2425.82" x2="3859.02" y2="2425.82" style="stroke:#EAF2F3;stroke-width:8.64"/>
	<line x1="521.73" y1="2268.04" x2="3859.02" y2="2268.04" style="stroke:#EAF2F3;stroke-width:8.64"/>
	<line x1="521.73" y1="2110.13" x2="3859.02" y2="2110.13" style="stroke:#EAF2F3;stroke-width:8.64"/>
	<line x1="521.73" y1="1952.22" x2="3859.02" y2="1952.22" style="stroke:#EAF2F3;stroke-width:8.64"/>
	<line x1="521.73" y1="1794.43" x2="3859.02" y2="1794.43" style="stroke:#EAF2F3;stroke-width:8.64"/>
	<line x1="521.73" y1="1636.52" x2="3859.02" y2="1636.52" style="stroke:#EAF2F3;stroke-width:8.64"/>
	<line x1="521.73" y1="1478.61" x2="3859.02" y2="1478.61" style="stroke:#EAF2F3;stroke-width:8.64"/>
	<line x1="521.73" y1="1320.83" x2="3859.02" y2="1320.83" style="stroke:#EAF2F3;stroke-width:8.64"/>
	<line x1="521.73" y1="1162.92" x2="3859.02" y2="1162.92" style="stroke:#EAF2F3;stroke-width:8.64"/>
	<defs>
		<path id="path_sSZKXRRA" d="M594.50 2425.82 L594.50 2425.82 L603.78 2425.82 L613.06 2425.82 L622.34 2425.82 L631.62 2425.82 L641.02 2425.82 L650.31 2425.82 L659.59 2425.70 L668.87 2425.58 L678.15 2425.33 L687.55 2425.08 L696.84 2424.83 L706.12 2424.34 L715.40 2423.84 L724.68 2423.22 L734.09 2422.36 L743.37 2421.49 L752.65 2420.50 L761.93 2419.26 L771.21 2417.90 L780.62 2416.42 L789.90 2414.93 L799.18 2413.20 L808.46 2411.34 L817.74 2409.36 L827.14 2407.26 L836.43 2405.03 L845.71 2402.68 L854.99 2400.33 L864.27 2397.85 L873.67 2395.26 L882.96 2392.66 L892.24 2389.93 L901.52 2387.09 L910.80 2384.37 L920.21 2381.52 L929.49 2378.67 L938.77 2375.83 L948.05 2372.86 L957.33 2370.01 L966.74 2367.04 L976.02 2364.19 L985.30 2361.35 L994.58 2358.50 L1003.86 2355.65 L1013.26 2352.81 L1022.55 2350.09 L1031.83 2347.36 L1041.11 2344.76 L1050.39 2342.17 L1059.80 2339.57 L1069.08 2337.09 L1078.36 2334.62 L1087.64 2332.14 L1096.92 2329.91 L1106.33 2327.56 L1115.61 2325.46 L1124.89 2323.23 L1134.17 2321.25 L1143.45 2319.27 L1152.86 2317.29 L1162.14 2315.43 L1171.42 2313.70 L1180.70 2311.97 L1189.98 2310.36 L1199.38 2308.88 L1208.67 2307.39 L1217.95 2305.91 L1227.23 2304.54 L1236.51 2303.31 L1245.91 2302.07 L1255.20 2300.96 L1264.48 2299.84 L1273.76 2298.73 L1283.04 2297.74 L1292.44 2296.87 L1301.73 2296.01 L1311.01 2295.14 L1320.29 2294.27 L1329.57 2293.53 L1338.97 2292.79 L1348.26 2292.17 L1357.54 2291.55 L1366.82 2290.93 L1376.10 2290.31 L1385.51 2289.69 L1394.79 2289.20 L1404.07 2288.70 L1413.35 2288.33 L1422.63 2287.84 L1432.04 2287.47 L1441.32 2286.97 L1450.60 2286.60 L1459.88 2286.23 L1469.16 2285.98 L1478.57 2285.61 L1487.85 2285.24 L1497.13 2284.99 L1506.41 2284.74 L1515.69 2284.50 L1525.10 2284.13 L1534.38 2283.88 L1543.66 2283.75 L1552.94 2283.51 L1562.22 2283.26 L1571.62 2283.01 L1580.91 2282.89 L1590.19 2282.64 L1599.47 2282.39 L1608.75 2282.27 L1618.15 2282.02 L1627.44 2281.90 L1636.72 2281.65 L1646.00 2281.53 L1655.28 2281.28 L1664.68 2281.16 L1673.97 2281.03 L1683.25 2280.78 L1692.53 2280.66 L1701.81 2280.41 L1711.21 2280.29 L1720.50 2280.17 L1729.78 2279.92 L1739.06 2279.79 L1748.34 2279.55 L1757.74 2279.42 L1767.03 2279.17 L1776.31 2279.05 L1785.59 2278.80 L1794.87 2278.68 L1804.28 2278.43 L1813.56 2278.31 L1822.84 2278.06 L1832.12 2277.81 L1841.40 2277.69 L1850.81 2277.44 L1860.09 2277.19 L1869.37 2276.95 L1878.65 2276.82 L1887.93 2276.58 L1897.34 2276.33 L1906.62 2276.08 L1915.90 2275.83 L1925.18 2275.59 L1934.46 2275.21 L1943.87 2274.97 L1953.15 2274.72 L1962.43 2274.47 L1971.71 2274.10 L1980.99 2273.85 L1990.39 2273.61 L1999.68 2273.23 L2008.96 2272.99 L2018.24 2272.62 L2027.52 2272.24 L2036.92 2272.00 L2046.21 2271.63 L2055.49 2271.25 L2064.77 2270.88 L2074.05 2270.51 L2083.45 2270.14 L2092.74 2269.77 L2102.02 2269.40 L2111.30 2269.03 L2120.58 2268.66 L2129.99 2268.16 L2139.27 2267.79 L2148.55 2267.29 L2157.83 2266.92 L2167.11 2266.43 L2176.51 2266.06 L2185.80 2265.56 L2195.08 2265.07 L2204.36 2264.57 L2213.64 2264.08 L2223.05 2263.58 L2232.33 2263.09 L2241.61 2262.59 L2250.89 2262.10 L2260.17 2261.60 L2269.57 2260.98 L2278.86 2260.49 L2288.14 2259.87 L2297.42 2259.37 L2306.70 2258.76 L2316.11 2258.14 L2325.39 2257.52 L2334.67 2257.02 L2343.95 2256.40 L2353.23 2255.79 L2362.64 2255.04 L2371.92 2254.42 L2381.20 2253.81 L2390.48 2253.19 L2399.76 2252.44 L2409.16 2251.83 L2418.45 2251.08 L2427.73 2250.34 L2437.01 2249.72 L2446.29 2248.98 L2455.70 2248.24 L2464.98 2247.49 L2474.26 2246.75 L2483.54 2246.01 L2492.82 2245.14 L2502.22 2244.40 L2511.51 2243.66 L2520.79 2242.79 L2530.07 2241.93 L2539.35 2241.18 L2548.76 2240.32 L2558.04 2239.45 L2567.32 2238.58 L2576.60 2237.72 L2585.88 2236.85 L2595.28 2235.98 L2604.57 2234.99 L2613.85 2234.13 L2623.13 2233.14 L2632.41 2232.27 L2641.82 2231.28 L2651.10 2230.29 L2660.38 2229.30 L2669.66 2228.31 L2678.94 2227.32 L2688.34 2226.33 L2697.63 2225.22 L2706.91 2224.23 L2716.19 2223.11 L2725.47 2222.12 L2734.88 2221.01 L2744.16 2219.90 L2753.44 2218.78 L2762.72 2217.67 L2772.00 2216.56 L2781.41 2215.44 L2790.69 2214.20 L2799.97 2213.09 L2809.25 2211.85 L2818.53 2210.62 L2827.93 2209.50 L2837.22 2208.26 L2846.50 2206.90 L2855.78 2205.67 L2865.06 2204.43 L2874.47 2203.19 L2883.75 2201.83 L2893.03 2200.47 L2902.31 2199.23 L2911.59 2197.87 L2920.99 2196.51 L2930.28 2195.02 L2939.56 2193.66 L2948.84 2192.30 L2958.12 2190.81 L2967.53 2189.45 L2976.81 2187.97 L2986.09 2186.48 L2995.37 2185.00 L3004.65 2183.51 L3014.05 2181.90 L3023.34 2180.42 L3032.62 2178.81 L3041.90 2177.20 L3051.18 2175.72 L3060.59 2174.11 L3069.87 2172.38 L3079.15 2170.77 L3088.43 2169.03 L3097.71 2167.43 L3107.11 2165.69 L3116.40 2163.96 L3125.68 2162.23 L3134.96 2160.50 L3144.24 2158.64 L3153.64 2156.78 L3162.93 2154.93 L3172.21 2153.07 L3181.49 2151.21 L3190.77 2149.36 L3200.18 2147.38 L3209.46 2145.40 L3218.74 2143.42 L3228.02 2141.44 L3237.30 2139.46 L3246.70 2137.35 L3255.99 2135.37 L3265.27 2133.27 L3274.55 2131.04 L3283.83 2128.94 L3293.24 2126.71 L3302.52 2124.48 L3311.80 2122.26 L3321.08 2120.03 L3330.36 2117.68 L3339.76 2115.45 L3349.05 2113.10 L3358.33 2110.62 L3367.61 2108.27 L3376.89 2105.80 L3386.30 2103.32 L3395.58 2100.85 L3404.86 2098.25 L3414.14 2095.65 L3423.42 2093.05 L3432.82 2090.45 L3442.11 2087.73 L3451.39 2085.01 L3460.67 2082.28 L3469.95 2079.56 L3479.36 2076.71 L3488.64 2073.87 L3497.92 2071.02 L3507.20 2068.05 L3516.48 2065.08 L3525.89 2062.11 L3535.17 2059.02 L3544.45 2056.05 L3553.73 2052.95 L3563.01 2049.74 L3572.41 2046.64 L3581.70 2043.42 L3590.98 2040.21 L3600.26 2036.99 L3609.54 2033.65 L3618.95 2030.43 L3628.23 2027.09 L3637.51 2023.62 L3646.79 2020.28 L3656.07 2016.82 L3665.47 2013.35 L3674.76 2009.89 L3684.04 2006.42 L3693.32 2002.83 L3702.60 1999.37 L3712.01 1995.78 L3721.29 1992.07 L3730.57 1988.48 L3739.85 1984.89 L3749.13 1981.18 L3758.53 1977.46 L3767.82 1973.75 L3777.10 1970.04 L3786.38 1966.20 L3795.66 1962.49 L3795.66 1956.80 L3786.38 1960.63 L3777.10 1964.47 L3767.82 1968.31 L3758.53 1972.02 L3749.13 1975.73 L3739.85 1979.44 L3730.57 1983.16 L3721.29 1986.87 L3712.01 1990.46 L3702.60 1994.05 L3693.32 1997.63 L3684.04 2001.22 L3674.76 2004.69 L3665.47 2008.28 L3656.07 2011.74 L3646.79 2015.21 L3637.51 2018.55 L3628.23 2022.01 L3618.95 2025.36 L3609.54 2028.70 L3600.26 2031.91 L3590.98 2035.26 L3581.70 2038.47 L3572.41 2041.69 L3563.01 2044.91 L3553.73 2048.00 L3544.45 2051.10 L3535.17 2054.19 L3525.89 2057.28 L3516.48 2060.25 L3507.20 2063.22 L3497.92 2066.19 L3488.64 2069.04 L3479.36 2071.89 L3469.95 2074.73 L3460.67 2077.58 L3451.39 2080.30 L3442.11 2083.03 L3432.82 2085.75 L3423.42 2088.35 L3414.14 2091.07 L3404.86 2093.67 L3395.58 2096.14 L3386.30 2098.74 L3376.89 2101.22 L3367.61 2103.69 L3358.33 2106.04 L3349.05 2108.52 L3339.76 2110.87 L3330.36 2113.22 L3321.08 2115.57 L3311.80 2117.80 L3302.52 2120.15 L3293.24 2122.38 L3283.83 2124.48 L3274.55 2126.71 L3265.27 2128.81 L3255.99 2131.04 L3246.70 2133.15 L3237.30 2135.13 L3228.02 2137.23 L3218.74 2139.21 L3209.46 2141.19 L3200.18 2143.17 L3190.77 2145.15 L3181.49 2147.13 L3172.21 2148.99 L3162.93 2150.84 L3153.64 2152.70 L3144.24 2154.55 L3134.96 2156.41 L3125.68 2158.14 L3116.40 2160.00 L3107.11 2161.73 L3097.71 2163.47 L3088.43 2165.20 L3079.15 2166.81 L3069.87 2168.54 L3060.59 2170.15 L3051.18 2171.76 L3041.90 2173.37 L3032.62 2174.97 L3023.34 2176.58 L3014.05 2178.19 L3004.65 2179.68 L2995.37 2181.16 L2986.09 2182.65 L2976.81 2184.26 L2967.53 2185.62 L2958.12 2187.10 L2948.84 2188.59 L2939.56 2189.95 L2930.28 2191.43 L2920.99 2192.79 L2911.59 2194.16 L2902.31 2195.52 L2893.03 2196.88 L2883.75 2198.24 L2874.47 2199.48 L2865.06 2200.84 L2855.78 2202.08 L2846.50 2203.44 L2837.22 2204.68 L2827.93 2205.91 L2818.53 2207.15 L2809.25 2208.39 L2799.97 2209.50 L2790.69 2210.74 L2781.41 2211.85 L2772.00 2213.09 L2762.72 2214.20 L2753.44 2215.32 L2744.16 2216.43 L2734.88 2217.55 L2725.47 2218.66 L2716.19 2219.65 L2706.91 2220.76 L2697.63 2221.88 L2688.34 2222.87 L2678.94 2223.86 L2669.66 2224.85 L2660.38 2225.84 L2651.10 2226.83 L2641.82 2227.82 L2632.41 2228.81 L2623.13 2229.80 L2613.85 2230.66 L2604.57 2231.65 L2595.28 2232.52 L2585.88 2233.51 L2576.60 2234.38 L2567.32 2235.24 L2558.04 2236.11 L2548.76 2236.97 L2539.35 2237.84 L2530.07 2238.58 L2520.79 2239.45 L2511.51 2240.32 L2502.22 2241.06 L2492.82 2241.93 L2483.54 2242.67 L2474.26 2243.41 L2464.98 2244.15 L2455.70 2244.90 L2446.29 2245.64 L2437.01 2246.38 L2427.73 2247.12 L2418.45 2247.74 L2409.16 2248.48 L2399.76 2249.23 L2390.48 2249.85 L2381.20 2250.46 L2371.92 2251.21 L2362.64 2251.83 L2353.23 2252.44 L2343.95 2253.06 L2334.67 2253.68 L2325.39 2254.30 L2316.11 2254.92 L2306.70 2255.54 L2297.42 2256.03 L2288.14 2256.65 L2278.86 2257.15 L2269.57 2257.77 L2260.17 2258.26 L2250.89 2258.88 L2241.61 2259.37 L2232.33 2259.87 L2223.05 2260.36 L2213.64 2260.86 L2204.36 2261.35 L2195.08 2261.85 L2185.80 2262.34 L2176.51 2262.72 L2167.11 2263.21 L2157.83 2263.71 L2148.55 2264.08 L2139.27 2264.57 L2129.99 2264.94 L2120.58 2265.31 L2111.30 2265.81 L2102.02 2266.18 L2092.74 2266.55 L2083.45 2266.92 L2074.05 2267.29 L2064.77 2267.67 L2055.49 2268.04 L2046.21 2268.41 L2036.92 2268.78 L2027.52 2269.03 L2018.24 2269.40 L2008.96 2269.65 L1999.68 2270.02 L1990.39 2270.39 L1980.99 2270.64 L1971.71 2270.88 L1962.43 2271.25 L1953.15 2271.50 L1943.87 2271.75 L1934.46 2272.00 L1925.18 2272.24 L1915.90 2272.62 L1906.62 2272.86 L1897.34 2273.11 L1887.93 2273.23 L1878.65 2273.48 L1869.37 2273.73 L1860.09 2273.98 L1850.81 2274.22 L1841.40 2274.47 L1832.12 2274.60 L1822.84 2274.84 L1813.56 2275.09 L1804.28 2275.21 L1794.87 2275.46 L1785.59 2275.59 L1776.31 2275.83 L1767.03 2275.96 L1757.74 2276.20 L1748.34 2276.33 L1739.06 2276.58 L1729.78 2276.70 L1720.50 2276.82 L1711.21 2277.07 L1701.81 2277.19 L1692.53 2277.44 L1683.25 2277.57 L1673.97 2277.69 L1664.68 2277.94 L1655.28 2278.06 L1646.00 2278.31 L1636.72 2278.43 L1627.44 2278.68 L1618.15 2278.80 L1608.75 2279.05 L1599.47 2279.17 L1590.19 2279.42 L1580.91 2279.55 L1571.62 2279.79 L1562.22 2280.04 L1552.94 2280.29 L1543.66 2280.54 L1534.38 2280.66 L1525.10 2280.91 L1515.69 2281.28 L1506.41 2281.53 L1497.13 2281.77 L1487.85 2282.15 L1478.57 2282.39 L1469.16 2282.76 L1459.88 2283.14 L1450.60 2283.51 L1441.32 2283.88 L1432.04 2284.25 L1422.63 2284.62 L1413.35 2285.12 L1404.07 2285.61 L1394.79 2286.11 L1385.51 2286.60 L1376.10 2287.22 L1366.82 2287.84 L1357.54 2288.46 L1348.26 2289.08 L1338.97 2289.82 L1329.57 2290.56 L1320.29 2291.30 L1311.01 2292.05 L1301.73 2292.91 L1292.44 2293.90 L1283.04 2294.89 L1273.76 2295.88 L1264.48 2296.87 L1255.20 2297.99 L1245.91 2299.22 L1236.51 2300.46 L1227.23 2301.82 L1217.95 2303.18 L1208.67 2304.54 L1199.38 2306.15 L1189.98 2307.64 L1180.70 2309.37 L1171.42 2311.10 L1162.14 2312.84 L1152.86 2314.82 L1143.45 2316.67 L1134.17 2318.78 L1124.89 2320.88 L1115.61 2322.98 L1106.33 2325.21 L1096.92 2327.56 L1087.64 2329.91 L1078.36 2332.39 L1069.08 2334.86 L1059.80 2337.34 L1050.39 2339.94 L1041.11 2342.66 L1031.83 2345.38 L1022.55 2348.11 L1013.26 2350.95 L1003.86 2353.80 L994.58 2356.64 L985.30 2359.49 L976.02 2362.46 L966.74 2365.31 L957.33 2368.28 L948.05 2371.25 L938.77 2374.22 L929.49 2377.06 L920.21 2380.03 L910.80 2382.88 L901.52 2385.73 L892.24 2388.57 L882.96 2391.30 L873.67 2394.02 L864.27 2396.62 L854.99 2399.22 L845.71 2401.69 L836.43 2404.04 L827.14 2406.27 L817.74 2408.50 L808.46 2410.48 L799.18 2412.46 L789.90 2414.19 L780.62 2415.92 L771.21 2417.41 L761.93 2418.77 L752.65 2420.01 L743.37 2421.12 L734.09 2422.11 L724.68 2422.98 L715.40 2423.60 L706.12 2424.21 L696.84 2424.71 L687.55 2425.08 L678.15 2425.33 L668.87 2425.58 L659.59 2425.70 L650.31 2425.70 L641.02 2425.82 L631.62 2425.82 L622.34 2425.82 L613.06 2425.82 L603.78 2425.82 L594.50 2425.82 L594.50 2425.82 Z" stroke-linejoin="round"/>
	</defs>
	<defs>
		<clipPath id="clipPath_VYJDNPqx">
			<use xlink:href="#path_sSZKXRRA"/>
		</clipPath>
	</defs>
	<use xlink:href="#path_sSZKXRRA" style="stroke:none;fill:#FF3333;fill-opacity:0.25"/>
	<use xlink:href="#path_sSZKXRRA" style="fill:none;stroke:#FF0000;stroke-opacity:0.25;stroke-width:17.28" clip-path="url(#clipPath_VYJDNPqx)"/>
	<defs>
		<path id="path_zkYuddgQ" d="M594.50 2425.82 L594.50 2425.82 L603.78 2425.82 L613.06 2425.82 L622.34 2425.82 L631.62 2425.82 L641.02 2425.70 L650.31 2425.45 L659.59 2425.08 L668.87 2424.46 L678.15 2423.60 L687.55 2422.48 L696.84 2420.87 L706.12 2418.77 L715.40 2416.17 L724.68 2413.08 L734.09 2409.36 L743.37 2405.03 L752.65 2400.08 L761.93 2394.51 L771.21 2388.20 L780.62 2381.40 L789.90 2373.85 L799.18 2365.68 L808.46 2357.02 L817.74 2347.61 L827.14 2337.83 L836.43 2327.44 L845.71 2316.67 L854.99 2305.41 L864.27 2293.78 L873.67 2281.77 L882.96 2269.40 L892.24 2256.78 L901.52 2244.03 L910.80 2231.03 L920.21 2217.79 L929.49 2204.55 L938.77 2191.19 L948.05 2177.70 L957.33 2164.33 L966.74 2150.97 L976.02 2137.60 L985.30 2124.36 L994.58 2111.12 L1003.86 2098.12 L1013.26 2085.25 L1022.55 2072.51 L1031.83 2060.01 L1041.11 2047.76 L1050.39 2035.75 L1059.80 2023.87 L1069.08 2012.36 L1078.36 2001.10 L1087.64 1990.09 L1096.92 1979.44 L1106.33 1969.05 L1115.61 1958.90 L1124.89 1949.25 L1134.17 1939.72 L1143.45 1930.68 L1152.86 1921.90 L1162.14 1913.48 L1171.42 1905.31 L1180.70 1897.52 L1189.98 1890.09 L1199.38 1883.04 L1208.67 1876.23 L1217.95 1869.80 L1227.23 1863.61 L1236.51 1857.79 L1245.91 1852.22 L1255.20 1846.90 L1264.48 1841.83 L1273.76 1837.13 L1283.04 1832.55 L1292.44 1828.34 L1301.73 1824.26 L1311.01 1820.42 L1320.29 1816.71 L1329.57 1813.24 L1338.97 1809.90 L1348.26 1806.81 L1357.54 1803.84 L1366.82 1801.11 L1376.10 1798.39 L1385.51 1795.92 L1394.79 1793.56 L1404.07 1791.34 L1413.35 1789.23 L1422.63 1787.13 L1432.04 1785.27 L1441.32 1783.42 L1450.60 1781.68 L1459.88 1780.08 L1469.16 1778.47 L1478.57 1776.98 L1487.85 1775.62 L1497.13 1774.26 L1506.41 1773.02 L1515.69 1771.78 L1525.10 1770.55 L1534.38 1769.43 L1543.66 1768.44 L1552.94 1767.33 L1562.22 1766.34 L1571.62 1765.35 L1580.91 1764.48 L1590.19 1763.49 L1599.47 1762.63 L1608.75 1761.76 L1618.15 1760.89 L1627.44 1760.15 L1636.72 1759.28 L1646.00 1758.54 L1655.28 1757.68 L1664.68 1756.93 L1673.97 1756.07 L1683.25 1755.32 L1692.53 1754.58 L1701.81 1753.84 L1711.21 1752.97 L1720.50 1752.23 L1729.78 1751.49 L1739.06 1750.62 L1748.34 1749.88 L1757.74 1749.01 L1767.03 1748.15 L1776.31 1747.40 L1785.59 1746.54 L1794.87 1745.67 L1804.28 1744.81 L1813.56 1743.94 L1822.84 1742.95 L1832.12 1742.08 L1841.40 1741.09 L1850.81 1740.10 L1860.09 1739.11 L1869.37 1738.12 L1878.65 1737.13 L1887.93 1736.02 L1897.34 1734.91 L1906.62 1733.79 L1915.90 1732.68 L1925.18 1731.56 L1934.46 1730.33 L1943.87 1729.09 L1953.15 1727.85 L1962.43 1726.61 L1971.71 1725.38 L1980.99 1724.02 L1990.39 1722.65 L1999.68 1721.29 L2008.96 1719.81 L2018.24 1718.45 L2027.52 1716.96 L2036.92 1715.35 L2046.21 1713.87 L2055.49 1712.26 L2064.77 1710.65 L2074.05 1709.04 L2083.45 1707.31 L2092.74 1705.58 L2102.02 1703.84 L2111.30 1702.11 L2120.58 1700.25 L2129.99 1698.40 L2139.27 1696.54 L2148.55 1694.56 L2157.83 1692.71 L2167.11 1690.60 L2176.51 1688.62 L2185.80 1686.52 L2195.08 1684.41 L2204.36 1682.31 L2213.64 1680.08 L2223.05 1677.85 L2232.33 1675.63 L2241.61 1673.28 L2250.89 1670.92 L2260.17 1668.57 L2269.57 1666.10 L2278.86 1663.62 L2288.14 1661.15 L2297.42 1658.55 L2306.70 1655.95 L2316.11 1653.35 L2325.39 1650.75 L2334.67 1648.03 L2343.95 1645.18 L2353.23 1642.46 L2362.64 1639.61 L2371.92 1636.64 L2381.20 1633.80 L2390.48 1630.83 L2399.76 1627.73 L2409.16 1624.64 L2418.45 1621.55 L2427.73 1618.45 L2437.01 1615.24 L2446.29 1612.02 L2455.70 1608.68 L2464.98 1605.34 L2474.26 1601.99 L2483.54 1598.53 L2492.82 1595.06 L2502.22 1591.47 L2511.51 1587.89 L2520.79 1584.30 L2530.07 1580.58 L2539.35 1576.87 L2548.76 1573.16 L2558.04 1569.32 L2567.32 1565.49 L2576.60 1561.53 L2585.88 1557.57 L2595.28 1553.48 L2604.57 1549.52 L2613.85 1545.31 L2623.13 1541.11 L2632.41 1536.90 L2641.82 1532.69 L2651.10 1528.36 L2660.38 1523.91 L2669.66 1519.45 L2678.94 1514.99 L2688.34 1510.42 L2697.63 1505.84 L2706.91 1501.13 L2716.19 1496.43 L2725.47 1491.61 L2734.88 1486.78 L2744.16 1481.95 L2753.44 1477.00 L2762.72 1471.93 L2772.00 1466.85 L2781.41 1461.78 L2790.69 1456.58 L2799.97 1451.26 L2809.25 1445.94 L2818.53 1440.62 L2827.93 1435.17 L2837.22 1429.73 L2846.50 1424.16 L2855.78 1418.59 L2865.06 1412.90 L2874.47 1407.08 L2883.75 1401.27 L2893.03 1395.45 L2902.31 1389.51 L2911.59 1383.44 L2920.99 1377.38 L2930.28 1371.32 L2939.56 1365.01 L2948.84 1358.82 L2958.12 1352.38 L2967.53 1346.07 L2976.81 1339.51 L2986.09 1332.95 L2995.37 1326.39 L3004.65 1319.71 L3014.05 1312.90 L3023.34 1305.97 L3032.62 1299.17 L3041.90 1292.11 L3051.18 1285.06 L3060.59 1277.88 L3069.87 1270.58 L3079.15 1263.28 L3088.43 1255.98 L3097.71 1248.43 L3107.11 1240.88 L3116.40 1233.21 L3125.68 1225.41 L3134.96 1217.61 L3144.24 1209.69 L3153.64 1201.65 L3162.93 1193.48 L3172.21 1185.31 L3181.49 1177.02 L3190.77 1168.61 L3200.18 1160.07 L3209.46 1151.53 L3218.74 1142.74 L3228.02 1133.96 L3237.30 1125.05 L3246.70 1116.01 L3255.99 1106.85 L3265.27 1097.57 L3274.55 1088.29 L3283.83 1078.76 L3293.24 1069.23 L3302.52 1059.58 L3311.80 1049.68 L3321.08 1039.78 L3330.36 1029.76 L3339.76 1019.48 L3349.05 1009.21 L3358.33 998.82 L3367.61 988.30 L3376.89 977.53 L3386.30 966.77 L3395.58 955.75 L3404.86 944.74 L3414.14 933.48 L3423.42 922.09 L3432.82 910.70 L3442.11 899.07 L3451.39 887.19 L3460.67 875.31 L3469.95 863.18 L3479.36 851.06 L3488.64 838.68 L3497.92 826.18 L3507.20 813.43 L3516.48 800.69 L3525.89 787.69 L3535.17 774.70 L3544.45 761.46 L3553.73 748.09 L3563.01 734.60 L3572.41 720.99 L3581.70 707.25 L3590.98 693.39 L3600.26 679.41 L3609.54 665.30 L3618.95 651.07 L3628.23 636.71 L3637.51 622.23 L3646.79 607.63 L3656.07 592.90 L3665.47 578.05 L3674.76 563.20 L3684.04 548.11 L3693.32 533.01 L3702.60 517.79 L3712.01 502.56 L3721.29 487.10 L3730.57 471.63 L3739.85 456.03 L3749.13 440.32 L3758.53 424.48 L3767.82 408.64 L3777.10 392.79 L3786.38 376.71 L3795.66 360.62 L3795.66 164.22 L3786.38 181.67 L3777.10 199.12 L3767.82 216.45 L3758.53 233.77 L3749.13 250.85 L3739.85 267.93 L3730.57 285.01 L3721.29 301.84 L3712.01 318.67 L3702.60 335.37 L3693.32 351.96 L3684.04 368.42 L3674.76 384.75 L3665.47 400.96 L3656.07 417.17 L3646.79 433.14 L3637.51 448.98 L3628.23 464.82 L3618.95 480.41 L3609.54 496.01 L3600.26 511.35 L3590.98 526.57 L3581.70 541.67 L3572.41 556.64 L3563.01 571.50 L3553.73 586.22 L3544.45 600.83 L3535.17 615.18 L3525.89 629.41 L3516.48 643.52 L3507.20 657.50 L3497.92 671.36 L3488.64 684.98 L3479.36 698.47 L3469.95 711.83 L3460.67 724.95 L3451.39 738.07 L3442.11 750.81 L3432.82 763.56 L3423.42 776.06 L3414.14 788.56 L3404.86 800.69 L3395.58 812.82 L3386.30 824.82 L3376.89 836.58 L3367.61 848.21 L3358.33 859.84 L3349.05 871.23 L3339.76 882.49 L3330.36 893.50 L3321.08 904.52 L3311.80 915.41 L3302.52 926.17 L3293.24 936.69 L3283.83 947.21 L3274.55 957.48 L3265.27 967.76 L3255.99 977.90 L3246.70 987.80 L3237.30 997.70 L3228.02 1007.48 L3218.74 1017.13 L3209.46 1026.66 L3200.18 1036.07 L3190.77 1045.35 L3181.49 1054.51 L3172.21 1063.66 L3162.93 1072.57 L3153.64 1081.49 L3144.24 1090.27 L3134.96 1098.93 L3125.68 1107.47 L3116.40 1116.01 L3107.11 1124.30 L3097.71 1132.60 L3088.43 1140.89 L3079.15 1148.93 L3069.87 1156.97 L3060.59 1164.90 L3051.18 1172.69 L3041.90 1180.49 L3032.62 1188.04 L3023.34 1195.71 L3014.05 1203.14 L3004.65 1210.56 L2995.37 1217.86 L2986.09 1225.16 L2976.81 1232.34 L2967.53 1239.39 L2958.12 1246.45 L2948.84 1253.38 L2939.56 1260.31 L2930.28 1266.99 L2920.99 1273.80 L2911.59 1280.36 L2902.31 1287.04 L2893.03 1293.48 L2883.75 1299.91 L2874.47 1306.22 L2865.06 1312.53 L2855.78 1318.72 L2846.50 1324.91 L2837.22 1330.97 L2827.93 1337.04 L2818.53 1342.98 L2809.25 1348.79 L2799.97 1354.61 L2790.69 1360.43 L2781.41 1366.12 L2772.00 1371.69 L2762.72 1377.26 L2753.44 1382.70 L2744.16 1388.15 L2734.88 1393.47 L2725.47 1398.79 L2716.19 1403.99 L2706.91 1409.19 L2697.63 1414.26 L2688.34 1419.33 L2678.94 1424.28 L2669.66 1429.23 L2660.38 1434.06 L2651.10 1438.89 L2641.82 1443.71 L2632.41 1448.42 L2623.13 1452.99 L2613.85 1457.57 L2604.57 1462.03 L2595.28 1466.48 L2585.88 1470.94 L2576.60 1475.27 L2567.32 1479.60 L2558.04 1483.81 L2548.76 1488.02 L2539.35 1492.10 L2530.07 1496.18 L2520.79 1500.27 L2511.51 1504.23 L2502.22 1508.06 L2492.82 1512.02 L2483.54 1515.74 L2474.26 1519.57 L2464.98 1523.29 L2455.70 1526.88 L2446.29 1530.46 L2437.01 1534.05 L2427.73 1537.52 L2418.45 1540.98 L2409.16 1544.45 L2399.76 1547.79 L2390.48 1551.13 L2381.20 1554.35 L2371.92 1557.57 L2362.64 1560.66 L2353.23 1563.88 L2343.95 1566.85 L2334.67 1569.94 L2325.39 1572.91 L2316.11 1575.76 L2306.70 1578.73 L2297.42 1581.57 L2288.14 1584.30 L2278.86 1587.02 L2269.57 1589.74 L2260.17 1592.46 L2250.89 1595.06 L2241.61 1597.54 L2232.33 1600.14 L2223.05 1602.61 L2213.64 1605.09 L2204.36 1607.44 L2195.08 1609.79 L2185.80 1612.14 L2176.51 1614.37 L2167.11 1616.60 L2157.83 1618.82 L2148.55 1620.93 L2139.27 1623.03 L2129.99 1625.14 L2120.58 1627.12 L2111.30 1629.10 L2102.02 1631.08 L2092.74 1633.06 L2083.45 1634.91 L2074.05 1636.77 L2064.77 1638.50 L2055.49 1640.23 L2046.21 1641.97 L2036.92 1643.70 L2027.52 1645.31 L2018.24 1646.92 L2008.96 1648.53 L1999.68 1650.13 L1990.39 1651.62 L1980.99 1653.10 L1971.71 1654.59 L1962.43 1655.95 L1953.15 1657.31 L1943.87 1658.67 L1934.46 1660.03 L1925.18 1661.40 L1915.90 1662.63 L1906.62 1663.87 L1897.34 1665.11 L1887.93 1666.22 L1878.65 1667.46 L1869.37 1668.57 L1860.09 1669.69 L1850.81 1670.68 L1841.40 1671.79 L1832.12 1672.78 L1822.84 1673.89 L1813.56 1674.88 L1804.28 1675.87 L1794.87 1676.74 L1785.59 1677.73 L1776.31 1678.60 L1767.03 1679.59 L1757.74 1680.45 L1748.34 1681.32 L1739.06 1682.19 L1729.78 1683.05 L1720.50 1683.92 L1711.21 1684.79 L1701.81 1685.65 L1692.53 1686.52 L1683.25 1687.38 L1673.97 1688.25 L1664.68 1689.12 L1655.28 1689.98 L1646.00 1690.85 L1636.72 1691.72 L1627.44 1692.58 L1618.15 1693.45 L1608.75 1694.44 L1599.47 1695.30 L1590.19 1696.29 L1580.91 1697.28 L1571.62 1698.40 L1562.22 1699.39 L1552.94 1700.50 L1543.66 1701.62 L1534.38 1702.85 L1525.10 1704.09 L1515.69 1705.33 L1506.41 1706.69 L1497.13 1708.17 L1487.85 1709.54 L1478.57 1711.14 L1469.16 1712.75 L1459.88 1714.49 L1450.60 1716.22 L1441.32 1718.20 L1432.04 1720.18 L1422.63 1722.28 L1413.35 1724.51 L1404.07 1726.86 L1394.79 1729.34 L1385.51 1731.94 L1376.10 1734.66 L1366.82 1737.50 L1357.54 1740.60 L1348.26 1743.82 L1338.97 1747.28 L1329.57 1750.87 L1320.29 1754.71 L1311.01 1758.79 L1301.73 1763.00 L1292.44 1767.45 L1283.04 1772.16 L1273.76 1777.23 L1264.48 1782.43 L1255.20 1788.00 L1245.91 1793.69 L1236.51 1799.88 L1227.23 1806.31 L1217.95 1812.99 L1208.67 1820.17 L1199.38 1827.60 L1189.98 1835.39 L1180.70 1843.56 L1171.42 1852.10 L1162.14 1861.01 L1152.86 1870.29 L1143.45 1879.94 L1134.17 1889.97 L1124.89 1900.36 L1115.61 1911.13 L1106.33 1922.15 L1096.92 1933.53 L1087.64 1945.29 L1078.36 1957.41 L1069.08 1969.79 L1059.80 1982.54 L1050.39 1995.53 L1041.11 2008.77 L1031.83 2022.26 L1022.55 2036.00 L1013.26 2049.98 L1003.86 2064.09 L994.58 2078.45 L985.30 2092.93 L976.02 2107.53 L966.74 2122.13 L957.33 2136.86 L948.05 2151.71 L938.77 2166.44 L929.49 2181.16 L920.21 2195.76 L910.80 2210.24 L901.52 2224.48 L892.24 2238.58 L882.96 2252.44 L873.67 2266.06 L864.27 2279.30 L854.99 2292.05 L845.71 2304.54 L836.43 2316.42 L827.14 2327.81 L817.74 2338.70 L808.46 2348.97 L799.18 2358.62 L789.90 2367.66 L780.62 2375.95 L771.21 2383.62 L761.93 2390.55 L752.65 2396.86 L743.37 2402.31 L734.09 2407.14 L724.68 2411.34 L715.40 2414.81 L706.12 2417.78 L696.84 2420.13 L687.55 2421.86 L678.15 2423.22 L668.87 2424.21 L659.59 2424.96 L650.31 2425.33 L641.02 2425.58 L631.62 2425.82 L622.34 2425.82 L613.06 2425.82 L603.78 2425.82 L594.50 2425.82 L594.50 2425.82 Z" stroke-linejoin="round"/>
	</defs>
	<defs>
		<clipPath id="clipPath_yDXmAPYS">
			<use xlink:href="#path_zkYuddgQ"/>
		</clipPath>
	</defs>
	<use xlink:href="#path_zkYuddgQ" style="stroke:none;fill:#3333FF;fill-opacity:0.25"/>
	<use xlink:href="#path_zkYuddgQ" style="fill:none;stroke:#0000FF;stroke-opacity:0.25;stroke-width:17.28" clip-path="url(#clipPath_yDXmAPYS)"/>
	<path d=" M585.09 2425.95 L594.37 2425.95 L603.65 2425.95 L612.93 2425.95 L622.34 2425.95 L631.62 2425.95 L640.90 2425.82 L650.18 2425.82 L659.46 2425.70 L668.87 2425.58 L678.15 2425.45 L687.43 2425.20 L696.71 2424.83 L705.99 2424.34 L715.40 2423.84 L724.68 2423.10 L733.96 2422.36 L743.24 2421.37 L752.52 2420.25 L761.93 2419.14 L771.21 2417.78 L780.49 2416.29 L789.77 2414.56 L799.05 2412.83 L808.46 2410.97 L817.74 2408.99 L827.02 2406.89 L836.30 2404.54 L845.58 2402.31 L854.99 2399.83 L864.27 2397.36 L873.55 2394.76 L882.83 2392.04 L892.11 2389.32 L901.52 2386.47 L910.80 2383.75 L920.08 2380.90 L929.36 2377.93 L938.64 2375.08 L948.05 2372.11 L957.33 2369.27 L966.61 2366.30 L975.89 2363.33 L985.17 2360.48 L994.58 2357.63 L1003.86 2354.79 L1013.14 2351.94 L1022.42 2349.22 L1031.70 2346.50 L1041.11 2343.77 L1050.39 2341.18 L1059.67 2338.58 L1068.95 2335.98 L1078.23 2333.50 L1087.64 2331.15 L1096.92 2328.80 L1106.20 2326.45 L1115.48 2324.22 L1124.76 2322.12 L1134.17 2320.01 L1143.45 2318.03 L1152.73 2316.05 L1162.01 2314.20 L1171.29 2312.46 L1180.70 2310.73 L1189.98 2309.12 L1199.26 2307.51 L1208.54 2306.03 L1217.82 2304.54 L1227.23 2303.31 L1236.51 2301.95 L1245.79 2300.71 L1255.07 2299.59 L1264.35 2298.48 L1273.76 2297.37 L1283.04 2296.38 L1292.32 2295.39 L1301.60 2294.52 L1310.88 2293.65 L1320.29 2292.91 L1329.57 2292.05 L1338.85 2291.43 L1348.13 2290.68 L1357.41 2290.07 L1366.82 2289.45 L1376.10 2288.83 L1385.38 2288.21 L1394.66 2287.71 L1403.94 2287.22 L1413.35 2286.72 L1422.63 2286.35 L1431.91 2285.86 L1441.19 2285.49 L1450.47 2285.12 L1459.88 2284.74 L1469.16 2284.37 L1478.44 2284.13 L1487.72 2283.75 L1497.00 2283.51 L1506.41 2283.14 L1515.69 2282.89 L1524.97 2282.64 L1534.25 2282.39 L1543.53 2282.15 L1552.94 2281.90 L1562.22 2281.65 L1571.50 2281.53 L1580.78 2281.28 L1590.06 2281.03 L1599.47 2280.91 L1608.75 2280.66 L1618.03 2280.54 L1627.31 2280.29 L1636.59 2280.17 L1646.00 2279.92 L1655.28 2279.79 L1664.56 2279.67 L1673.84 2279.42 L1683.25 2279.30 L1692.53 2279.05 L1701.81 2278.93 L1711.09 2278.80 L1720.37 2278.56 L1729.78 2278.43 L1739.06 2278.18 L1748.34 2278.06 L1757.62 2277.81 L1766.90 2277.69 L1776.31 2277.44 L1785.59 2277.32 L1794.87 2277.07 L1804.15 2276.95 L1813.43 2276.70 L1822.84 2276.58 L1832.12 2276.33 L1841.40 2276.08 L1850.68 2275.83 L1859.96 2275.71 L1869.37 2275.46 L1878.65 2275.21 L1887.93 2274.97 L1897.21 2274.72 L1906.49 2274.47 L1915.90 2274.22 L1925.18 2273.98 L1934.46 2273.73 L1943.74 2273.48 L1953.02 2273.23 L1962.43 2272.86 L1971.71 2272.62 L1980.99 2272.37 L1990.27 2272.00 L1999.55 2271.75 L2008.96 2271.38 L2018.24 2271.13 L2027.52 2270.76 L2036.80 2270.39 L2046.08 2270.02 L2055.49 2269.77 L2064.77 2269.40 L2074.05 2269.03 L2083.33 2268.66 L2092.61 2268.28 L2102.02 2267.79 L2111.30 2267.42 L2120.58 2267.05 L2129.86 2266.68 L2139.14 2266.18 L2148.55 2265.81 L2157.83 2265.31 L2167.11 2264.94 L2176.39 2264.45 L2185.67 2263.95 L2195.08 2263.58 L2204.36 2263.09 L2213.64 2262.59 L2222.92 2262.10 L2232.20 2261.60 L2241.61 2260.98 L2250.89 2260.49 L2260.17 2259.99 L2269.45 2259.50 L2278.73 2258.88 L2288.14 2258.38 L2297.42 2257.77 L2306.70 2257.15 L2315.98 2256.65 L2325.26 2256.03 L2334.67 2255.41 L2343.95 2254.80 L2353.23 2254.18 L2362.51 2253.56 L2371.79 2252.94 L2381.20 2252.20 L2390.48 2251.58 L2399.76 2250.84 L2409.04 2250.22 L2418.32 2249.47 L2427.73 2248.86 L2437.01 2248.11 L2446.29 2247.37 L2455.57 2246.63 L2464.85 2245.89 L2474.26 2245.14 L2483.54 2244.40 L2492.82 2243.53 L2502.10 2242.79 L2511.38 2242.05 L2520.79 2241.18 L2530.07 2240.32 L2539.35 2239.57 L2548.63 2238.71 L2557.91 2237.84 L2567.32 2236.97 L2576.60 2236.11 L2585.88 2235.24 L2595.16 2234.25 L2604.44 2233.39 L2613.85 2232.52 L2623.13 2231.53 L2632.41 2230.54 L2641.69 2229.67 L2650.97 2228.68 L2660.38 2227.69 L2669.66 2226.70 L2678.94 2225.71 L2688.22 2224.60 L2697.50 2223.61 L2706.91 2222.62 L2716.19 2221.51 L2725.47 2220.39 L2734.75 2219.28 L2744.03 2218.29 L2753.44 2217.17 L2762.72 2216.06 L2772.00 2214.82 L2781.28 2213.71 L2790.56 2212.60 L2799.97 2211.36 L2809.25 2210.12 L2818.53 2209.01 L2827.81 2207.77 L2837.09 2206.53 L2846.50 2205.29 L2855.78 2203.93 L2865.06 2202.70 L2874.34 2201.46 L2883.62 2200.10 L2893.03 2198.73 L2902.31 2197.37 L2911.59 2196.01 L2920.87 2194.65 L2930.15 2193.29 L2939.56 2191.93 L2948.84 2190.44 L2958.12 2189.08 L2967.40 2187.60 L2976.68 2186.11 L2986.09 2184.63 L2995.37 2183.14 L3004.65 2181.66 L3013.93 2180.05 L3023.21 2178.56 L3032.62 2176.95 L3041.90 2175.35 L3051.18 2173.74 L3060.46 2172.13 L3069.74 2170.52 L3079.15 2168.91 L3088.43 2167.18 L3097.71 2165.45 L3106.99 2163.71 L3116.27 2161.98 L3125.68 2160.25 L3134.96 2158.51 L3144.24 2156.66 L3153.52 2154.80 L3162.80 2152.95 L3172.21 2151.09 L3181.49 2149.23 L3190.77 2147.38 L3200.05 2145.40 L3209.33 2143.42 L3218.74 2141.44 L3228.02 2139.46 L3237.30 2137.35 L3246.58 2135.37 L3255.86 2133.27 L3265.27 2131.17 L3274.55 2128.94 L3283.83 2126.83 L3293.11 2124.61 L3302.39 2122.38 L3311.80 2120.15 L3321.08 2117.80 L3330.36 2115.57 L3339.64 2113.22 L3348.92 2110.87 L3358.33 2108.39 L3367.61 2106.04 L3376.89 2103.57 L3386.17 2101.09 L3395.45 2098.62 L3404.86 2096.02 L3414.14 2093.42 L3423.42 2090.82 L3432.70 2088.22 L3441.98 2085.50 L3451.39 2082.78 L3460.67 2080.06 L3469.95 2077.21 L3479.23 2074.36 L3488.51 2071.52 L3497.92 2068.67 L3507.20 2065.70 L3516.48 2062.73 L3525.76 2059.76 L3535.04 2056.67 L3544.45 2053.57 L3553.73 2050.48 L3563.01 2047.38 L3572.29 2044.29 L3581.57 2041.07 L3590.98 2037.85 L3600.26 2034.51 L3609.54 2031.30 L3618.82 2027.95 L3628.10 2024.61 L3637.51 2021.15 L3646.79 2017.81 L3656.07 2014.34 L3665.35 2010.88 L3674.63 2007.41 L3684.04 2003.82 L3693.32 2000.36 L3702.60 1996.77 L3711.88 1993.18 L3721.16 1989.59 L3730.57 1985.88 L3739.85 1982.17 L3749.13 1978.58 L3758.41 1974.86 L3767.69 1971.03 L3777.10 1967.32 L3786.38 1963.48 L3795.66 1959.77" stroke-linejoin="round" style="fill:none;stroke:#FF0000;stroke-width:8.64"/>
	<path d=" M585.09 2425.95 L594.37 2425.95 L603.65 2425.95 L612.93 2425.95 L622.34 2425.95 L631.62 2425.82 L640.90 2425.70 L650.18 2425.45 L659.46 2425.08 L668.87 2424.46 L678.15 2423.47 L687.43 2422.23 L696.71 2420.50 L705.99 2418.40 L715.40 2415.68 L724.68 2412.33 L733.96 2408.37 L743.24 2403.80 L752.52 2398.60 L761.93 2392.66 L771.21 2386.10 L780.49 2378.80 L789.77 2370.88 L799.05 2362.34 L808.46 2353.18 L817.74 2343.40 L827.02 2333.01 L836.30 2322.12 L845.58 2310.73 L854.99 2298.98 L864.27 2286.72 L873.55 2274.10 L882.83 2261.23 L892.11 2247.99 L901.52 2234.62 L910.80 2220.89 L920.08 2207.15 L929.36 2193.17 L938.64 2179.18 L948.05 2165.07 L957.33 2150.97 L966.61 2136.98 L975.89 2123.00 L985.17 2109.01 L994.58 2095.28 L1003.86 2081.54 L1013.14 2068.05 L1022.42 2054.81 L1031.70 2041.69 L1041.11 2028.82 L1050.39 2016.20 L1059.67 2003.70 L1068.95 1991.69 L1078.23 1979.81 L1087.64 1968.31 L1096.92 1957.17 L1106.20 1946.28 L1115.48 1935.63 L1124.76 1925.49 L1134.17 1915.59 L1143.45 1906.06 L1152.73 1896.78 L1162.01 1887.99 L1171.29 1879.45 L1180.70 1871.28 L1189.98 1863.49 L1199.26 1856.06 L1208.54 1848.88 L1217.82 1842.20 L1227.23 1835.76 L1236.51 1829.58 L1245.79 1823.76 L1255.07 1818.19 L1264.35 1812.99 L1273.76 1807.92 L1283.04 1803.22 L1292.32 1798.64 L1301.60 1794.43 L1310.88 1790.35 L1320.29 1786.51 L1329.57 1782.92 L1338.85 1779.46 L1348.13 1776.12 L1357.41 1773.15 L1366.82 1770.18 L1376.10 1767.33 L1385.38 1764.73 L1394.66 1762.26 L1403.94 1759.90 L1413.35 1757.68 L1422.63 1755.57 L1431.91 1753.59 L1441.19 1751.61 L1450.47 1749.88 L1459.88 1748.15 L1469.16 1746.54 L1478.44 1744.93 L1487.72 1743.44 L1497.00 1742.08 L1506.41 1740.72 L1515.69 1739.48 L1524.97 1738.25 L1534.25 1737.01 L1543.53 1735.90 L1552.94 1734.78 L1562.22 1733.79 L1571.50 1732.68 L1580.78 1731.81 L1590.06 1730.82 L1599.47 1729.83 L1608.75 1728.97 L1618.03 1728.10 L1627.31 1727.23 L1636.59 1726.37 L1646.00 1725.50 L1655.28 1724.63 L1664.56 1723.89 L1673.84 1723.03 L1683.25 1722.28 L1692.53 1721.42 L1701.81 1720.55 L1711.09 1719.81 L1720.37 1718.94 L1729.78 1718.20 L1739.06 1717.33 L1748.34 1716.47 L1757.62 1715.60 L1766.90 1714.73 L1776.31 1713.87 L1785.59 1713.00 L1794.87 1712.13 L1804.15 1711.14 L1813.43 1710.28 L1822.84 1709.29 L1832.12 1708.30 L1841.40 1707.31 L1850.68 1706.32 L1859.96 1705.33 L1869.37 1704.21 L1878.65 1703.10 L1887.93 1701.99 L1897.21 1700.87 L1906.49 1699.76 L1915.90 1698.52 L1925.18 1697.41 L1934.46 1696.17 L1943.74 1694.81 L1953.02 1693.57 L1962.43 1692.21 L1971.71 1690.85 L1980.99 1689.49 L1990.27 1688.00 L1999.55 1686.64 L2008.96 1685.16 L2018.24 1683.55 L2027.52 1682.06 L2036.80 1680.45 L2046.08 1678.84 L2055.49 1677.24 L2064.77 1675.50 L2074.05 1673.77 L2083.33 1672.04 L2092.61 1670.31 L2102.02 1668.45 L2111.30 1666.59 L2120.58 1664.61 L2129.86 1662.76 L2139.14 1660.78 L2148.55 1658.67 L2157.83 1656.69 L2167.11 1654.59 L2176.39 1652.49 L2185.67 1650.26 L2195.08 1648.03 L2204.36 1645.80 L2213.64 1643.58 L2222.92 1641.22 L2232.20 1638.87 L2241.61 1636.40 L2250.89 1633.92 L2260.17 1631.45 L2269.45 1628.97 L2278.73 1626.37 L2288.14 1623.65 L2297.42 1621.05 L2306.70 1618.33 L2315.98 1615.61 L2325.26 1612.76 L2334.67 1609.91 L2343.95 1607.07 L2353.23 1604.10 L2362.51 1601.13 L2371.79 1598.16 L2381.20 1595.06 L2390.48 1591.97 L2399.76 1588.75 L2409.04 1585.53 L2418.32 1582.32 L2427.73 1578.98 L2437.01 1575.63 L2446.29 1572.29 L2455.57 1568.83 L2464.85 1565.36 L2474.26 1561.77 L2483.54 1558.18 L2492.82 1554.60 L2502.10 1550.88 L2511.38 1547.17 L2520.79 1543.33 L2530.07 1539.50 L2539.35 1535.54 L2548.63 1531.70 L2557.91 1527.62 L2567.32 1523.66 L2576.60 1519.45 L2585.88 1515.37 L2595.16 1511.16 L2604.44 1506.83 L2613.85 1502.50 L2623.13 1498.16 L2632.41 1493.71 L2641.69 1489.25 L2650.97 1484.68 L2660.38 1480.10 L2669.66 1475.52 L2678.94 1470.81 L2688.22 1465.99 L2697.50 1461.16 L2706.91 1456.34 L2716.19 1451.39 L2725.47 1446.31 L2734.75 1441.36 L2744.03 1436.16 L2753.44 1430.97 L2762.72 1425.77 L2772.00 1420.45 L2781.28 1415.13 L2790.56 1409.68 L2799.97 1404.24 L2809.25 1398.67 L2818.53 1392.97 L2827.81 1387.28 L2837.09 1381.59 L2846.50 1375.77 L2855.78 1369.96 L2865.06 1363.89 L2874.34 1357.95 L2883.62 1351.89 L2893.03 1345.70 L2902.31 1339.51 L2911.59 1333.20 L2920.87 1326.89 L2930.15 1320.45 L2939.56 1313.89 L2948.84 1307.34 L2958.12 1300.78 L2967.40 1294.09 L2976.68 1287.29 L2986.09 1280.36 L2995.37 1273.43 L3004.65 1266.50 L3013.93 1259.32 L3023.21 1252.27 L3032.62 1244.96 L3041.90 1237.66 L3051.18 1230.24 L3060.46 1222.81 L3069.74 1215.14 L3079.15 1207.59 L3088.43 1199.79 L3097.71 1192.00 L3106.99 1184.08 L3116.27 1176.03 L3125.68 1167.87 L3134.96 1159.70 L3144.24 1151.41 L3153.52 1142.99 L3162.80 1134.58 L3172.21 1125.91 L3181.49 1117.25 L3190.77 1108.46 L3200.05 1099.55 L3209.33 1090.52 L3218.74 1081.49 L3228.02 1072.20 L3237.30 1062.92 L3246.58 1053.52 L3255.86 1043.99 L3265.27 1034.21 L3274.55 1024.43 L3283.83 1014.53 L3293.11 1004.63 L3302.39 994.49 L3311.80 984.21 L3321.08 973.82 L3330.36 963.30 L3339.64 952.66 L3348.92 941.89 L3358.33 931.00 L3367.61 919.99 L3376.89 908.72 L3386.17 897.46 L3395.45 886.08 L3404.86 874.44 L3414.14 862.69 L3423.42 850.93 L3432.70 838.93 L3441.98 826.68 L3451.39 814.42 L3460.67 801.93 L3469.95 789.30 L3479.23 776.56 L3488.51 763.69 L3497.92 750.57 L3507.20 737.33 L3516.48 723.96 L3525.76 710.47 L3535.04 696.86 L3544.45 683.00 L3553.73 669.14 L3563.01 655.03 L3572.29 640.80 L3581.57 626.44 L3590.98 611.96 L3600.26 597.36 L3609.54 582.63 L3618.82 567.78 L3628.10 552.81 L3637.51 537.71 L3646.79 522.49 L3656.07 507.14 L3665.35 491.67 L3674.63 476.08 L3684.04 460.36 L3693.32 444.65 L3702.60 428.68 L3711.88 412.72 L3721.16 396.63 L3730.57 380.42 L3739.85 364.21 L3749.13 347.87 L3758.41 331.41 L3767.69 314.83 L3777.10 298.25 L3786.38 281.54 L3795.66 264.71" stroke-linejoin="round" style="fill:none;stroke:#0000FF;stroke-width:8.64"/>
	<line x1="521.73" y1="2489.19" x2="521.73" y2="100.86" style="stroke:#000000;stroke-width:5.76"/>
	<line x1="521.73" y1="2425.82" x2="481.76" y2="2425.82" style="stroke:#000000;stroke-width:5.76"/>
	<text x="461.83" y="2460.85" style="font-family:'Helvetica';font-size:99.99px;fill:#000000" text-anchor="end">0.00</text>
	<line x1="521.73" y1="2268.04" x2="481.76" y2="2268.04" style="stroke:#000000;stroke-width:5.76"/>
	<text x="461.83" y="2303.07" style="font-family:'Helvetica';font-size:99.99px;fill:#000000" text-anchor="end">0.25</text>
	<line x1="521.73" y1="2110.13" x2="481.76" y2="2110.13" style="stroke:#000000;stroke-width:5.76"/>
	<text x="461.83" y="2145.16" style="font-family:'Helvetica';font-size:99.99px;fill:#000000" text-anchor="end">0.50</text>
	<line x1="521.73" y1="1952.22" x2="481.76" y2="1952.22" style="stroke:#000000;stroke-width:5.76"/>
	<text x="461.83" y="1987.25" style="font-family:'Helvetica';font-size:99.99px;fill:#000000" text-anchor="end">0.75</text>
	<line x1="521.73" y1="1794.43" x2="481.76" y2="1794.43" style="stroke:#000000;stroke-width:5.76"/>
	<text x="461.83" y="1829.46" style="font-family:'Helvetica';font-size:99.99px;fill:#000000" text-anchor="end">1.00</text>
	<line x1="521.73" y1="1636.52" x2="481.76" y2="1636.52" style="stroke:#000000;stroke-width:5.76"/>
	<text x="461.83" y="1671.55" style="font-family:'Helvetica';font-size:99.99px;fill:#000000" text-anchor="end">1.25</text>
	<line x1="521.73" y1="1478.61" x2="481.76" y2="1478.61" style="stroke:#000000;stroke-width:5.76"/>
	<text x="461.83" y="1513.64" style="font-family:'Helvetica';font-size:99.99px;fill:#000000" text-anchor="end">1.50</text>
	<line x1="521.73" y1="1320.83" x2="481.76" y2="1320.83" style="stroke:#000000;stroke-width:5.76"/>
	<text x="461.83" y="1355.85" style="font-family:'Helvetica';font-size:99.99px;fill:#000000" text-anchor="end">1.75</text>
	<line x1="521.73" y1="1162.92" x2="481.76" y2="1162.92" style="stroke:#000000;stroke-width:5.76"/>
	<text x="461.83" y="1197.94" style="font-family:'Helvetica';font-size:99.99px;fill:#000000" text-anchor="end">2.00</text>
	<text x="190.71" y="1294.96" style="font-family:'Helvetica';font-size:99.99px;fill:#000000" transform="rotate(-90 190.71,1294.96)" text-anchor="middle">Cumulative mortality or admission (%)</text>
	<line x1="521.73" y1="2489.19" x2="3859.02" y2="2489.19" style="stroke:#000000;stroke-width:5.76"/>
	<line x1="585.09" y1="2489.19" x2="585.09" y2="2509.23" style="stroke:#000000;stroke-width:5.76"/>
	<line x1="873.67" y1="2489.19" x2="873.67" y2="2509.23" style="stroke:#000000;stroke-width:5.76"/>
	<line x1="1152.86" y1="2489.19" x2="1152.86" y2="2509.23" style="stroke:#000000;stroke-width:5.76"/>
	<line x1="1441.32" y1="2489.19" x2="1441.32" y2="2509.23" style="stroke:#000000;stroke-width:5.76"/>
	<line x1="1720.50" y1="2489.19" x2="1720.50" y2="2509.23" style="stroke:#000000;stroke-width:5.76"/>
	<line x1="2008.96" y1="2489.19" x2="2008.96" y2="2509.23" style="stroke:#000000;stroke-width:5.76"/>
	<line x1="2297.42" y1="2489.19" x2="2297.42" y2="2509.23" style="stroke:#000000;stroke-width:5.76"/>
	<line x1="2576.60" y1="2489.19" x2="2576.60" y2="2509.23" style="stroke:#000000;stroke-width:5.76"/>
	<line x1="2865.06" y1="2489.19" x2="2865.06" y2="2509.23" style="stroke:#000000;stroke-width:5.76"/>
	<line x1="3144.24" y1="2489.19" x2="3144.24" y2="2509.23" style="stroke:#000000;stroke-width:5.76"/>
	<line x1="3432.82" y1="2489.19" x2="3432.82" y2="2509.23" style="stroke:#000000;stroke-width:5.76"/>
	<line x1="3721.29" y1="2489.19" x2="3721.29" y2="2509.23" style="stroke:#000000;stroke-width:5.76"/>
	<line x1="585.09" y1="2489.19" x2="585.09" y2="2529.16" style="stroke:#000000;stroke-width:5.76"/>
	<text x="585.09" y="2619.14" style="font-family:'Helvetica';font-size:99.99px;fill:#000000" text-anchor="middle">1 March 20</text>
	<line x1="1441.32" y1="2489.19" x2="1441.32" y2="2529.16" style="stroke:#000000;stroke-width:5.76"/>
	<text x="1441.32" y="2619.14" style="font-family:'Helvetica';font-size:99.99px;fill:#000000" text-anchor="middle">1 June 20</text>
	<line x1="2297.42" y1="2489.19" x2="2297.42" y2="2529.16" style="stroke:#000000;stroke-width:5.76"/>
	<text x="2297.42" y="2619.14" style="font-family:'Helvetica';font-size:99.99px;fill:#000000" text-anchor="middle">1 September 20</text>
	<line x1="3144.24" y1="2489.19" x2="3144.24" y2="2529.16" style="stroke:#000000;stroke-width:5.76"/>
	<text x="3144.24" y="2619.14" style="font-family:'Helvetica';font-size:99.99px;fill:#000000" text-anchor="middle">1 December 20</text>
	<text x="2190.38" y="2729.16" style="font-family:'Helvetica';font-size:99.99px;fill:#000000" text-anchor="middle">Date</text>
	<rect x="556.38" y="135.39" width="1056.21" height="326.34" style="fill:#FFFFFF"/>
	<rect x="559.26" y="138.27" width="1050.45" height="320.58" style="fill:none;stroke:#000000;stroke-width:5.76"/>
	<rect x="599.57" y="178.58" width="374.34" height="99.99" style="fill:#FF3333;fill-opacity:0.25"/>
	<rect x="603.89" y="182.90" width="365.70" height="91.35" style="fill:none;stroke:#FF0000;stroke-opacity:0.25;stroke-width:8.64"/>
	<rect x="599.57" y="318.54" width="374.34" height="99.99" style="fill:#3333FF;fill-opacity:0.25"/>
	<rect x="603.89" y="322.86" width="365.70" height="91.35" style="fill:none;stroke:#0000FF;stroke-opacity:0.25;stroke-width:8.64"/>
	<text x="1033.93" y="263.60" style="font-family:'Helvetica';font-size:99.99px;fill:#000000">Not on LDR</text>
	<text x="1033.93" y="403.57" style="font-family:'Helvetica';font-size:99.99px;fill:#000000">On LDR</text>
</svg>
