<?xml version="1.0" encoding="UTF-8" standalone="no"?>
<!-- This is a Stata 16.1 generated SVG file (http://www.stata.com) -->

<svg version="1.1" width="5.50in" height="4.00in" viewBox="0 0 3960 2880" xmlns="http://www.w3.org/2000/svg" xmlns:xlink="http://www.w3.org/1999/xlink">
	<desc>Stata Graph - Graph</desc>
	<rect x="0" y="0" width="3960" height="2880" style="fill:#EAF2F3;stroke:none"/>
	<rect x="0.00" y="0.00" width="3959.88" height="2880.00" style="fill:#EAF2F3"/>
	<rect x="2.88" y="2.88" width="3954.12" height="2874.24" style="fill:none;stroke:#EAF2F3;stroke-width:5.76"/>
	<rect x="521.73" y="100.86" width="3337.29" height="2388.33" style="fill:#FFFFFF"/>
	<rect x="524.61" y="103.74" width="3331.53" height="2382.57" style="fill:none;stroke:#FFFFFF;stroke-width:5.76"/>
	<line x1="521.73" y1="2425.82" x2="3859.02" y2="2425.82" style="stroke:#EAF2F3;stroke-width:8.64"/>
	<line x1="521.73" y1="2176.09" x2="3859.02" y2="2176.09" style="stroke:#EAF2F3;stroke-width:8.64"/>
	<line x1="521.73" y1="1926.35" x2="3859.02" y2="1926.35" style="stroke:#EAF2F3;stroke-width:8.64"/>
	<line x1="521.73" y1="1676.62" x2="3859.02" y2="1676.62" style="stroke:#EAF2F3;stroke-width:8.64"/>
	<line x1="521.73" y1="1426.88" x2="3859.02" y2="1426.88" style="stroke:#EAF2F3;stroke-width:8.64"/>
	<line x1="521.73" y1="1177.15" x2="3859.02" y2="1177.15" style="stroke:#EAF2F3;stroke-width:8.64"/>
	<line x1="521.73" y1="927.41" x2="3859.02" y2="927.41" style="stroke:#EAF2F3;stroke-width:8.64"/>
	<line x1="521.73" y1="677.55" x2="3859.02" y2="677.55" style="stroke:#EAF2F3;stroke-width:8.64"/>
	<line x1="521.73" y1="427.82" x2="3859.02" y2="427.82" style="stroke:#EAF2F3;stroke-width:8.64"/>
	<defs>
		<path id="path_Afpidywq" d="M595.86 2425.82 L595.86 2425.82 L606.62 2425.82 L617.39 2425.82 L628.03 2425.82 L638.80 2425.70 L649.56 2425.70 L660.33 2425.45 L671.10 2425.20 L681.74 2424.83 L692.50 2424.21 L703.27 2423.60 L714.04 2422.73 L724.68 2421.74 L735.45 2420.50 L746.21 2419.14 L756.98 2417.53 L767.62 2415.68 L778.39 2413.70 L789.15 2411.59 L799.92 2409.24 L810.69 2406.64 L821.33 2404.04 L832.10 2401.20 L842.86 2398.23 L853.63 2395.01 L864.27 2391.79 L875.04 2388.45 L885.80 2384.98 L896.57 2381.40 L907.21 2377.68 L917.98 2373.97 L928.74 2370.13 L939.51 2366.30 L950.28 2362.46 L960.92 2358.50 L971.68 2354.54 L982.45 2350.58 L993.22 2346.62 L1003.86 2342.66 L1014.63 2338.70 L1025.39 2334.74 L1036.16 2330.90 L1046.80 2326.94 L1057.57 2323.11 L1068.33 2319.27 L1079.10 2315.43 L1089.87 2311.72 L1100.51 2308.01 L1111.28 2304.42 L1122.04 2300.83 L1132.81 2297.24 L1143.45 2293.78 L1154.22 2290.31 L1164.98 2286.97 L1175.75 2283.75 L1186.39 2280.54 L1197.16 2277.32 L1207.92 2274.22 L1218.69 2271.25 L1229.46 2268.28 L1240.10 2265.31 L1250.87 2262.47 L1261.63 2259.75 L1272.40 2257.02 L1283.04 2254.42 L1293.81 2251.83 L1304.57 2249.35 L1315.34 2246.88 L1325.98 2244.52 L1336.75 2242.30 L1347.51 2240.07 L1358.28 2237.84 L1369.05 2235.74 L1379.69 2233.76 L1390.45 2231.78 L1401.22 2229.80 L1411.99 2227.94 L1422.63 2226.21 L1433.40 2224.48 L1444.16 2222.74 L1454.93 2221.13 L1465.57 2219.65 L1476.34 2218.04 L1487.10 2216.68 L1497.87 2215.19 L1508.64 2213.83 L1519.28 2212.60 L1530.05 2211.36 L1540.81 2210.12 L1551.58 2209.01 L1562.22 2207.89 L1572.99 2206.78 L1583.75 2205.79 L1594.52 2204.80 L1605.16 2203.93 L1615.93 2203.07 L1626.69 2202.20 L1637.46 2201.46 L1648.23 2200.59 L1658.87 2199.97 L1669.63 2199.23 L1680.40 2198.61 L1691.17 2197.99 L1701.81 2197.37 L1712.58 2196.88 L1723.34 2196.38 L1734.11 2195.89 L1744.75 2195.52 L1755.52 2195.02 L1766.28 2194.65 L1777.05 2194.28 L1787.82 2194.03 L1798.46 2193.66 L1809.22 2193.29 L1819.99 2193.04 L1830.76 2192.79 L1841.40 2192.55 L1852.17 2192.30 L1862.93 2192.05 L1873.70 2191.93 L1884.34 2191.68 L1895.11 2191.43 L1905.87 2191.31 L1916.64 2191.06 L1927.41 2190.94 L1938.05 2190.81 L1948.82 2190.57 L1959.58 2190.44 L1970.35 2190.32 L1980.99 2190.20 L1991.76 2189.95 L2002.52 2189.82 L2013.29 2189.70 L2023.93 2189.58 L2034.70 2189.33 L2045.46 2189.21 L2056.23 2189.08 L2067.00 2188.96 L2077.64 2188.71 L2088.41 2188.59 L2099.17 2188.46 L2109.94 2188.22 L2120.58 2188.09 L2131.35 2187.84 L2142.11 2187.72 L2152.88 2187.47 L2163.52 2187.23 L2174.29 2187.10 L2185.05 2186.85 L2195.82 2186.61 L2206.59 2186.36 L2217.23 2186.11 L2227.99 2185.86 L2238.76 2185.62 L2249.53 2185.37 L2260.17 2185.00 L2270.94 2184.75 L2281.70 2184.50 L2292.47 2184.13 L2303.24 2183.76 L2313.88 2183.51 L2324.64 2183.14 L2335.41 2182.77 L2346.18 2182.40 L2356.82 2182.03 L2367.59 2181.66 L2378.35 2181.29 L2389.12 2180.79 L2399.76 2180.42 L2410.53 2179.92 L2421.29 2179.55 L2432.06 2179.06 L2442.82 2178.56 L2453.47 2178.07 L2464.23 2177.57 L2475.00 2177.08 L2485.77 2176.58 L2496.41 2175.96 L2507.18 2175.47 L2517.94 2174.85 L2528.71 2174.23 L2539.35 2173.61 L2550.12 2172.99 L2560.88 2172.38 L2571.65 2171.76 L2582.41 2171.14 L2593.06 2170.40 L2603.82 2169.78 L2614.59 2169.03 L2625.36 2168.29 L2636.00 2167.55 L2646.76 2166.81 L2657.53 2166.06 L2668.30 2165.32 L2678.94 2164.46 L2689.71 2163.71 L2700.47 2162.85 L2711.24 2161.98 L2722.01 2161.11 L2732.65 2160.25 L2743.41 2159.38 L2754.18 2158.51 L2764.95 2157.52 L2775.59 2156.53 L2786.36 2155.67 L2797.12 2154.68 L2807.89 2153.69 L2818.53 2152.57 L2829.30 2151.58 L2840.06 2150.47 L2850.83 2149.48 L2861.59 2148.37 L2872.24 2147.25 L2883.00 2146.14 L2893.77 2145.03 L2904.54 2143.79 L2915.18 2142.67 L2925.95 2141.44 L2936.71 2140.20 L2947.48 2138.96 L2958.12 2137.72 L2968.89 2136.49 L2979.65 2135.13 L2990.42 2133.76 L3001.18 2132.53 L3011.83 2131.17 L3022.59 2129.80 L3033.36 2128.32 L3044.13 2126.96 L3054.77 2125.47 L3065.53 2123.99 L3076.30 2122.50 L3087.07 2121.02 L3097.71 2119.53 L3108.48 2117.92 L3119.24 2116.31 L3130.01 2114.71 L3140.78 2113.10 L3151.42 2111.49 L3162.18 2109.88 L3172.95 2108.15 L3183.72 2106.41 L3194.36 2104.68 L3205.12 2102.95 L3215.89 2101.22 L3226.66 2099.36 L3237.30 2097.50 L3248.07 2095.65 L3258.83 2093.79 L3269.60 2091.81 L3280.36 2089.96 L3291.01 2087.98 L3301.77 2086.00 L3312.54 2084.02 L3323.31 2081.91 L3333.95 2079.93 L3344.72 2077.83 L3355.48 2075.72 L3366.25 2073.62 L3376.89 2071.39 L3387.66 2069.29 L3398.42 2067.06 L3409.19 2064.83 L3419.95 2062.61 L3430.60 2060.25 L3441.36 2058.03 L3452.13 2055.68 L3462.90 2053.45 L3473.54 2051.10 L3484.30 2048.75 L3495.07 2046.27 L3505.84 2043.92 L3516.48 2041.44 L3527.25 2039.09 L3538.01 2036.62 L3548.78 2034.14 L3559.55 2031.67 L3570.19 2029.07 L3580.95 2026.59 L3591.72 2024.12 L3602.49 2021.52 L3613.13 2018.92 L3623.89 2016.32 L3634.66 2013.85 L3645.43 2011.12 L3656.07 2008.53 L3666.84 2005.93 L3677.60 2003.33 L3688.37 2000.61 L3699.14 1998.01 L3709.78 1995.28 L3720.54 1992.56 L3731.31 1989.96 L3742.08 1987.24 L3752.72 1984.52 L3763.49 1981.79 L3774.25 1979.07 L3785.02 1976.23 L3795.66 1973.50 L3795.66 1966.57 L3785.02 1969.30 L3774.25 1972.14 L3763.49 1974.86 L3752.72 1977.59 L3742.08 1980.43 L3731.31 1983.16 L3720.54 1985.88 L3709.78 1988.60 L3699.14 1991.32 L3688.37 1994.05 L3677.60 1996.77 L3666.84 1999.37 L3656.07 2002.09 L3645.43 2004.69 L3634.66 2007.29 L3623.89 2010.01 L3613.13 2012.61 L3602.49 2015.21 L3591.72 2017.81 L3580.95 2020.28 L3570.19 2022.88 L3559.55 2025.36 L3548.78 2027.95 L3538.01 2030.43 L3527.25 2032.90 L3516.48 2035.38 L3505.84 2037.85 L3495.07 2040.21 L3484.30 2042.68 L3473.54 2045.03 L3462.90 2047.38 L3452.13 2049.74 L3441.36 2052.09 L3430.60 2054.44 L3419.95 2056.67 L3409.19 2058.89 L3398.42 2061.24 L3387.66 2063.35 L3376.89 2065.58 L3366.25 2067.80 L3355.48 2069.91 L3344.72 2072.01 L3333.95 2074.11 L3323.31 2076.22 L3312.54 2078.32 L3301.77 2080.30 L3291.01 2082.28 L3280.36 2084.26 L3269.60 2086.24 L3258.83 2088.22 L3248.07 2090.08 L3237.30 2091.94 L3226.66 2093.79 L3215.89 2095.65 L3205.12 2097.38 L3194.36 2099.11 L3183.72 2100.97 L3172.95 2102.70 L3162.18 2104.31 L3151.42 2106.04 L3140.78 2107.65 L3130.01 2109.26 L3119.24 2110.87 L3108.48 2112.48 L3097.71 2114.09 L3087.07 2115.57 L3076.30 2117.18 L3065.53 2118.67 L3054.77 2120.15 L3044.13 2121.51 L3033.36 2123.00 L3022.59 2124.36 L3011.83 2125.72 L3001.18 2127.21 L2990.42 2128.44 L2979.65 2129.80 L2968.89 2131.17 L2958.12 2132.40 L2947.48 2133.64 L2936.71 2134.88 L2925.95 2136.12 L2915.18 2137.35 L2904.54 2138.59 L2893.77 2139.70 L2883.00 2140.94 L2872.24 2142.06 L2861.59 2143.17 L2850.83 2144.28 L2840.06 2145.27 L2829.30 2146.39 L2818.53 2147.38 L2807.89 2148.37 L2797.12 2149.48 L2786.36 2150.47 L2775.59 2151.34 L2764.95 2152.33 L2754.18 2153.32 L2743.41 2154.18 L2732.65 2155.05 L2722.01 2155.92 L2711.24 2156.91 L2700.47 2157.65 L2689.71 2158.51 L2678.94 2159.38 L2668.30 2160.12 L2657.53 2160.99 L2646.76 2161.73 L2636.00 2162.48 L2625.36 2163.22 L2614.59 2163.96 L2603.82 2164.58 L2593.06 2165.32 L2582.41 2165.94 L2571.65 2166.68 L2560.88 2167.30 L2550.12 2167.92 L2539.35 2168.54 L2528.71 2169.16 L2517.94 2169.78 L2507.18 2170.27 L2496.41 2170.89 L2485.77 2171.39 L2475.00 2172.00 L2464.23 2172.50 L2453.47 2172.99 L2442.82 2173.49 L2432.06 2173.98 L2421.29 2174.48 L2410.53 2174.85 L2399.76 2175.35 L2389.12 2175.72 L2378.35 2176.21 L2367.59 2176.58 L2356.82 2176.95 L2346.18 2177.33 L2335.41 2177.70 L2324.64 2178.07 L2313.88 2178.44 L2303.24 2178.69 L2292.47 2179.06 L2281.70 2179.31 L2270.94 2179.68 L2260.17 2179.92 L2249.53 2180.30 L2238.76 2180.54 L2227.99 2180.79 L2217.23 2181.04 L2206.59 2181.29 L2195.82 2181.53 L2185.05 2181.78 L2174.29 2181.90 L2163.52 2182.15 L2152.88 2182.40 L2142.11 2182.52 L2131.35 2182.77 L2120.58 2182.89 L2109.94 2183.14 L2099.17 2183.27 L2088.41 2183.51 L2077.64 2183.64 L2067.00 2183.76 L2056.23 2184.01 L2045.46 2184.13 L2034.70 2184.26 L2023.93 2184.38 L2013.29 2184.63 L2002.52 2184.75 L1991.76 2184.87 L1980.99 2185.00 L1970.35 2185.25 L1959.58 2185.37 L1948.82 2185.49 L1938.05 2185.62 L1927.41 2185.86 L1916.64 2185.99 L1905.87 2186.24 L1895.11 2186.36 L1884.34 2186.61 L1873.70 2186.73 L1862.93 2186.98 L1852.17 2187.23 L1841.40 2187.47 L1830.76 2187.72 L1819.99 2187.97 L1809.22 2188.34 L1798.46 2188.59 L1787.82 2188.96 L1777.05 2189.33 L1766.28 2189.70 L1755.52 2190.07 L1744.75 2190.44 L1734.11 2190.94 L1723.34 2191.43 L1712.58 2191.93 L1701.81 2192.42 L1691.17 2193.04 L1680.40 2193.66 L1669.63 2194.28 L1658.87 2195.02 L1648.23 2195.76 L1637.46 2196.51 L1626.69 2197.37 L1615.93 2198.12 L1605.16 2199.11 L1594.52 2199.97 L1583.75 2200.96 L1572.99 2202.08 L1562.22 2203.07 L1551.58 2204.18 L1540.81 2205.42 L1530.05 2206.66 L1519.28 2207.89 L1508.64 2209.25 L1497.87 2210.62 L1487.10 2211.98 L1476.34 2213.46 L1465.57 2215.07 L1454.93 2216.56 L1444.16 2218.29 L1433.40 2219.90 L1422.63 2221.75 L1411.99 2223.49 L1401.22 2225.47 L1390.45 2227.32 L1379.69 2229.30 L1369.05 2231.41 L1358.28 2233.51 L1347.51 2235.74 L1336.75 2237.96 L1325.98 2240.32 L1315.34 2242.79 L1304.57 2245.14 L1293.81 2247.74 L1283.04 2250.34 L1272.40 2252.94 L1261.63 2255.66 L1250.87 2258.51 L1240.10 2261.35 L1229.46 2264.32 L1218.69 2267.29 L1207.92 2270.39 L1197.16 2273.48 L1186.39 2276.70 L1175.75 2280.04 L1164.98 2283.38 L1154.22 2286.72 L1143.45 2290.19 L1132.81 2293.78 L1122.04 2297.37 L1111.28 2301.08 L1100.51 2304.67 L1089.87 2308.50 L1079.10 2312.34 L1068.33 2316.18 L1057.57 2320.01 L1046.80 2323.97 L1036.16 2327.93 L1025.39 2332.02 L1014.63 2335.98 L1003.86 2340.06 L993.22 2344.15 L982.45 2348.11 L971.68 2352.19 L960.92 2356.15 L950.28 2360.23 L939.51 2364.19 L928.74 2368.15 L917.98 2371.99 L907.21 2375.83 L896.57 2379.54 L885.80 2383.13 L875.04 2386.72 L864.27 2390.18 L853.63 2393.52 L842.86 2396.74 L832.10 2399.83 L821.33 2402.68 L810.69 2405.53 L799.92 2408.13 L789.15 2410.48 L778.39 2412.83 L767.62 2414.81 L756.98 2416.79 L746.21 2418.40 L735.45 2419.88 L724.68 2421.24 L714.04 2422.36 L703.27 2423.22 L692.50 2423.97 L681.74 2424.59 L671.10 2425.08 L660.33 2425.33 L649.56 2425.58 L638.80 2425.70 L628.03 2425.82 L617.39 2425.82 L606.62 2425.82 L595.86 2425.82 L595.86 2425.82 Z" stroke-linejoin="round"/>
	</defs>
	<defs>
		<clipPath id="clipPath_JIMAcSHt">
			<use xlink:href="#path_Afpidywq"/>
		</clipPath>
	</defs>
	<use xlink:href="#path_Afpidywq" style="stroke:none;fill:#FF3333;fill-opacity:0.25"/>
	<use xlink:href="#path_Afpidywq" style="fill:none;stroke:#FF0000;stroke-opacity:0.25;stroke-width:17.28" clip-path="url(#clipPath_JIMAcSHt)"/>
	<defs>
		<path id="path_gIdawfxz" d="M595.86 2425.82 L595.86 2425.82 L606.62 2425.82 L617.39 2425.82 L628.03 2425.70 L638.80 2425.45 L649.56 2424.96 L660.33 2424.09 L671.10 2422.73 L681.74 2420.87 L692.50 2418.40 L703.27 2415.18 L714.04 2411.10 L724.68 2406.39 L735.45 2400.70 L746.21 2394.14 L756.98 2386.72 L767.62 2378.43 L778.39 2369.27 L789.15 2359.24 L799.92 2348.48 L810.69 2336.84 L821.33 2324.47 L832.10 2311.35 L842.86 2297.61 L853.63 2283.26 L864.27 2268.41 L875.04 2252.94 L885.80 2236.97 L896.57 2220.64 L907.21 2204.06 L917.98 2186.98 L928.74 2169.78 L939.51 2152.20 L950.28 2134.51 L960.92 2116.69 L971.68 2098.74 L982.45 2080.80 L993.22 2062.73 L1003.86 2044.79 L1014.63 2026.84 L1025.39 2008.90 L1036.16 1991.08 L1046.80 1973.50 L1057.57 1955.93 L1068.33 1938.73 L1079.10 1921.53 L1089.87 1904.70 L1100.51 1887.99 L1111.28 1871.53 L1122.04 1855.44 L1132.81 1839.48 L1143.45 1823.88 L1154.22 1808.54 L1164.98 1793.44 L1175.75 1778.59 L1186.39 1764.11 L1197.16 1749.88 L1207.92 1736.02 L1218.69 1722.53 L1229.46 1709.16 L1240.10 1696.17 L1250.87 1683.55 L1261.63 1671.17 L1272.40 1659.17 L1283.04 1647.41 L1293.81 1636.03 L1304.57 1624.89 L1315.34 1614.00 L1325.98 1603.48 L1336.75 1593.21 L1347.51 1583.31 L1358.28 1573.65 L1369.05 1564.25 L1379.69 1555.21 L1390.45 1546.43 L1401.22 1537.89 L1411.99 1529.60 L1422.63 1521.55 L1433.40 1513.88 L1444.16 1506.46 L1454.93 1499.15 L1465.57 1492.22 L1476.34 1485.54 L1487.10 1478.98 L1497.87 1472.79 L1508.64 1466.73 L1519.28 1461.04 L1530.05 1455.47 L1540.81 1450.15 L1551.58 1444.95 L1562.22 1440.12 L1572.99 1435.42 L1583.75 1430.84 L1594.52 1426.63 L1605.16 1422.55 L1615.93 1418.59 L1626.69 1414.88 L1637.46 1411.29 L1648.23 1407.95 L1658.87 1404.73 L1669.63 1401.76 L1680.40 1398.91 L1691.17 1396.19 L1701.81 1393.72 L1712.58 1391.24 L1723.34 1389.01 L1734.11 1387.03 L1744.75 1385.05 L1755.52 1383.20 L1766.28 1381.46 L1777.05 1379.86 L1787.82 1378.37 L1798.46 1376.89 L1809.22 1375.52 L1819.99 1374.29 L1830.76 1373.05 L1841.40 1371.94 L1852.17 1370.95 L1862.93 1369.96 L1873.70 1368.97 L1884.34 1368.10 L1895.11 1367.23 L1905.87 1366.37 L1916.64 1365.62 L1927.41 1364.88 L1938.05 1364.14 L1948.82 1363.40 L1959.58 1362.65 L1970.35 1362.04 L1980.99 1361.29 L1991.76 1360.67 L2002.52 1359.93 L2013.29 1359.31 L2023.93 1358.69 L2034.70 1357.95 L2045.46 1357.33 L2056.23 1356.59 L2067.00 1355.85 L2077.64 1355.23 L2088.41 1354.49 L2099.17 1353.74 L2109.94 1352.88 L2120.58 1352.13 L2131.35 1351.27 L2142.11 1350.53 L2152.88 1349.54 L2163.52 1348.67 L2174.29 1347.80 L2185.05 1346.81 L2195.82 1345.82 L2206.59 1344.71 L2217.23 1343.60 L2227.99 1342.48 L2238.76 1341.37 L2249.53 1340.13 L2260.17 1338.89 L2270.94 1337.66 L2281.70 1336.29 L2292.47 1334.93 L2303.24 1333.57 L2313.88 1332.09 L2324.64 1330.60 L2335.41 1328.99 L2346.18 1327.38 L2356.82 1325.65 L2367.59 1324.04 L2378.35 1322.19 L2389.12 1320.45 L2399.76 1318.47 L2410.53 1316.62 L2421.29 1314.64 L2432.06 1312.53 L2442.82 1310.43 L2453.47 1308.33 L2464.23 1306.10 L2475.00 1303.75 L2485.77 1301.52 L2496.41 1299.04 L2507.18 1296.57 L2517.94 1294.09 L2528.71 1291.50 L2539.35 1288.90 L2550.12 1286.17 L2560.88 1283.33 L2571.65 1280.61 L2582.41 1277.63 L2593.06 1274.66 L2603.82 1271.69 L2614.59 1268.60 L2625.36 1265.38 L2636.00 1262.17 L2646.76 1258.82 L2657.53 1255.48 L2668.30 1252.02 L2678.94 1248.55 L2689.71 1244.96 L2700.47 1241.38 L2711.24 1237.66 L2722.01 1233.83 L2732.65 1229.99 L2743.41 1226.03 L2754.18 1221.95 L2764.95 1217.86 L2775.59 1213.78 L2786.36 1209.57 L2797.12 1205.24 L2807.89 1200.78 L2818.53 1196.33 L2829.30 1191.75 L2840.06 1187.17 L2850.83 1182.47 L2861.59 1177.64 L2872.24 1172.82 L2883.00 1167.87 L2893.77 1162.92 L2904.54 1157.72 L2915.18 1152.64 L2925.95 1147.32 L2936.71 1142.00 L2947.48 1136.56 L2958.12 1130.99 L2968.89 1125.42 L2979.65 1119.72 L2990.42 1113.91 L3001.18 1108.09 L3011.83 1102.15 L3022.59 1096.09 L3033.36 1089.90 L3044.13 1083.71 L3054.77 1077.40 L3065.53 1070.97 L3076.30 1064.41 L3087.07 1057.85 L3097.71 1051.17 L3108.48 1044.36 L3119.24 1037.55 L3130.01 1030.50 L3140.78 1023.44 L3151.42 1016.27 L3162.18 1008.97 L3172.95 1001.66 L3183.72 994.11 L3194.36 986.57 L3205.12 978.89 L3215.89 971.10 L3226.66 963.18 L3237.30 955.26 L3248.07 947.09 L3258.83 938.92 L3269.60 930.63 L3280.36 922.21 L3291.01 913.67 L3301.77 905.01 L3312.54 896.23 L3323.31 887.44 L3333.95 878.40 L3344.72 869.37 L3355.48 860.21 L3366.25 850.93 L3376.89 841.53 L3387.66 832.00 L3398.42 822.47 L3409.19 812.82 L3419.95 803.04 L3430.60 793.26 L3441.36 783.36 L3452.13 773.34 L3462.90 763.19 L3473.54 753.04 L3484.30 742.77 L3495.07 732.50 L3505.84 721.98 L3516.48 711.58 L3527.25 700.94 L3538.01 690.30 L3548.78 679.66 L3559.55 668.89 L3570.19 658.00 L3580.95 647.11 L3591.72 636.09 L3602.49 625.08 L3613.13 614.07 L3623.89 602.93 L3634.66 591.67 L3645.43 580.41 L3656.07 569.14 L3666.84 557.76 L3677.60 546.25 L3688.37 534.86 L3699.14 523.36 L3709.78 511.72 L3720.54 500.21 L3731.31 488.58 L3742.08 476.82 L3752.72 465.19 L3763.49 453.43 L3774.25 441.68 L3785.02 429.80 L3795.66 418.04 L3795.66 164.22 L3785.02 177.46 L3774.25 190.70 L3763.49 203.82 L3752.72 217.06 L3742.08 230.18 L3731.31 243.30 L3720.54 256.29 L3709.78 269.29 L3699.14 282.28 L3688.37 295.15 L3677.60 308.02 L3666.84 320.77 L3656.07 333.52 L3645.43 346.26 L3634.66 358.89 L3623.89 371.39 L3613.13 383.88 L3602.49 396.38 L3591.72 408.76 L3580.95 421.01 L3570.19 433.26 L3559.55 445.51 L3548.78 457.52 L3538.01 469.52 L3527.25 481.53 L3516.48 493.28 L3505.84 505.16 L3495.07 516.80 L3484.30 528.43 L3473.54 539.94 L3462.90 551.32 L3452.13 562.59 L3441.36 573.85 L3430.60 584.98 L3419.95 596.00 L3409.19 607.01 L3398.42 617.78 L3387.66 628.55 L3376.89 639.19 L3366.25 649.71 L3355.48 660.10 L3344.72 670.37 L3333.95 680.52 L3323.31 690.67 L3312.54 700.57 L3301.77 710.35 L3291.01 720.12 L3280.36 729.65 L3269.60 739.18 L3258.83 748.46 L3248.07 757.62 L3237.30 766.78 L3226.66 775.69 L3215.89 784.60 L3205.12 793.39 L3194.36 801.93 L3183.72 810.46 L3172.95 818.88 L3162.18 827.17 L3151.42 835.34 L3140.78 843.38 L3130.01 851.30 L3119.24 859.10 L3108.48 866.90 L3097.71 874.44 L3087.07 881.99 L3076.30 889.42 L3065.53 896.72 L3054.77 903.90 L3044.13 911.08 L3033.36 918.01 L3022.59 924.94 L3011.83 931.74 L3001.18 938.43 L2990.42 944.98 L2979.65 951.42 L2968.89 957.85 L2958.12 964.17 L2947.48 970.35 L2936.71 976.42 L2925.95 982.48 L2915.18 988.42 L2904.54 994.24 L2893.77 999.93 L2883.00 1005.62 L2872.24 1011.19 L2861.59 1016.64 L2850.83 1021.96 L2840.06 1027.28 L2829.30 1032.48 L2818.53 1037.55 L2807.89 1042.63 L2797.12 1047.45 L2786.36 1052.40 L2775.59 1057.11 L2764.95 1061.81 L2754.18 1066.39 L2743.41 1070.84 L2732.65 1075.30 L2722.01 1079.63 L2711.24 1083.96 L2700.47 1088.04 L2689.71 1092.13 L2678.94 1096.21 L2668.30 1100.17 L2657.53 1104.01 L2646.76 1107.84 L2636.00 1111.56 L2625.36 1115.15 L2614.59 1118.73 L2603.82 1122.20 L2593.06 1125.54 L2582.41 1128.88 L2571.65 1132.10 L2560.88 1135.32 L2550.12 1138.41 L2539.35 1141.51 L2528.71 1144.48 L2517.94 1147.32 L2507.18 1150.17 L2496.41 1152.89 L2485.77 1155.61 L2475.00 1158.21 L2464.23 1160.81 L2453.47 1163.29 L2442.82 1165.76 L2432.06 1168.11 L2421.29 1170.34 L2410.53 1172.57 L2399.76 1174.80 L2389.12 1176.90 L2378.35 1179.00 L2367.59 1180.98 L2356.82 1182.84 L2346.18 1184.70 L2335.41 1186.55 L2324.64 1188.28 L2313.88 1190.02 L2303.24 1191.63 L2292.47 1193.23 L2281.70 1194.84 L2270.94 1196.33 L2260.17 1197.69 L2249.53 1199.17 L2238.76 1200.41 L2227.99 1201.77 L2217.23 1203.01 L2206.59 1204.25 L2195.82 1205.36 L2185.05 1206.48 L2174.29 1207.59 L2163.52 1208.70 L2152.88 1209.69 L2142.11 1210.68 L2131.35 1211.67 L2120.58 1212.54 L2109.94 1213.41 L2099.17 1214.27 L2088.41 1215.14 L2077.64 1216.01 L2067.00 1216.75 L2056.23 1217.61 L2045.46 1218.36 L2034.70 1219.10 L2023.93 1219.84 L2013.29 1220.58 L2002.52 1221.33 L1991.76 1222.07 L1980.99 1222.81 L1970.35 1223.55 L1959.58 1224.42 L1948.82 1225.16 L1938.05 1226.03 L1927.41 1226.77 L1916.64 1227.64 L1905.87 1228.50 L1895.11 1229.49 L1884.34 1230.48 L1873.70 1231.47 L1862.93 1232.59 L1852.17 1233.70 L1841.40 1234.82 L1830.76 1236.18 L1819.99 1237.41 L1809.22 1238.90 L1798.46 1240.39 L1787.82 1241.99 L1777.05 1243.73 L1766.28 1245.58 L1755.52 1247.44 L1744.75 1249.54 L1734.11 1251.77 L1723.34 1254.12 L1712.58 1256.60 L1701.81 1259.32 L1691.17 1262.17 L1680.40 1265.14 L1669.63 1268.35 L1658.87 1271.82 L1648.23 1275.41 L1637.46 1279.12 L1626.69 1283.20 L1615.93 1287.41 L1605.16 1291.74 L1594.52 1296.45 L1583.75 1301.27 L1572.99 1306.35 L1562.22 1311.54 L1551.58 1317.11 L1540.81 1322.93 L1530.05 1328.87 L1519.28 1335.18 L1508.64 1341.62 L1497.87 1348.42 L1487.10 1355.48 L1476.34 1362.78 L1465.57 1370.33 L1454.93 1378.12 L1444.16 1386.29 L1433.40 1394.71 L1422.63 1403.37 L1411.99 1412.40 L1401.22 1421.68 L1390.45 1431.34 L1379.69 1441.24 L1369.05 1451.51 L1358.28 1462.03 L1347.51 1472.92 L1336.75 1484.18 L1325.98 1495.69 L1315.34 1507.57 L1304.57 1519.70 L1293.81 1532.32 L1283.04 1545.19 L1272.40 1558.43 L1261.63 1571.92 L1250.87 1585.91 L1240.10 1600.14 L1229.46 1614.74 L1218.69 1629.71 L1207.92 1645.06 L1197.16 1660.65 L1186.39 1676.74 L1175.75 1693.08 L1164.98 1709.78 L1154.22 1726.74 L1143.45 1744.06 L1132.81 1761.76 L1122.04 1779.70 L1111.28 1797.90 L1100.51 1816.46 L1089.87 1835.27 L1079.10 1854.33 L1068.33 1873.63 L1057.57 1893.19 L1046.80 1912.99 L1036.16 1932.91 L1025.39 1952.96 L1014.63 1973.26 L1003.86 1993.55 L993.22 2013.85 L982.45 2034.27 L971.68 2054.56 L960.92 2074.86 L950.28 2095.03 L939.51 2114.95 L928.74 2134.75 L917.98 2154.31 L907.21 2173.49 L896.57 2192.42 L885.80 2210.86 L875.04 2228.81 L864.27 2246.26 L853.63 2263.09 L842.86 2279.42 L832.10 2294.89 L821.33 2309.74 L810.69 2323.73 L799.92 2336.84 L789.15 2349.22 L778.39 2360.48 L767.62 2371.00 L756.98 2380.41 L746.21 2388.82 L735.45 2396.37 L724.68 2402.81 L714.04 2408.37 L703.27 2412.95 L692.50 2416.79 L681.74 2419.76 L671.10 2421.99 L660.33 2423.60 L649.56 2424.59 L638.80 2425.33 L628.03 2425.58 L617.39 2425.82 L606.62 2425.82 L595.86 2425.82 L595.86 2425.82 Z" stroke-linejoin="round"/>
	</defs>
	<defs>
		<clipPath id="clipPath_lkSoTYxV">
			<use xlink:href="#path_gIdawfxz"/>
		</clipPath>
	</defs>
	<use xlink:href="#path_gIdawfxz" style="stroke:none;fill:#3333FF;fill-opacity:0.25"/>
	<use xlink:href="#path_gIdawfxz" style="fill:none;stroke:#0000FF;stroke-opacity:0.25;stroke-width:17.28" clip-path="url(#clipPath_lkSoTYxV)"/>
	<path d=" M585.09 2425.95 L595.86 2425.95 L606.50 2425.95 L617.26 2425.95 L628.03 2425.82 L638.80 2425.82 L649.44 2425.70 L660.21 2425.45 L670.97 2425.20 L681.74 2424.71 L692.50 2424.21 L703.15 2423.47 L713.91 2422.61 L724.68 2421.49 L735.45 2420.25 L746.09 2418.77 L756.86 2417.16 L767.62 2415.30 L778.39 2413.32 L789.03 2411.10 L799.80 2408.75 L810.56 2406.15 L821.33 2403.42 L832.10 2400.58 L842.74 2397.48 L853.50 2394.39 L864.27 2391.05 L875.04 2387.58 L885.68 2384.12 L896.45 2380.53 L907.21 2376.82 L917.98 2372.98 L928.62 2369.27 L939.39 2365.31 L950.15 2361.35 L960.92 2357.39 L971.68 2353.43 L982.33 2349.47 L993.09 2345.51 L1003.86 2341.42 L1014.63 2337.46 L1025.27 2333.50 L1036.04 2329.54 L1046.80 2325.58 L1057.57 2321.62 L1068.21 2317.79 L1078.98 2313.95 L1089.74 2310.24 L1100.51 2306.40 L1111.28 2302.81 L1121.92 2299.10 L1132.68 2295.63 L1143.45 2292.05 L1154.22 2288.70 L1164.86 2285.24 L1175.62 2281.90 L1186.39 2278.68 L1197.16 2275.46 L1207.80 2272.37 L1218.57 2269.27 L1229.33 2266.30 L1240.10 2263.46 L1250.87 2260.61 L1261.51 2257.77 L1272.27 2255.04 L1283.04 2252.44 L1293.81 2249.85 L1304.45 2247.37 L1315.21 2244.90 L1325.98 2242.54 L1336.75 2240.19 L1347.51 2237.96 L1358.16 2235.74 L1368.92 2233.63 L1379.69 2231.65 L1390.45 2229.67 L1401.10 2227.69 L1411.86 2225.84 L1422.63 2223.98 L1433.40 2222.25 L1444.04 2220.64 L1454.81 2218.91 L1465.57 2217.42 L1476.34 2215.81 L1487.10 2214.33 L1497.75 2212.97 L1508.51 2211.61 L1519.28 2210.24 L1530.05 2209.01 L1540.69 2207.89 L1551.45 2206.66 L1562.22 2205.54 L1572.99 2204.55 L1583.63 2203.44 L1594.39 2202.45 L1605.16 2201.58 L1615.93 2200.72 L1626.69 2199.85 L1637.34 2198.98 L1648.10 2198.24 L1658.87 2197.50 L1669.63 2196.88 L1680.28 2196.26 L1691.04 2195.64 L1701.81 2195.02 L1712.58 2194.53 L1723.22 2194.03 L1733.98 2193.54 L1744.75 2193.04 L1755.52 2192.67 L1766.28 2192.30 L1776.93 2191.93 L1787.69 2191.56 L1798.46 2191.19 L1809.22 2190.94 L1819.87 2190.57 L1830.63 2190.32 L1841.40 2190.07 L1852.17 2189.82 L1862.81 2189.58 L1873.58 2189.45 L1884.34 2189.21 L1895.11 2188.96 L1905.87 2188.83 L1916.52 2188.59 L1927.28 2188.46 L1938.05 2188.34 L1948.82 2188.09 L1959.46 2187.97 L1970.22 2187.84 L1980.99 2187.72 L1991.76 2187.47 L2002.40 2187.35 L2013.16 2187.23 L2023.93 2187.10 L2034.70 2186.85 L2045.46 2186.73 L2056.11 2186.61 L2066.87 2186.48 L2077.64 2186.24 L2088.41 2186.11 L2099.05 2185.99 L2109.81 2185.74 L2120.58 2185.62 L2131.35 2185.37 L2141.99 2185.25 L2152.76 2185.00 L2163.52 2184.75 L2174.29 2184.63 L2185.05 2184.38 L2195.70 2184.13 L2206.46 2183.88 L2217.23 2183.64 L2227.99 2183.39 L2238.64 2183.14 L2249.40 2182.89 L2260.17 2182.52 L2270.94 2182.28 L2281.58 2182.03 L2292.34 2181.66 L2303.11 2181.41 L2313.88 2181.04 L2324.64 2180.67 L2335.29 2180.30 L2346.05 2179.92 L2356.82 2179.55 L2367.59 2179.18 L2378.23 2178.81 L2388.99 2178.32 L2399.76 2177.94 L2410.53 2177.45 L2421.17 2177.08 L2431.93 2176.58 L2442.70 2176.09 L2453.47 2175.59 L2464.23 2175.10 L2474.88 2174.60 L2485.64 2174.11 L2496.41 2173.49 L2507.18 2172.99 L2517.82 2172.38 L2528.58 2171.76 L2539.35 2171.14 L2550.12 2170.52 L2560.76 2169.90 L2571.53 2169.28 L2582.29 2168.66 L2593.06 2167.92 L2603.82 2167.30 L2614.47 2166.56 L2625.23 2165.82 L2636.00 2165.07 L2646.76 2164.33 L2657.41 2163.59 L2668.17 2162.85 L2678.94 2161.98 L2689.71 2161.24 L2700.35 2160.37 L2711.11 2159.50 L2721.88 2158.64 L2732.65 2157.77 L2743.41 2156.91 L2754.06 2155.92 L2764.82 2155.05 L2775.59 2154.06 L2786.36 2153.07 L2797.00 2152.08 L2807.76 2151.09 L2818.53 2150.10 L2829.30 2148.99 L2839.94 2148.00 L2850.70 2146.88 L2861.47 2145.77 L2872.24 2144.65 L2883.00 2143.54 L2893.65 2142.43 L2904.41 2141.31 L2915.18 2140.08 L2925.95 2138.84 L2936.59 2137.60 L2947.35 2136.36 L2958.12 2135.13 L2968.89 2133.89 L2979.53 2132.53 L2990.30 2131.29 L3001.06 2129.93 L3011.83 2128.57 L3022.59 2127.08 L3033.24 2125.72 L3044.00 2124.36 L3054.77 2122.87 L3065.53 2121.39 L3076.18 2119.90 L3086.94 2118.42 L3097.71 2116.81 L3108.48 2115.32 L3119.24 2113.72 L3129.89 2112.11 L3140.65 2110.50 L3151.42 2108.89 L3162.18 2107.16 L3172.83 2105.42 L3183.59 2103.69 L3194.36 2101.96 L3205.12 2100.23 L3215.77 2098.49 L3226.53 2096.64 L3237.30 2094.78 L3248.07 2092.93 L3258.83 2091.07 L3269.47 2089.09 L3280.24 2087.23 L3291.01 2085.25 L3301.77 2083.27 L3312.42 2081.17 L3323.18 2079.19 L3333.95 2077.08 L3344.72 2074.98 L3355.36 2072.88 L3366.12 2070.77 L3376.89 2068.55 L3387.66 2066.44 L3398.42 2064.21 L3409.07 2061.99 L3419.83 2059.76 L3430.60 2057.41 L3441.36 2055.18 L3452.01 2052.83 L3462.77 2050.48 L3473.54 2048.13 L3484.30 2045.78 L3494.95 2043.30 L3505.71 2040.95 L3516.48 2038.47 L3527.25 2036.00 L3538.01 2033.52 L3548.66 2031.05 L3559.42 2028.57 L3570.19 2026.10 L3580.95 2023.50 L3591.60 2021.02 L3602.36 2018.43 L3613.13 2015.83 L3623.89 2013.23 L3634.54 2010.63 L3645.30 2008.03 L3656.07 2005.43 L3666.84 2002.71 L3677.60 2000.11 L3688.24 1997.39 L3699.01 1994.66 L3709.78 1992.07 L3720.54 1989.34 L3731.19 1986.62 L3741.95 1983.90 L3752.72 1981.18 L3763.49 1978.45 L3774.13 1975.61 L3784.89 1972.88 L3795.66 1970.16" stroke-linejoin="round" style="fill:none;stroke:#FF0000;stroke-width:8.64"/>
	<path d=" M585.09 2425.95 L595.86 2425.95 L606.50 2425.95 L617.26 2425.82 L628.03 2425.70 L638.80 2425.45 L649.44 2424.83 L660.21 2423.84 L670.97 2422.36 L681.74 2420.38 L692.50 2417.66 L703.15 2414.19 L713.91 2409.86 L724.68 2404.79 L735.45 2398.60 L746.09 2391.67 L756.86 2383.75 L767.62 2374.84 L778.39 2365.18 L789.03 2354.42 L799.80 2342.91 L810.56 2330.53 L821.33 2317.41 L832.10 2303.43 L842.74 2288.83 L853.50 2273.61 L864.27 2257.77 L875.04 2241.31 L885.68 2224.48 L896.45 2207.03 L907.21 2189.33 L917.98 2171.26 L928.62 2152.82 L939.39 2134.26 L950.15 2115.45 L960.92 2096.51 L971.68 2077.46 L982.33 2058.27 L993.09 2039.09 L1003.86 2020.03 L1014.63 2000.85 L1025.27 1981.92 L1036.04 1962.98 L1046.80 1944.30 L1057.57 1925.61 L1068.21 1907.29 L1078.98 1889.10 L1089.74 1871.16 L1100.51 1853.46 L1111.28 1836.01 L1121.92 1818.81 L1132.68 1801.86 L1143.45 1785.27 L1154.22 1768.94 L1164.86 1752.97 L1175.62 1737.26 L1186.39 1721.79 L1197.16 1706.81 L1207.80 1691.96 L1218.57 1677.61 L1229.33 1663.50 L1240.10 1649.76 L1250.87 1636.27 L1261.51 1623.16 L1272.27 1610.41 L1283.04 1597.91 L1293.81 1585.78 L1304.45 1574.03 L1315.21 1562.52 L1325.98 1551.25 L1336.75 1540.49 L1347.51 1529.85 L1358.16 1519.70 L1368.92 1509.67 L1379.69 1500.02 L1390.45 1490.74 L1401.10 1481.71 L1411.86 1472.92 L1422.63 1464.38 L1433.40 1456.21 L1444.04 1448.29 L1454.81 1440.62 L1465.57 1433.19 L1476.34 1426.02 L1487.10 1419.21 L1497.75 1412.53 L1508.51 1406.22 L1519.28 1400.03 L1530.05 1394.21 L1540.69 1388.52 L1551.45 1383.07 L1562.22 1377.88 L1572.99 1372.93 L1583.63 1368.10 L1594.39 1363.52 L1605.16 1359.19 L1615.93 1355.10 L1626.69 1351.14 L1637.34 1347.31 L1648.10 1343.72 L1658.87 1340.38 L1669.63 1337.16 L1680.28 1334.19 L1691.04 1331.34 L1701.81 1328.62 L1712.58 1326.02 L1723.22 1323.67 L1733.98 1321.44 L1744.75 1319.46 L1755.52 1317.48 L1766.28 1315.63 L1776.93 1313.89 L1787.69 1312.29 L1798.46 1310.80 L1809.22 1309.32 L1819.87 1308.08 L1830.63 1306.72 L1841.40 1305.60 L1852.17 1304.49 L1862.81 1303.38 L1873.58 1302.39 L1884.34 1301.40 L1895.11 1300.53 L1905.87 1299.66 L1916.52 1298.80 L1927.28 1298.05 L1938.05 1297.19 L1948.82 1296.45 L1959.46 1295.70 L1970.22 1294.96 L1980.99 1294.22 L1991.76 1293.60 L2002.40 1292.86 L2013.16 1292.11 L2023.93 1291.50 L2034.70 1290.75 L2045.46 1290.01 L2056.11 1289.27 L2066.87 1288.53 L2077.64 1287.78 L2088.41 1287.04 L2099.05 1286.17 L2109.81 1285.43 L2120.58 1284.57 L2131.35 1283.70 L2141.99 1282.71 L2152.76 1281.84 L2163.52 1280.85 L2174.29 1279.86 L2185.05 1278.87 L2195.70 1277.76 L2206.46 1276.64 L2217.23 1275.53 L2227.99 1274.42 L2238.64 1273.18 L2249.40 1271.82 L2260.17 1270.58 L2270.94 1269.22 L2281.58 1267.73 L2292.34 1266.37 L2303.11 1264.76 L2313.88 1263.28 L2324.64 1261.67 L2335.29 1260.06 L2346.05 1258.33 L2356.82 1256.47 L2367.59 1254.74 L2378.23 1252.88 L2388.99 1250.90 L2399.76 1248.92 L2410.53 1246.82 L2421.17 1244.72 L2431.93 1242.61 L2442.70 1240.39 L2453.47 1238.03 L2464.23 1235.68 L2474.88 1233.33 L2485.64 1230.86 L2496.41 1228.26 L2507.18 1225.66 L2517.82 1223.06 L2528.58 1220.34 L2539.35 1217.49 L2550.12 1214.64 L2560.76 1211.67 L2571.53 1208.70 L2582.29 1205.61 L2593.06 1202.52 L2603.82 1199.30 L2614.47 1195.96 L2625.23 1192.62 L2636.00 1189.15 L2646.76 1185.69 L2657.41 1182.10 L2668.17 1178.51 L2678.94 1174.80 L2689.71 1170.96 L2700.35 1167.12 L2711.11 1163.16 L2721.88 1159.08 L2732.65 1154.99 L2743.41 1150.91 L2754.06 1146.58 L2764.82 1142.25 L2775.59 1137.92 L2786.36 1133.34 L2797.00 1128.76 L2807.76 1124.18 L2818.53 1119.48 L2829.30 1114.65 L2839.94 1109.70 L2850.70 1104.75 L2861.47 1099.68 L2872.24 1094.48 L2883.00 1089.28 L2893.65 1083.96 L2904.41 1078.51 L2915.18 1073.07 L2925.95 1067.50 L2936.59 1061.81 L2947.35 1055.99 L2958.12 1050.18 L2968.89 1044.24 L2979.53 1038.17 L2990.30 1032.11 L3001.06 1025.80 L3011.83 1019.48 L3022.59 1013.17 L3033.24 1006.61 L3044.00 1000.06 L3054.77 993.37 L3065.53 986.57 L3076.18 979.64 L3086.94 972.71 L3097.71 965.53 L3108.48 958.35 L3119.24 951.05 L3129.89 943.62 L3140.65 936.20 L3151.42 928.53 L3162.18 920.85 L3172.83 913.06 L3183.59 905.14 L3194.36 897.09 L3205.12 888.92 L3215.77 880.76 L3226.53 872.34 L3237.30 863.93 L3248.07 855.26 L3258.83 846.60 L3269.47 837.81 L3280.24 828.90 L3291.01 819.87 L3301.77 810.71 L3312.42 801.43 L3323.18 792.02 L3333.95 782.50 L3344.72 772.97 L3355.36 763.19 L3366.12 753.41 L3376.89 743.39 L3387.66 733.37 L3398.42 723.34 L3409.07 713.07 L3419.83 702.67 L3430.60 692.28 L3441.36 681.76 L3452.01 671.24 L3462.77 660.47 L3473.54 649.71 L3484.30 638.82 L3494.95 627.93 L3505.71 616.91 L3516.48 605.78 L3527.25 594.64 L3538.01 583.38 L3548.66 571.99 L3559.42 560.61 L3570.19 549.10 L3580.95 537.59 L3591.60 525.95 L3602.36 514.20 L3613.13 502.44 L3623.89 490.68 L3634.54 478.80 L3645.30 466.92 L3656.07 454.92 L3666.84 442.92 L3677.60 430.79 L3688.24 418.66 L3699.01 406.41 L3709.78 394.16 L3720.54 381.90 L3731.19 369.65 L3741.95 357.28 L3752.72 344.90 L3763.49 332.40 L3774.13 319.90 L3784.89 307.40 L3795.66 294.91" stroke-linejoin="round" style="fill:none;stroke:#0000FF;stroke-width:8.64"/>
	<line x1="521.73" y1="2489.19" x2="521.73" y2="100.86" style="stroke:#000000;stroke-width:5.76"/>
	<line x1="521.73" y1="2425.82" x2="481.76" y2="2425.82" style="stroke:#000000;stroke-width:5.76"/>
	<text x="461.83" y="2460.85" style="font-family:'Helvetica';font-size:99.99px;fill:#000000" text-anchor="end">0.00</text>
	<line x1="521.73" y1="2176.09" x2="481.76" y2="2176.09" style="stroke:#000000;stroke-width:5.76"/>
	<text x="461.83" y="2211.12" style="font-family:'Helvetica';font-size:99.99px;fill:#000000" text-anchor="end">0.25</text>
	<line x1="521.73" y1="1926.35" x2="481.76" y2="1926.35" style="stroke:#000000;stroke-width:5.76"/>
	<text x="461.83" y="1961.38" style="font-family:'Helvetica';font-size:99.99px;fill:#000000" text-anchor="end">0.50</text>
	<line x1="521.73" y1="1676.62" x2="481.76" y2="1676.62" style="stroke:#000000;stroke-width:5.76"/>
	<text x="461.83" y="1711.65" style="font-family:'Helvetica';font-size:99.99px;fill:#000000" text-anchor="end">0.75</text>
	<line x1="521.73" y1="1426.88" x2="481.76" y2="1426.88" style="stroke:#000000;stroke-width:5.76"/>
	<text x="461.83" y="1461.91" style="font-family:'Helvetica';font-size:99.99px;fill:#000000" text-anchor="end">1.00</text>
	<line x1="521.73" y1="1177.15" x2="481.76" y2="1177.15" style="stroke:#000000;stroke-width:5.76"/>
	<text x="461.83" y="1212.18" style="font-family:'Helvetica';font-size:99.99px;fill:#000000" text-anchor="end">1.25</text>
	<line x1="521.73" y1="927.41" x2="481.76" y2="927.41" style="stroke:#000000;stroke-width:5.76"/>
	<text x="461.83" y="962.44" style="font-family:'Helvetica';font-size:99.99px;fill:#000000" text-anchor="end">1.50</text>
	<line x1="521.73" y1="677.55" x2="481.76" y2="677.55" style="stroke:#000000;stroke-width:5.76"/>
	<text x="461.83" y="712.58" style="font-family:'Helvetica';font-size:99.99px;fill:#000000" text-anchor="end">1.75</text>
	<line x1="521.73" y1="427.82" x2="481.76" y2="427.82" style="stroke:#000000;stroke-width:5.76"/>
	<text x="461.83" y="462.85" style="font-family:'Helvetica';font-size:99.99px;fill:#000000" text-anchor="end">2.00</text>
	<text x="190.71" y="1294.96" style="font-family:'Helvetica';font-size:99.99px;fill:#000000" transform="rotate(-90 190.71,1294.96)" text-anchor="middle">Cumulative mortality or admission (%)</text>
	<line x1="521.73" y1="2489.19" x2="3859.02" y2="2489.19" style="stroke:#000000;stroke-width:5.76"/>
	<line x1="585.09" y1="2489.19" x2="585.09" y2="2529.16" style="stroke:#000000;stroke-width:5.76"/>
	<text x="585.09" y="2619.14" style="font-family:'Helvetica';font-size:99.99px;fill:#000000" text-anchor="middle">1 March</text>
	<line x1="1572.99" y1="2489.19" x2="1572.99" y2="2529.16" style="stroke:#000000;stroke-width:5.76"/>
	<text x="1572.99" y="2619.14" style="font-family:'Helvetica';font-size:99.99px;fill:#000000" text-anchor="middle">1 June</text>
	<line x1="2560.88" y1="2489.19" x2="2560.88" y2="2529.16" style="stroke:#000000;stroke-width:5.76"/>
	<text x="2560.88" y="2619.14" style="font-family:'Helvetica';font-size:99.99px;fill:#000000" text-anchor="middle">1 September</text>
	<line x1="3538.01" y1="2489.19" x2="3538.01" y2="2529.16" style="stroke:#000000;stroke-width:5.76"/>
	<text x="3538.01" y="2619.14" style="font-family:'Helvetica';font-size:99.99px;fill:#000000" text-anchor="middle">1 December</text>
	<text x="2190.38" y="2729.16" style="font-family:'Helvetica';font-size:99.99px;fill:#000000" text-anchor="middle">Date in 2020</text>
	<rect x="556.38" y="135.39" width="1056.21" height="326.34" style="fill:#FFFFFF"/>
	<rect x="559.26" y="138.27" width="1050.45" height="320.58" style="fill:none;stroke:#000000;stroke-width:5.76"/>
	<rect x="599.57" y="178.58" width="374.34" height="99.99" style="fill:#FF3333;fill-opacity:0.25"/>
	<rect x="603.89" y="182.90" width="365.70" height="91.35" style="fill:none;stroke:#FF0000;stroke-opacity:0.25;stroke-width:8.64"/>
	<rect x="599.57" y="318.54" width="374.34" height="99.99" style="fill:#3333FF;fill-opacity:0.25"/>
	<rect x="603.89" y="322.86" width="365.70" height="91.35" style="fill:none;stroke:#0000FF;stroke-opacity:0.25;stroke-width:8.64"/>
	<text x="1033.93" y="263.60" style="font-family:'Helvetica';font-size:99.99px;fill:#000000">Not on LDR</text>
	<text x="1033.93" y="403.57" style="font-family:'Helvetica';font-size:99.99px;fill:#000000">On LDR</text>
</svg>
